<svg width="209" height="92" viewBox="0 0 209 92" fill="none" xmlns="http://www.w3.org/2000/svg">
<path d="M34.38 1.33005C34.3436 1.2265 34.2759 1.13681 34.1864 1.07336C34.0968 1.00991 33.9898 0.97583 33.88 0.97583C33.7702 0.97583 33.6632 1.00991 33.5736 1.07336C33.4841 1.13681 33.4164 1.2265 33.38 1.33005L1 90.86C0.970165 90.9355 0.959527 91.0172 0.969042 91.0977C0.978557 91.1783 1.00793 91.2552 1.05452 91.3217C1.10111 91.3881 1.16346 91.4419 1.23598 91.4782C1.3085 91.5146 1.38891 91.5324 1.47 91.53H15.32C15.4271 91.5384 15.5338 91.5089 15.6214 91.4468C15.7091 91.3847 15.7723 91.2939 15.8 91.19L30.47 50.82L33.37 42.82V42.73L41.37 20.73L34.38 1.33005Z" fill="url(#paint0_linear_722_283184)"/>
<path d="M66.77 90.8601C66.7937 90.9387 66.7985 91.0219 66.7839 91.1027C66.7692 91.1836 66.7357 91.2598 66.6859 91.3252C66.6362 91.3905 66.5716 91.4432 66.4976 91.4788C66.4235 91.5144 66.3421 91.532 66.26 91.5301H52.45C52.3457 91.5308 52.2438 91.4983 52.1593 91.4371C52.0747 91.3759 52.0119 91.2894 51.98 91.1901L35.33 45.3601L42.75 24.4601L66.77 90.8601Z" fill="url(#paint1_linear_722_283184)"/>
<path d="M86.71 4.82007H136.13V5.19007C136.122 6.19279 136.058 7.19429 135.94 8.19007C135.703 9.73754 135.339 11.2627 134.85 12.7501C134.297 14.6064 133.483 16.3742 132.43 18.0001C131.214 19.7407 129.668 21.2254 127.88 22.3701C125.739 23.7899 123.305 24.7093 120.76 25.0601H69.64C69.9187 19.7955 71.878 14.7591 75.23 10.6901C78.5167 6.7834 82.3433 4.82674 86.71 4.82007ZM69.73 38.0001H118.11C123.103 38.0001 127.353 40.3101 130.86 44.9301C134.433 49.74 136.289 55.6101 136.13 61.6001V67.8501C136.289 73.8369 134.433 79.7036 130.86 84.5101C127.347 89.1301 123.097 91.4434 118.11 91.4501H86.71C82.35 91.4501 78.5233 89.4934 75.23 85.5801C71.8818 81.5127 69.9229 76.4807 69.64 71.2201H118.2C118.648 71.2152 119.081 71.0603 119.43 70.7801C119.844 70.447 120.17 70.0179 120.38 69.5301C120.627 69.0043 120.757 68.431 120.76 67.8501V61.6301C120.776 60.7713 120.493 59.9336 119.96 59.2601C119.75 58.9612 119.474 58.7152 119.153 58.5416C118.832 58.368 118.475 58.2716 118.11 58.2601H86.43C83.6516 57.8143 81.0094 56.7478 78.7 55.1401C76.6724 53.8025 74.9651 52.0337 73.7 49.9601C72.6691 48.1866 71.7957 46.3262 71.09 44.4001C70.5226 42.9539 70.1233 41.4474 69.9 39.9101L69.73 38.0001Z" fill="url(#paint2_linear_722_283184)"/>
<path d="M157.73 4.75C155.578 5.0343 153.497 5.71226 151.59 6.75C149.946 7.63112 148.497 8.8352 147.33 10.29C146.365 11.5872 145.486 12.9468 144.7 14.36H207C207.19 13.83 207.39 13.3 207.58 12.75C208.096 11.2871 208.481 9.78116 208.73 8.25C208.834 7.25332 208.887 6.25205 208.89 5.25V4.75H157.73ZM144 16C143.642 16.8943 143.361 17.8177 143.16 18.76C142.86 20.24 142.63 21.41 142.55 22.25C142.451 23.0361 142.404 23.8278 142.41 24.62V25H168V91.54H183.37V25H193.61C196.128 24.7088 198.544 23.8395 200.67 22.46C202.467 21.2994 204.005 19.7812 205.19 18C205.585 17.353 205.946 16.6854 206.27 16H144Z" fill="url(#paint3_linear_722_283184)"/>
<defs>
<linearGradient id="paint0_linear_722_283184" x1="1" y1="46.26" x2="41.38" y2="46.26" gradientUnits="userSpaceOnUse">
<stop stop-color="#232462"/>
<stop offset="1" stop-color="#0281AA"/>
</linearGradient>
<linearGradient id="paint1_linear_722_283184" x1="35.33" y1="57.9901" x2="66.79" y2="57.9901" gradientUnits="userSpaceOnUse">
<stop stop-color="#232462"/>
<stop offset="1" stop-color="#0281AA"/>
</linearGradient>
<linearGradient id="paint2_linear_722_283184" x1="69.64" y1="48.1501" x2="136.13" y2="48.1501" gradientUnits="userSpaceOnUse">
<stop stop-color="#1A2453"/>
<stop offset="1" stop-color="#653F99"/>
</linearGradient>
<linearGradient id="paint3_linear_722_283184" x1="142.36" y1="48.14" x2="208.92" y2="48.14" gradientUnits="userSpaceOnUse">
<stop stop-color="#681D5B"/>
<stop offset="1" stop-color="#BE6228"/>
</linearGradient>
</defs>
</svg>
