<svg width="38" height="34" viewBox="0 0 38 34" fill="none" xmlns="http://www.w3.org/2000/svg">
<path d="M28.2625 13.7656H2.6125C2.23457 13.7656 1.87211 13.9118 1.60487 14.172C1.33763 14.4322 1.1875 14.7851 1.1875 15.1531V29.7219C1.1875 29.9041 1.22436 30.0845 1.29597 30.2528C1.36758 30.4212 1.47255 30.5741 1.60487 30.703C1.7372 30.8318 1.89429 30.934 2.06718 31.0038C2.24007 31.0735 2.42537 31.1094 2.6125 31.1094H28.2625C28.6404 31.1094 29.0029 30.9632 29.2701 30.703C29.5374 30.4428 29.6875 30.0899 29.6875 29.7219V15.1531C29.6875 14.7851 29.5374 14.4322 29.2701 14.172C29.0029 13.9118 28.6404 13.7656 28.2625 13.7656ZM7.125 27.6406H5.9375C5.62256 27.6406 5.32051 27.5188 5.09781 27.302C4.87511 27.0851 4.75 26.791 4.75 26.4844C4.75 26.1777 4.87511 25.8836 5.09781 25.6668C5.32051 25.4499 5.62256 25.3281 5.9375 25.3281H7.125C7.43994 25.3281 7.74199 25.4499 7.96469 25.6668C8.18739 25.8836 8.3125 26.1777 8.3125 26.4844C8.3125 26.791 8.18739 27.0851 7.96469 27.302C7.74199 27.5188 7.43994 27.6406 7.125 27.6406ZM13.0625 27.6406H11.875C11.5601 27.6406 11.258 27.5188 11.0353 27.302C10.8126 27.0851 10.6875 26.791 10.6875 26.4844C10.6875 26.1777 10.8126 25.8836 11.0353 25.6668C11.258 25.4499 11.5601 25.3281 11.875 25.3281H13.0625C13.3774 25.3281 13.6795 25.4499 13.9022 25.6668C14.1249 25.8836 14.25 26.1777 14.25 26.4844C14.25 26.791 14.1249 27.0851 13.9022 27.302C13.6795 27.5188 13.3774 27.6406 13.0625 27.6406ZM14.25 23.0156H5.9375C5.62256 23.0156 5.32051 22.8938 5.09781 22.677C4.87511 22.4601 4.75 22.166 4.75 21.8594C4.75 21.5527 4.87511 21.2586 5.09781 21.0418C5.32051 20.8249 5.62256 20.7031 5.9375 20.7031H14.25C14.5649 20.7031 14.867 20.8249 15.0897 21.0418C15.3124 21.2586 15.4375 21.5527 15.4375 21.8594C15.4375 22.166 15.3124 22.4601 15.0897 22.677C14.867 22.8938 14.5649 23.0156 14.25 23.0156ZM19 27.6406H17.8125C17.4976 27.6406 17.1955 27.5188 16.9728 27.302C16.7501 27.0851 16.625 26.791 16.625 26.4844C16.625 26.1777 16.7501 25.8836 16.9728 25.6668C17.1955 25.4499 17.4976 25.3281 17.8125 25.3281H19C19.3149 25.3281 19.617 25.4499 19.8397 25.6668C20.0624 25.8836 20.1875 26.1777 20.1875 26.4844C20.1875 26.791 20.0624 27.0851 19.8397 27.302C19.617 27.5188 19.3149 27.6406 19 27.6406ZM24.9375 27.6406H23.75C23.4351 27.6406 23.133 27.5188 22.9103 27.302C22.6876 27.0851 22.5625 26.791 22.5625 26.4844C22.5625 26.1777 22.6876 25.8836 22.9103 25.6668C23.133 25.4499 23.4351 25.3281 23.75 25.3281H24.9375C25.2524 25.3281 25.5545 25.4499 25.7772 25.6668C25.9999 25.8836 26.125 26.1777 26.125 26.4844C26.125 26.791 25.9999 27.0851 25.7772 27.302C25.5545 27.5188 25.2524 27.6406 24.9375 27.6406ZM24.9375 19.5469H21.375C21.0601 19.5469 20.758 19.4251 20.5353 19.2082C20.3126 18.9914 20.1875 18.6973 20.1875 18.3906C20.1875 18.084 20.3126 17.7899 20.5353 17.573C20.758 17.3562 21.0601 17.2344 21.375 17.2344H24.9375C25.2524 17.2344 25.5545 17.3562 25.7772 17.573C25.9999 17.7899 26.125 18.084 26.125 18.3906C26.125 18.6973 25.9999 18.9914 25.7772 19.2082C25.5545 19.4251 25.2524 19.5469 24.9375 19.5469Z" fill="#E0E0E0"/>
<path d="M36.7528 14.691L31.5872 0.81599C31.5213 0.644925 31.4213 0.488225 31.293 0.354885C31.1647 0.221545 31.0106 0.114192 30.8396 0.0389889C30.6685 -0.0362145 30.4839 -0.0777872 30.2964 -0.0833428C30.1088 -0.0888984 29.922 -0.0583275 29.7466 0.00661514L5.69969 8.50505C5.524 8.56925 5.36306 8.66661 5.22612 8.79153C5.08918 8.91646 4.97892 9.06648 4.90169 9.23301C4.82445 9.39953 4.78176 9.57926 4.77605 9.76189C4.77034 9.94453 4.80174 10.1265 4.86844 10.2972L5.28406 11.4535H7.71844L32.2997 2.7238L33.1309 4.92068L14.6653 11.4535H28.2622C29.27 11.4535 30.2366 11.8433 30.9492 12.5372C31.6618 13.2311 32.0622 14.1722 32.0622 15.1535V17.8129L35.8622 16.4832C36.0432 16.4248 36.2103 16.3316 36.3536 16.2092C36.497 16.0868 36.6136 15.9376 36.6967 15.7704C36.7797 15.6033 36.8275 15.4217 36.8371 15.2363C36.8468 15.0508 36.8181 14.8654 36.7528 14.691ZM30.8153 9.6613L28.1434 10.5863H27.7278C27.4413 10.5975 27.1602 10.5074 26.9366 10.3326C26.713 10.1578 26.5619 9.91009 26.5112 9.63526C26.4606 9.36042 26.5138 9.07702 26.661 8.83739C26.8082 8.59777 27.0395 8.41812 27.3122 8.33162L29.9841 7.40662C30.2833 7.29929 30.614 7.31208 30.9035 7.44218C31.193 7.57229 31.4176 7.80904 31.5278 8.10037C31.638 8.39169 31.6249 8.71372 31.4913 8.99561C31.3577 9.2775 31.1145 9.49616 30.8153 9.60349V9.6613Z" fill="white"/>
</svg>
