<svg width="44" height="44" viewBox="0 0 44 44" fill="none" xmlns="http://www.w3.org/2000/svg">
<path d="M13.75 31.6248C20.5845 31.6248 26.125 30.055 26.125 28.1186C26.125 26.1821 20.5845 24.6123 13.75 24.6123C6.91548 24.6123 1.375 26.1821 1.375 28.1186C1.375 30.055 6.91548 31.6248 13.75 31.6248Z" fill="#E0E0E0"/>
<path d="M1.375 32.1064V34.8564C5.01875 36.9189 11.275 37.1252 13.75 37.1252C16.225 37.1252 22.4812 36.9189 26.125 34.8564V32.1064C22.4812 34.1689 16.225 34.3752 13.75 34.3752C11.275 34.3752 5.01875 34.1689 1.375 32.1064ZM1.375 37.6064V40.3564C5.01875 42.4189 11.275 42.6252 13.75 42.6252C16.225 42.6252 22.4812 42.4189 26.125 40.3564V37.6064C22.4812 39.6689 16.225 39.8752 13.75 39.8752C11.275 39.8752 5.01875 39.6689 1.375 37.6064Z" fill="#E0E0E0"/>
<path d="M28.8063 27.5686C28.8415 27.7501 28.8644 27.9339 28.875 28.1186C28.8759 28.9049 28.636 29.6726 28.1875 30.3186H30.25C32.725 30.3186 38.9812 30.1123 42.625 28.0498V25.2998C38.9812 27.3623 32.725 27.5686 30.25 27.5686H28.8063ZM28.875 33.0686V34.8561C28.8647 35.1867 28.7948 35.5127 28.6688 35.8186H30.25C32.725 35.8186 38.9812 35.6123 42.625 33.5498V30.7998C38.9812 32.8623 32.725 33.0686 30.25 33.0686H28.875Z" fill="white"/>
<path d="M30.25 8.3875C37.0845 8.3875 42.625 6.8177 42.625 4.88125C42.625 2.9448 37.0845 1.375 30.25 1.375C23.4155 1.375 17.875 2.9448 17.875 4.88125C17.875 6.8177 23.4155 8.3875 30.25 8.3875Z" fill="white"/>
<path d="M17.875 19.8691V22.0691C21.0375 22.3441 24.8187 23.0316 27.0187 24.7504L30.25 24.8879C32.725 24.8879 38.9812 24.6816 42.625 22.6191V19.8691C38.9812 21.9316 32.725 22.1379 30.25 22.1379C27.775 22.1379 21.5188 21.8629 17.875 19.8691ZM17.875 8.86914V11.6191C21.5188 13.6816 27.775 13.8879 30.25 13.8879C32.725 13.8879 38.9812 13.6816 42.625 11.6191V8.86914C38.9812 10.9316 32.725 11.1379 30.25 11.1379C27.775 11.1379 21.5188 10.8629 17.875 8.86914ZM17.875 14.3691V17.1191C21.5188 19.1816 27.775 19.3879 30.25 19.3879C32.725 19.3879 38.9812 19.1816 42.625 17.1191V14.3691C38.9812 16.4316 32.725 16.6379 30.25 16.6379C27.775 16.6379 21.5188 16.3629 17.875 14.3691Z" fill="white"/>
</svg>
