<svg width="48" height="48" viewBox="0 0 48 48" fill="none" xmlns="http://www.w3.org/2000/svg">
<path d="M44.25 1.5H3.75C3.15326 1.5 2.58097 1.73705 2.15901 2.15901C1.73705 2.58097 1.5 3.15326 1.5 3.75V41.25C1.5 41.8467 1.73705 42.419 2.15901 42.841C2.58097 43.2629 3.15326 43.5 3.75 43.5H6V45C6 45.3978 6.15804 45.7794 6.43934 46.0607C6.72064 46.342 7.10218 46.5 7.5 46.5C7.89782 46.5 8.27936 46.342 8.56066 46.0607C8.84196 45.7794 9 45.3978 9 45V43.5H39V45C39 45.3978 39.158 45.7794 39.4393 46.0607C39.7206 46.342 40.1022 46.5 40.5 46.5C40.8978 46.5 41.2794 46.342 41.5607 46.0607C41.842 45.7794 42 45.3978 42 45V43.5H44.25C44.8467 43.5 45.419 43.2629 45.841 42.841C46.2629 42.419 46.5 41.8467 46.5 41.25V3.75C46.5 3.15326 46.2629 2.58097 45.841 2.15901C45.419 1.73705 44.8467 1.5 44.25 1.5ZM42 39H6V31.5C5.60218 31.5 5.22064 31.342 4.93934 31.0607C4.65804 30.7794 4.5 30.3978 4.5 30C4.5 29.6022 4.65804 29.2206 4.93934 28.9393C5.22064 28.658 5.60218 28.5 6 28.5V16.5C5.60218 16.5 5.22064 16.342 4.93934 16.0607C4.65804 15.7794 4.5 15.3978 4.5 15C4.5 14.6022 4.65804 14.2206 4.93934 13.9393C5.22064 13.658 5.60218 13.5 6 13.5V6H42V39Z" fill="#E0E0E0"/>
<path d="M39 9H9V13.5C9.39782 13.5 9.77936 13.658 10.0607 13.9393C10.342 14.2206 10.5 14.6022 10.5 15C10.5 15.3978 10.342 15.7794 10.0607 16.0607C9.77936 16.342 9.39782 16.5 9 16.5V28.5C9.39782 28.5 9.77936 28.658 10.0607 28.9393C10.342 29.2206 10.5 29.6022 10.5 30C10.5 30.3978 10.342 30.7794 10.0607 31.0607C9.77936 31.342 9.39782 31.5 9 31.5V36H39V9ZM30 13.5C30.89 13.5 31.76 13.7639 32.5001 14.2584C33.2401 14.7529 33.8169 15.4557 34.1575 16.2779C34.4981 17.1002 34.5872 18.005 34.4135 18.8779C34.2399 19.7508 33.8113 20.5526 33.182 21.182C32.5526 21.8113 31.7508 22.2399 30.8779 22.4135C30.005 22.5872 29.1002 22.4981 28.2779 22.1575C27.4557 21.8169 26.7529 21.2401 26.2584 20.5001C25.7639 19.76 25.5 18.89 25.5 18C25.5 16.8065 25.9741 15.6619 26.818 14.818C27.6619 13.9741 28.8065 13.5 30 13.5ZM33 33H27C26.6022 33 26.2206 32.842 25.9393 32.5607C25.658 32.2794 25.5 31.8978 25.5 31.5C25.5 31.1022 25.658 30.7206 25.9393 30.4393C26.2206 30.158 26.6022 30 27 30H33C33.3978 30 33.7794 30.158 34.0607 30.4393C34.342 30.7206 34.5 31.1022 34.5 31.5C34.5 31.8978 34.342 32.2794 34.0607 32.5607C33.7794 32.842 33.3978 33 33 33ZM33 28.5H27C26.6022 28.5 26.2206 28.342 25.9393 28.0607C25.658 27.7794 25.5 27.3978 25.5 27C25.5 26.6022 25.658 26.2206 25.9393 25.9393C26.2206 25.658 26.6022 25.5 27 25.5H33C33.3978 25.5 33.7794 25.658 34.0607 25.9393C34.342 26.2206 34.5 26.6022 34.5 27C34.5 27.3978 34.342 27.7794 34.0607 28.0607C33.7794 28.342 33.3978 28.5 33 28.5Z" fill="white"/>
</svg>
