<svg width="48" height="48" viewBox="0 0 48 48" fill="none" xmlns="http://www.w3.org/2000/svg">
<path d="M33 13.5H39V40.5H33V13.5ZM44.25 13.5H42V40.5H44.25C44.8467 40.5 45.419 40.2629 45.841 39.841C46.2629 39.419 46.5 38.8467 46.5 38.25V15.75C46.5 15.1533 46.2629 14.581 45.841 14.159C45.419 13.7371 44.8467 13.5 44.25 13.5Z" fill="#E0E0E0"/>
<path d="M27.75 1.5H3.75C3.15326 1.5 2.58097 1.73705 2.15901 2.15901C1.73705 2.58097 1.5 3.15326 1.5 3.75V44.25C1.5 44.8467 1.73705 45.419 2.15901 45.841C2.58097 46.2629 3.15326 46.5 3.75 46.5H27.75C28.3467 46.5 28.919 46.2629 29.341 45.841C29.7629 45.419 30 44.8467 30 44.25V3.75C30 3.15326 29.7629 2.58097 29.341 2.15901C28.919 1.73705 28.3467 1.5 27.75 1.5ZM7.5 7.5H24V19.5H7.5V7.5ZM9 40.5H7.5C7.10218 40.5 6.72064 40.342 6.43934 40.0607C6.15804 39.7794 6 39.3978 6 39C6 38.6022 6.15804 38.2206 6.43934 37.9393C6.72064 37.658 7.10218 37.5 7.5 37.5H9C9.39782 37.5 9.77936 37.658 10.0607 37.9393C10.342 38.2206 10.5 38.6022 10.5 39C10.5 39.3978 10.342 39.7794 10.0607 40.0607C9.77936 40.342 9.39782 40.5 9 40.5ZM9 34.5H7.5C7.10218 34.5 6.72064 34.342 6.43934 34.0607C6.15804 33.7794 6 33.3978 6 33C6 32.6022 6.15804 32.2206 6.43934 31.9393C6.72064 31.658 7.10218 31.5 7.5 31.5H9C9.39782 31.5 9.77936 31.658 10.0607 31.9393C10.342 32.2206 10.5 32.6022 10.5 33C10.5 33.3978 10.342 33.7794 10.0607 34.0607C9.77936 34.342 9.39782 34.5 9 34.5ZM9 28.5H7.5C7.10218 28.5 6.72064 28.342 6.43934 28.0607C6.15804 27.7794 6 27.3978 6 27C6 26.6022 6.15804 26.2206 6.43934 25.9393C6.72064 25.658 7.10218 25.5 7.5 25.5H9C9.39782 25.5 9.77936 25.658 10.0607 25.9393C10.342 26.2206 10.5 26.6022 10.5 27C10.5 27.3978 10.342 27.7794 10.0607 28.0607C9.77936 28.342 9.39782 28.5 9 28.5ZM16.5 40.5H15C14.6022 40.5 14.2206 40.342 13.9393 40.0607C13.658 39.7794 13.5 39.3978 13.5 39C13.5 38.6022 13.658 38.2206 13.9393 37.9393C14.2206 37.658 14.6022 37.5 15 37.5H16.5C16.8978 37.5 17.2794 37.658 17.5607 37.9393C17.842 38.2206 18 38.6022 18 39C18 39.3978 17.842 39.7794 17.5607 40.0607C17.2794 40.342 16.8978 40.5 16.5 40.5ZM16.5 34.5H15C14.6022 34.5 14.2206 34.342 13.9393 34.0607C13.658 33.7794 13.5 33.3978 13.5 33C13.5 32.6022 13.658 32.2206 13.9393 31.9393C14.2206 31.658 14.6022 31.5 15 31.5H16.5C16.8978 31.5 17.2794 31.658 17.5607 31.9393C17.842 32.2206 18 32.6022 18 33C18 33.3978 17.842 33.7794 17.5607 34.0607C17.2794 34.342 16.8978 34.5 16.5 34.5ZM16.5 28.5H15C14.6022 28.5 14.2206 28.342 13.9393 28.0607C13.658 27.7794 13.5 27.3978 13.5 27C13.5 26.6022 13.658 26.2206 13.9393 25.9393C14.2206 25.658 14.6022 25.5 15 25.5H16.5C16.8978 25.5 17.2794 25.658 17.5607 25.9393C17.842 26.2206 18 26.6022 18 27C18 27.3978 17.842 27.7794 17.5607 28.0607C17.2794 28.342 16.8978 28.5 16.5 28.5ZM24 40.5H22.5C22.1022 40.5 21.7206 40.342 21.4393 40.0607C21.158 39.7794 21 39.3978 21 39C21 38.6022 21.158 38.2206 21.4393 37.9393C21.7206 37.658 22.1022 37.5 22.5 37.5H24C24.3978 37.5 24.7794 37.658 25.0607 37.9393C25.342 38.2206 25.5 38.6022 25.5 39C25.5 39.3978 25.342 39.7794 25.0607 40.0607C24.7794 40.342 24.3978 40.5 24 40.5ZM24 34.5H22.5C22.1022 34.5 21.7206 34.342 21.4393 34.0607C21.158 33.7794 21 33.3978 21 33C21 32.6022 21.158 32.2206 21.4393 31.9393C21.7206 31.658 22.1022 31.5 22.5 31.5H24C24.3978 31.5 24.7794 31.658 25.0607 31.9393C25.342 32.2206 25.5 32.6022 25.5 33C25.5 33.3978 25.342 33.7794 25.0607 34.0607C24.7794 34.342 24.3978 34.5 24 34.5ZM24 28.5H22.5C22.1022 28.5 21.7206 28.342 21.4393 28.0607C21.158 27.7794 21 27.3978 21 27C21 26.6022 21.158 26.2206 21.4393 25.9393C21.7206 25.658 22.1022 25.5 22.5 25.5H24C24.3978 25.5 24.7794 25.658 25.0607 25.9393C25.342 26.2206 25.5 26.6022 25.5 27C25.5 27.3978 25.342 27.7794 25.0607 28.0607C24.7794 28.342 24.3978 28.5 24 28.5Z" fill="white"/>
</svg>
