<svg width="48" height="48" viewBox="0 0 48 48" fill="none" xmlns="http://www.w3.org/2000/svg">
<path d="M3 33.75H45V36.75H3V33.75ZM3 39.75H45V42.75H3V39.75Z" fill="white" fill-opacity="0.5"/>
<path d="M3 5.25V29.25H45V5.25H3ZM12 12.75H9C8.60218 12.75 8.22064 12.592 7.93934 12.3107C7.65804 12.0294 7.5 11.6478 7.5 11.25C7.5 10.8522 7.65804 10.4706 7.93934 10.1893C8.22064 9.90804 8.60218 9.75 9 9.75H12C12.3978 9.75 12.7794 9.90804 13.0607 10.1893C13.342 10.4706 13.5 10.8522 13.5 11.25C13.5 11.6478 13.342 12.0294 13.0607 12.3107C12.7794 12.592 12.3978 12.75 12 12.75ZM24 23.25C22.8133 23.25 21.6533 22.8981 20.6666 22.2388C19.6799 21.5795 18.9108 20.6425 18.4567 19.5461C18.0026 18.4497 17.8838 17.2433 18.1153 16.0795C18.3468 14.9156 18.9182 13.8465 19.7574 13.0074C20.5965 12.1682 21.6656 11.5968 22.8295 11.3653C23.9933 11.1338 25.1997 11.2526 26.2961 11.7067C27.3925 12.1608 28.3295 12.9299 28.9888 13.9166C29.6481 14.9033 30 16.0633 30 17.25C30 18.8413 29.3679 20.3674 28.2426 21.4926C27.1174 22.6179 25.5913 23.25 24 23.25ZM39 24.75H36C35.6022 24.75 35.2206 24.592 34.9393 24.3107C34.658 24.0294 34.5 23.6478 34.5 23.25C34.5 22.8522 34.658 22.4706 34.9393 22.1893C35.2206 21.908 35.6022 21.75 36 21.75H39C39.3978 21.75 39.7794 21.908 40.0607 22.1893C40.342 22.4706 40.5 22.8522 40.5 23.25C40.5 23.6478 40.342 24.0294 40.0607 24.3107C39.7794 24.592 39.3978 24.75 39 24.75Z" fill="white"/>
</svg>
