<svg width="32" height="45" viewBox="0 0 32 45" fill="none" xmlns="http://www.w3.org/2000/svg">
<path d="M26.925 0L22.5 3L18 0L13.5 3L9 0L4.5 3L0 0V40.5L4.575 45L9.075 42L13.575 45L18.075 42L22.575 45L27.075 42L31.575 45V4.5L26.925 0ZM15 33H6C5.60218 33 5.22064 32.842 4.93934 32.5607C4.65804 32.2794 4.5 31.8978 4.5 31.5C4.5 31.1022 4.65804 30.7206 4.93934 30.4393C5.22064 30.158 5.60218 30 6 30H15C15.3978 30 15.7794 30.158 16.0607 30.4393C16.342 30.7206 16.5 31.1022 16.5 31.5C16.5 31.8978 16.342 32.2794 16.0607 32.5607C15.7794 32.842 15.3978 33 15 33ZM18 27H6C5.60218 27 5.22064 26.842 4.93934 26.5607C4.65804 26.2794 4.5 25.8978 4.5 25.5C4.5 25.1022 4.65804 24.7206 4.93934 24.4393C5.22064 24.158 5.60218 24 6 24H18C18.3978 24 18.7794 24.158 19.0607 24.4393C19.342 24.7206 19.5 25.1022 19.5 25.5C19.5 25.8978 19.342 26.2794 19.0607 26.5607C18.7794 26.842 18.3978 27 18 27ZM4.5 19.5C4.5 19.1022 4.65804 18.7206 4.93934 18.4393C5.22064 18.158 5.60218 18 6 18H15C15.3978 18 15.7794 18.158 16.0607 18.4393C16.342 18.7206 16.5 19.1022 16.5 19.5C16.5 19.8978 16.342 20.2794 16.0607 20.5607C15.7794 20.842 15.3978 21 15 21H6C5.60218 21 5.22064 20.842 4.93934 20.5607C4.65804 20.2794 4.5 19.8978 4.5 19.5ZM18 15H6C5.60218 15 5.22064 14.842 4.93934 14.5607C4.65804 14.2794 4.5 13.8978 4.5 13.5C4.5 13.1022 4.65804 12.7206 4.93934 12.4393C5.22064 12.158 5.60218 12 6 12H18C18.3978 12 18.7794 12.158 19.0607 12.4393C19.342 12.7206 19.5 13.1022 19.5 13.5C19.5 13.8978 19.342 14.2794 19.0607 14.5607C18.7794 14.842 18.3978 15 18 15ZM25.5 33H24C23.6022 33 23.2206 32.842 22.9393 32.5607C22.658 32.2794 22.5 31.8978 22.5 31.5C22.5 31.1022 22.658 30.7206 22.9393 30.4393C23.2206 30.158 23.6022 30 24 30H25.5C25.8978 30 26.2794 30.158 26.5607 30.4393C26.842 30.7206 27 31.1022 27 31.5C27 31.8978 26.842 32.2794 26.5607 32.5607C26.2794 32.842 25.8978 33 25.5 33ZM25.5 27H24C23.6022 27 23.2206 26.842 22.9393 26.5607C22.658 26.2794 22.5 25.8978 22.5 25.5C22.5 25.1022 22.658 24.7206 22.9393 24.4393C23.2206 24.158 23.6022 24 24 24H25.5C25.8978 24 26.2794 24.158 26.5607 24.4393C26.842 24.7206 27 25.1022 27 25.5C27 25.8978 26.842 26.2794 26.5607 26.5607C26.2794 26.842 25.8978 27 25.5 27ZM25.5 21H24C23.6022 21 23.2206 20.842 22.9393 20.5607C22.658 20.2794 22.5 19.8978 22.5 19.5C22.5 19.1022 22.658 18.7206 22.9393 18.4393C23.2206 18.158 23.6022 18 24 18H25.5C25.8978 18 26.2794 18.158 26.5607 18.4393C26.842 18.7206 27 19.1022 27 19.5C27 19.8978 26.842 20.2794 26.5607 20.5607C26.2794 20.842 25.8978 21 25.5 21ZM25.5 15H24C23.6022 15 23.2206 14.842 22.9393 14.5607C22.658 14.2794 22.5 13.8978 22.5 13.5C22.5 13.1022 22.658 12.7206 22.9393 12.4393C23.2206 12.158 23.6022 12 24 12H25.5C25.8978 12 26.2794 12.158 26.5607 12.4393C26.842 12.7206 27 13.1022 27 13.5C27 13.8978 26.842 14.2794 26.5607 14.5607C26.2794 14.842 25.8978 15 25.5 15Z" fill="white"/>
</svg>
