<svg width="615" height="607" viewBox="0 0 615 607" fill="none" xmlns="http://www.w3.org/2000/svg">
<g clip-path="url(#clip0_1_276256)">
<path d="M307.404 487.707C404.791 487.707 483.738 408.76 483.738 311.373C483.738 213.987 404.791 135.04 307.404 135.04C210.018 135.04 131.07 213.987 131.07 311.373C131.07 408.76 210.018 487.707 307.404 487.707Z" fill="#F2F2F2"/>
<path d="M307.405 99.8603C297.529 99.8612 287.875 96.9335 279.663 91.4475C271.451 85.9615 265.051 78.1635 261.271 69.0397C257.491 59.916 256.502 49.8762 258.428 40.1901C260.354 30.5039 265.109 21.6065 272.092 14.623C279.075 7.63939 287.972 2.88338 297.658 0.956372C307.344 -0.970637 317.383 0.0179073 326.508 3.79699C335.632 7.57608 343.43 13.976 348.917 22.1873C354.404 30.3987 357.332 40.0526 357.332 49.9284C357.314 63.1647 352.048 75.8535 342.689 85.2134C333.33 94.5733 320.642 99.8405 307.405 99.8603ZM307.405 3.73974C298.269 3.73881 289.337 6.44734 281.74 11.5228C274.143 16.5982 268.221 23.8126 264.724 32.2535C261.228 40.6944 260.312 49.9828 262.095 58.9438C263.877 67.9049 268.276 76.1362 274.737 82.5967C281.197 89.0573 289.429 93.4569 298.39 95.2391C307.351 97.0213 316.639 96.1062 325.08 92.6093C333.521 89.1125 340.735 83.191 345.811 75.5938C350.886 67.9967 353.595 59.065 353.594 49.9284C353.574 37.6845 348.702 25.9477 340.044 17.2899C331.386 8.63216 319.649 3.75951 307.405 3.73974Z" fill="#A6A8AB"/>
<path d="M309.274 97.9912H305.535V155.447H309.274V97.9912Z" fill="#A6A8AB"/>
<path d="M139.441 161.031C137.964 161.031 136.487 160.965 135.001 160.834C122.054 159.681 110.073 153.504 101.623 143.628C93.1733 133.751 88.9257 120.958 89.7898 107.989C90.6539 95.0194 96.561 82.9035 106.247 74.235C115.932 65.5664 128.626 61.0341 141.612 61.6082C154.598 62.1823 166.842 67.8172 175.725 77.3067C184.608 86.7961 189.423 99.386 189.139 112.381C188.855 125.376 183.495 137.744 174.207 146.837C164.918 155.929 152.439 161.024 139.441 161.031ZM139.314 64.9242C128.806 64.9379 118.617 68.5353 110.43 75.1222C102.243 81.7091 96.5473 90.8915 94.2839 101.153C92.0205 111.414 93.3247 122.141 97.9812 131.561C102.638 140.98 110.368 148.53 119.895 152.963C129.422 157.396 140.176 158.447 150.381 155.943C160.586 153.438 169.632 147.527 176.024 139.187C182.416 130.846 185.772 120.575 185.538 110.07C185.304 99.5647 181.493 89.4534 174.736 81.4062C170.405 76.2259 164.986 72.0635 158.863 69.2149C152.741 66.3662 146.067 64.9013 139.314 64.9242Z" fill="#A6A8AB"/>
<path d="M171.669 146.709L168.805 149.112L205.736 193.126L208.6 190.723L171.669 146.709Z" fill="#A6A8AB"/>
<path d="M49.9592 315.902C43.0327 315.908 36.1807 314.472 29.8387 311.687C23.4968 308.902 17.8037 304.828 13.1214 299.724C8.43904 294.62 4.86986 288.597 2.64074 282.039C0.411629 275.481 -0.428661 268.531 0.173293 261.631C0.775246 254.73 2.80627 248.031 6.13727 241.958C9.46826 235.885 14.0263 230.571 19.5218 226.355C25.0172 222.138 31.3297 219.112 38.0581 217.467C44.7865 215.822 51.7836 215.595 58.6044 216.8C70.8981 218.972 81.9321 225.671 89.5314 235.575C97.1308 245.48 100.744 257.872 99.6591 270.309C98.5742 282.746 92.8697 294.325 83.6702 302.765C74.4706 311.204 62.4434 315.891 49.9592 315.902ZM49.9125 219.772C38.0007 219.762 26.5447 224.349 17.9328 232.579C9.3209 240.809 4.21787 252.045 3.68762 263.945C3.15737 275.845 7.24083 287.49 15.0866 296.453C22.9325 305.416 33.9351 311.004 45.8005 312.054C57.666 313.103 69.4786 309.532 78.7754 302.085C88.0723 294.637 94.1358 283.889 95.702 272.081C97.2681 260.273 94.2159 248.315 87.1817 238.702C80.1475 229.089 69.6743 222.562 57.9455 220.482C55.2932 220.016 52.6055 219.78 49.9125 219.777V219.772Z" fill="#A6A8AB"/>
<path d="M97.5906 272.478L96.9414 276.159L153.519 286.135L154.169 282.454L97.5906 272.478Z" fill="#A6A8AB"/>
<path d="M81.0701 492.044C76.6798 492.041 72.3088 491.461 68.0696 490.319C55.9163 487.029 45.4683 479.241 38.843 468.534C32.2177 457.828 29.9105 445.002 32.3889 432.658C34.8674 420.313 41.9461 409.373 52.1907 402.053C62.4353 394.733 75.0795 391.582 87.561 393.237C100.043 394.893 111.428 401.231 119.41 410.969C127.392 420.706 131.374 433.114 130.549 445.678C129.723 458.241 124.153 470.022 114.965 478.631C105.778 487.241 93.661 492.035 81.0701 492.044ZM57.8963 402.092C48.6437 407.435 41.53 415.822 37.7673 425.822C34.0047 435.822 33.8259 446.818 37.2614 456.935C40.6969 467.053 47.5341 475.666 56.6082 481.307C65.6822 486.949 76.4316 489.269 87.0248 487.874C97.6181 486.478 107.4 481.453 114.703 473.654C122.007 465.855 126.38 455.765 127.078 445.103C127.776 434.441 124.756 423.867 118.532 415.182C112.308 406.498 103.265 400.24 92.9444 397.475C87.0873 395.889 80.9739 395.48 74.9579 396.273C68.942 397.065 63.1429 399.043 57.8963 402.092Z" fill="#A6A8AB"/>
<path d="M171.426 387.728L121.668 416.455L123.537 419.693L173.295 390.965L171.426 387.728Z" fill="#A6A8AB"/>
<path d="M218.016 607.001C205.686 607.03 193.779 602.505 184.58 594.295C175.382 586.084 169.538 574.766 168.172 562.512C166.805 550.258 170.011 537.931 177.175 527.896C184.339 517.86 194.957 510.824 206.99 508.135C219.024 505.447 231.626 507.297 242.379 513.33C253.133 519.363 261.28 529.154 265.258 540.825C269.235 552.496 268.764 565.225 263.933 576.569C259.102 587.914 250.253 597.075 239.082 602.295C232.487 605.381 225.297 606.987 218.016 607.001ZM174.58 541.246C170.923 551.289 170.862 562.288 174.407 572.37C177.951 582.453 184.882 590.994 194.018 596.539C203.155 602.084 213.931 604.29 224.511 602.78C235.091 601.271 244.82 596.139 252.041 588.26C259.262 580.381 263.527 570.242 264.11 559.571C264.693 548.899 261.558 538.356 255.239 529.737C248.92 521.118 239.808 514.957 229.455 512.303C219.102 509.65 208.15 510.668 198.464 515.185C192.957 517.734 188.011 521.349 183.911 525.823C179.812 530.297 176.64 535.539 174.58 541.246Z" fill="#A6A8AB"/>
<path d="M252.315 457.242L232.664 511.233L236.177 512.511L255.828 458.521L252.315 457.242Z" fill="#A6A8AB"/>
<path d="M396.869 606.978C384.377 606.993 372.332 602.324 363.113 593.894C353.894 585.463 348.169 573.883 347.069 561.439C345.969 548.995 349.573 536.59 357.171 526.673C364.768 516.756 375.806 510.047 388.108 507.869C400.409 505.692 413.08 508.205 423.62 514.911C434.16 521.618 441.803 532.032 445.041 544.098C448.28 556.163 446.878 569.005 441.112 580.087C435.347 591.17 425.637 599.689 413.898 603.964C408.44 605.95 402.678 606.97 396.869 606.978ZM396.869 510.83C389.438 510.826 382.116 512.615 375.523 516.043C368.93 519.472 363.261 524.439 358.996 530.525C354.732 536.611 351.997 543.635 351.025 551.002C350.052 558.369 350.87 565.862 353.41 572.846C356.308 580.77 361.322 587.747 367.908 593.021C374.493 598.295 382.398 601.663 390.764 602.759C399.129 603.856 407.635 602.638 415.357 599.239C423.079 595.841 429.722 590.391 434.564 583.481C439.406 576.572 442.262 568.468 442.821 560.049C443.38 551.631 441.621 543.22 437.736 535.731C433.85 528.242 427.986 521.961 420.781 517.571C413.577 513.181 405.306 510.849 396.869 510.83Z" fill="#A6A8AB"/>
<path d="M362.49 457.258L358.977 458.536L378.627 512.527L382.14 511.248L362.49 457.258Z" fill="#A6A8AB"/>
<path d="M533.734 492.044C521.017 492.05 508.773 487.22 499.486 478.532C490.199 469.844 484.564 457.95 483.723 445.26C482.882 432.571 486.899 420.037 494.958 410.2C503.018 400.363 514.517 393.959 527.124 392.288C539.731 390.616 552.502 393.802 562.846 401.199C573.191 408.595 580.335 419.65 582.83 432.12C585.326 444.59 582.985 457.542 576.282 468.35C569.58 479.157 559.019 487.011 546.739 490.319C542.499 491.467 538.126 492.047 533.734 492.044ZM533.893 395.909C522.689 395.895 511.862 399.955 503.43 407.333C494.998 414.71 489.536 424.903 488.064 436.01C486.591 447.116 489.207 458.38 495.424 467.7C501.642 477.021 511.036 483.763 521.857 486.669C532.678 489.575 544.186 488.447 554.237 483.496C564.287 478.545 572.194 470.107 576.484 459.757C580.774 449.407 581.154 437.85 577.553 427.24C573.952 416.631 566.616 407.692 556.912 402.092C549.912 398.053 541.975 395.922 533.893 395.909Z" fill="#A6A8AB"/>
<path d="M444.865 385.856L442.996 389.109L492.982 417.836L494.852 414.584L444.865 385.856Z" fill="#A6A8AB"/>
<path d="M564.85 315.902C551.981 315.901 539.61 310.934 530.314 302.035C521.018 293.136 515.516 280.993 514.954 268.137C514.392 255.281 518.814 242.704 527.298 233.028C535.781 223.352 547.673 217.324 560.492 216.201C573.311 215.077 586.069 218.945 596.107 226.998C606.144 235.05 612.686 246.667 614.369 259.425C616.052 272.183 612.745 285.098 605.139 295.478C597.533 305.857 586.214 312.901 573.542 315.14C570.672 315.646 567.764 315.901 564.85 315.902ZM564.896 219.772C558.494 219.776 552.162 221.112 546.303 223.694C540.443 226.276 535.185 230.048 530.861 234.77C526.537 239.492 523.242 245.062 521.185 251.125C519.128 257.189 518.354 263.614 518.913 269.992C519.471 276.37 521.349 282.563 524.428 288.177C527.506 293.791 531.719 298.704 536.797 302.603C541.875 306.503 547.709 309.304 553.928 310.829C560.146 312.354 566.614 312.57 572.92 311.462C584.298 309.457 594.512 303.261 601.546 294.097C608.581 284.932 611.926 273.464 610.922 261.954C609.918 250.445 604.637 239.729 596.121 231.922C587.605 224.114 576.473 219.78 564.92 219.776L564.896 219.772Z" fill="#A6A8AB"/>
<path d="M517.23 272.434L460.652 282.41L461.302 286.092L517.88 276.116L517.23 272.434Z" fill="#A6A8AB"/>
<path d="M475.367 161.031C462.279 161.028 449.711 155.901 440.356 146.747C431 137.594 425.601 125.141 425.313 112.055C425.025 98.9697 429.872 86.2915 438.816 76.7353C447.76 67.1791 460.09 61.5045 473.166 60.9264C486.242 60.3483 499.024 64.9127 508.777 73.6423C518.529 82.372 524.476 94.5729 525.344 107.633C526.212 120.693 521.932 133.573 513.421 143.517C504.91 153.461 492.844 159.677 479.807 160.835C478.327 160.965 476.847 161.031 475.367 161.031ZM475.489 64.9244C464.635 64.9287 454.129 68.7574 445.818 75.7379C437.506 82.7184 431.919 92.4044 430.04 103.094C428.16 113.785 430.107 124.795 435.539 134.192C440.97 143.59 449.54 150.772 459.741 154.479C469.943 158.186 481.124 158.18 491.322 154.462C501.519 150.744 510.08 143.551 515.502 134.148C520.923 124.745 522.858 113.732 520.966 103.044C519.075 92.3563 513.478 82.6765 505.158 75.7052C496.845 68.732 486.339 64.9144 475.489 64.9244Z" fill="#A6A8AB"/>
<path d="M443.135 146.717L406.203 190.73L409.067 193.134L445.999 149.12L443.135 146.717Z" fill="#A6A8AB"/>
<path d="M233.229 138.348C227.793 138.111 222.549 136.267 218.161 133.049C213.773 129.832 210.438 125.385 208.577 120.272C206.716 115.159 206.413 109.609 207.707 104.324C209 99.0388 211.832 94.2558 215.843 90.5799C219.855 86.9041 224.867 84.5004 230.245 83.673C235.623 82.8456 241.125 83.6315 246.057 85.9314C250.988 88.2313 255.126 91.9419 257.949 96.5939C260.771 101.246 262.15 106.63 261.912 112.066C261.586 119.352 258.383 126.211 253.006 131.138C247.628 136.066 240.516 138.658 233.229 138.348Z" fill="#F2F2F2"/>
<path d="M222.494 136.52C216.117 133.562 211.069 128.338 208.332 121.863C205.595 115.389 205.364 108.128 207.685 101.493C210.006 94.858 214.712 89.3237 220.888 85.9669C227.064 82.6101 234.268 81.671 241.098 83.3323C247.928 84.9936 253.896 89.1364 257.84 94.9547C261.784 100.773 263.423 107.851 262.437 114.81C261.451 121.77 257.911 128.114 252.506 132.608C247.101 137.102 240.218 139.424 233.195 139.123C229.491 138.968 225.855 138.084 222.494 136.52ZM245.695 86.626C242.113 84.9615 238.207 84.1119 234.257 84.1381C230.307 84.1643 226.412 85.0657 222.852 86.7776C219.292 88.4894 216.156 90.9691 213.669 94.0382C211.182 97.1072 209.407 100.689 208.471 104.527C207.534 108.364 207.46 112.361 208.253 116.231C209.047 120.101 210.688 123.746 213.059 126.905C215.43 130.065 218.472 132.659 221.966 134.502C225.46 136.344 229.319 137.39 233.265 137.563C239.443 137.828 245.521 135.943 250.465 132.229C255.409 128.515 258.913 123.201 260.379 117.194C261.845 111.187 261.182 104.857 258.505 99.2836C255.828 93.7097 251.301 89.2365 245.695 86.626Z" fill="#D0D2D3"/>
<path d="M244.721 136.374L242.965 137.013L253.199 165.145L254.955 164.506L244.721 136.374Z" fill="#D0D2D3"/>
<path d="M139.363 226.505C135.047 229.816 129.846 231.773 124.418 232.128C118.99 232.483 113.578 231.22 108.867 228.5C104.157 225.779 100.358 221.723 97.9529 216.844C95.5473 211.965 94.6424 206.482 95.3527 201.089C96.0629 195.696 98.3564 190.634 101.943 186.545C105.53 182.455 110.249 179.52 115.503 178.112C120.757 176.704 126.311 176.886 131.463 178.634C136.614 180.382 141.131 183.619 144.443 187.934C148.876 193.726 150.83 201.039 149.878 208.27C148.926 215.501 145.144 222.059 139.363 226.505Z" fill="#F2F2F2"/>
<path d="M129.968 232.006C123.184 233.84 115.96 233.086 109.702 229.889C103.443 226.691 98.5981 221.281 96.1087 214.709C93.6194 208.137 93.6638 200.874 96.2335 194.333C98.8032 187.792 103.714 182.44 110.011 179.32C116.308 176.2 123.541 175.534 130.302 177.452C137.063 179.369 142.869 183.733 146.59 189.695C150.311 195.657 151.681 202.79 150.434 209.706C149.187 216.622 145.411 222.826 139.842 227.113C136.906 229.379 133.55 231.042 129.968 232.006ZM115.668 178.873C111.857 179.903 108.321 181.765 105.315 184.325C102.309 186.885 99.9073 190.079 98.283 193.677C96.6587 197.276 95.8519 201.19 95.9207 205.138C95.9895 209.085 96.9321 212.969 98.6808 216.509C100.429 220.048 102.941 223.157 106.034 225.611C109.127 228.064 112.726 229.802 116.571 230.699C120.416 231.596 124.412 231.629 128.272 230.798C132.131 229.966 135.759 228.289 138.893 225.888C143.802 222.122 147.251 216.769 148.654 210.743C150.057 204.717 149.326 198.391 146.586 192.844C143.846 187.297 139.266 182.872 133.628 180.324C127.99 177.776 121.642 177.263 115.668 178.873Z" fill="#D0D2D3"/>
<path d="M146.904 217.61L145.969 219.229L171.891 234.201L172.826 232.583L146.904 217.61Z" fill="#D0D2D3"/>
<path d="M124.126 354.375C122.948 359.687 120.221 364.53 116.291 368.292C112.36 372.055 107.402 374.567 102.044 375.511C96.6853 376.456 91.1672 375.79 86.1871 373.599C81.207 371.407 76.9886 367.788 74.0654 363.199C71.1422 358.61 69.6454 353.257 69.7644 347.817C69.8833 342.378 71.6127 337.095 74.7337 332.638C77.8547 328.181 82.2272 324.75 87.2984 322.778C92.3695 320.807 97.9114 320.383 103.223 321.561C110.343 323.147 116.542 327.493 120.461 333.645C124.38 339.797 125.698 347.252 124.126 354.375Z" fill="#F2F2F2"/>
<path d="M120.46 364.627C116.438 370.389 110.417 374.449 103.567 376.017C96.7178 377.585 89.5299 376.548 83.4023 373.109C77.2747 369.67 72.6457 364.074 70.4158 357.411C68.186 350.747 68.5149 343.493 71.3386 337.058C74.1622 330.624 79.2786 325.47 85.6923 322.599C92.1059 319.729 99.3581 319.347 106.038 321.528C112.717 323.709 118.347 328.297 121.83 334.4C125.314 340.502 126.403 347.682 124.885 354.543C124.091 358.164 122.587 361.592 120.46 364.627ZM75.3508 333.117C73.0966 336.356 71.5876 340.054 70.9323 343.945C70.277 347.837 70.4916 351.825 71.5607 355.624C72.6298 359.422 74.5268 362.937 77.1156 365.915C79.7044 368.894 82.9206 371.262 86.5332 372.85C90.1459 374.438 94.0654 375.206 98.0102 375.099C101.955 374.992 105.827 374.013 109.349 372.232C112.87 370.451 115.953 367.912 118.377 364.798C120.801 361.684 122.505 358.071 123.367 354.22C124.708 348.179 123.912 341.859 121.113 336.339C118.315 330.819 113.688 326.441 108.022 323.953C102.355 321.464 96.0009 321.018 90.0428 322.692C84.0847 324.366 78.8921 328.055 75.3508 333.131V333.117Z" fill="#D0D2D3"/>
<path d="M153.705 337.514L124.223 342.708L124.547 344.548L154.029 339.355L153.705 337.514Z" fill="#D0D2D3"/>
<path d="M194.648 462.122C197.163 466.947 198.191 472.41 197.601 477.819C197.011 483.228 194.831 488.341 191.335 492.511C187.839 496.681 183.186 499.721 177.962 501.246C172.739 502.771 167.181 502.712 161.991 501.078C156.8 499.444 152.211 496.307 148.804 492.065C145.396 487.823 143.324 482.665 142.848 477.244C142.372 471.824 143.514 466.384 146.13 461.613C148.746 456.841 152.718 452.953 157.544 450.439C164.014 447.075 171.556 446.416 178.512 448.607C185.468 450.797 191.271 455.657 194.648 462.122Z" fill="#F2F2F2"/>
<path d="M198.431 472.332C199.057 479.332 197.057 486.315 192.82 491.922C188.583 497.529 182.411 501.359 175.506 502.667C168.601 503.975 161.456 502.667 155.462 498.998C149.468 495.329 145.053 489.562 143.076 482.818C141.1 476.074 141.703 468.835 144.768 462.511C147.833 456.187 153.141 451.229 159.66 448.603C166.179 445.976 173.441 445.868 180.035 448.301C186.628 450.733 192.081 455.531 195.332 461.762C197.051 465.047 198.104 468.639 198.431 472.332ZM143.62 477.188C143.972 481.121 145.191 484.927 147.19 488.332C149.189 491.737 151.917 494.657 155.179 496.882C158.441 499.107 162.156 500.582 166.055 501.2C169.955 501.818 173.944 501.564 177.734 500.457C181.524 499.35 185.022 497.416 187.975 494.796C190.929 492.175 193.265 488.933 194.816 485.302C196.367 481.67 197.094 477.741 196.945 473.795C196.796 469.849 195.774 465.985 193.954 462.482C191.096 456.995 186.424 452.668 180.734 450.241C175.044 447.814 168.687 447.435 162.749 449.17C156.811 450.905 151.658 454.646 148.17 459.755C144.682 464.864 143.074 471.025 143.62 477.188Z" fill="#D0D2D3"/>
<path d="M206.465 430.192L187.219 453.121L188.65 454.323L207.897 431.394L206.465 430.192Z" fill="#D0D2D3"/>
<path d="M317.93 499.329C322.957 501.411 327.253 504.937 330.276 509.462C333.298 513.986 334.912 519.305 334.911 524.746C334.911 530.187 333.298 535.505 330.275 540.029C327.252 544.553 322.955 548.079 317.928 550.161C312.902 552.243 307.37 552.788 302.034 551.727C296.697 550.665 291.796 548.045 287.948 544.198C284.101 540.35 281.481 535.448 280.419 530.112C279.358 524.776 279.902 519.244 281.985 514.217C284.783 507.481 290.139 502.13 296.878 499.339C303.617 496.548 311.188 496.544 317.93 499.329Z" fill="#F2F2F2"/>
<path d="M327.391 504.717C330.019 507.354 332.102 510.482 333.523 513.923C336.024 519.968 336.352 526.694 334.45 532.954C332.548 539.214 328.534 544.621 323.092 548.253C317.65 551.885 311.117 553.518 304.607 552.873C298.096 552.228 292.011 549.345 287.387 544.716C282.764 540.087 279.888 533.998 279.252 527.487C278.615 520.975 280.255 514.444 283.894 509.007C287.533 503.57 292.945 499.563 299.207 497.668C305.469 495.774 312.194 496.11 318.237 498.619C321.659 500.031 324.77 502.103 327.391 504.717ZM288.525 543.672C291.324 546.457 294.704 548.587 298.424 549.91C302.144 551.233 306.11 551.715 310.039 551.322C313.967 550.93 317.76 549.671 321.144 547.638C324.528 545.604 327.419 542.846 329.611 539.562C331.802 536.278 333.238 532.549 333.816 528.644C334.394 524.738 334.1 520.753 332.954 516.975C331.809 513.197 329.84 509.719 327.191 506.793C324.541 503.866 321.275 501.563 317.629 500.049C311.913 497.68 305.552 497.369 299.631 499.167C293.711 500.965 288.597 504.761 285.163 509.908C281.729 515.056 280.187 521.235 280.801 527.392C281.414 533.549 284.144 539.303 288.525 543.672Z" fill="#D0D2D3"/>
<path d="M308.334 467.3H306.465V497.236H308.334V467.3Z" fill="#D0D2D3"/>
<path d="M436.283 448.617C441.472 446.981 447.028 446.921 452.251 448.444C457.473 449.966 462.127 453.003 465.624 457.171C469.12 461.338 471.302 466.449 471.894 471.856C472.487 477.264 471.462 482.726 468.95 487.551C466.438 492.376 462.552 496.348 457.782 498.965C453.013 501.582 447.575 502.725 442.155 502.251C436.736 501.777 431.579 499.707 427.337 496.302C423.094 492.897 419.956 488.311 418.32 483.123C416.135 476.165 416.799 468.624 420.166 462.155C423.534 455.686 429.33 450.817 436.283 448.617Z" fill="#F2F2F2"/>
<path d="M446.991 446.635C453.995 447.233 460.526 450.415 465.313 455.562C470.1 460.71 472.801 467.454 472.89 474.482C472.979 481.511 470.451 488.322 465.796 493.589C461.141 498.856 454.693 502.203 447.707 502.979C440.72 503.754 433.695 501.903 427.999 497.785C422.302 493.667 418.341 487.577 416.886 480.7C415.432 473.823 416.588 466.65 420.129 460.579C423.671 454.507 429.345 449.97 436.047 447.85C439.579 446.728 443.299 446.315 446.991 446.635ZM442.257 501.46C446.191 501.795 450.151 501.255 453.851 499.878C457.552 498.501 460.901 496.321 463.659 493.495C466.416 490.669 468.513 487.267 469.799 483.534C471.084 479.8 471.527 475.829 471.094 471.904C470.662 467.979 469.365 464.199 467.298 460.836C465.23 457.472 462.443 454.608 459.136 452.45C455.83 450.292 452.086 448.894 448.174 448.355C444.263 447.817 440.281 448.152 436.514 449.336C430.614 451.197 425.542 455.047 422.163 460.229C418.784 465.412 417.307 471.606 417.985 477.756C418.662 483.906 421.452 489.63 425.878 493.952C430.305 498.275 436.093 500.928 442.257 501.46Z" fill="#D0D2D3"/>
<path d="M408.354 430.181L406.922 431.382L426.16 454.317L427.592 453.116L408.354 430.181Z" fill="#D0D2D3"/>
<path d="M494.33 333.659C497.254 329.071 501.473 325.452 506.454 323.262C511.435 321.071 516.953 320.407 522.312 321.353C527.67 322.299 532.628 324.812 536.557 328.576C540.487 332.339 543.212 337.184 544.389 342.496C545.565 347.808 545.14 353.351 543.167 358.421C541.194 363.492 537.761 367.864 533.303 370.984C528.845 374.103 523.562 375.831 518.122 375.948C512.682 376.065 507.329 374.567 502.741 371.642C496.596 367.714 492.26 361.51 490.683 354.39C489.106 347.269 490.417 339.814 494.33 333.659Z" fill="#F2F2F2"/>
<path d="M501.284 325.247C507.034 321.205 514.083 319.447 521.058 320.315C528.034 321.183 534.437 324.614 539.021 329.942C543.606 335.27 546.045 342.113 545.864 349.14C545.682 356.166 542.893 362.874 538.038 367.958C533.184 373.042 526.612 376.138 519.602 376.644C512.591 377.15 505.642 375.03 500.108 370.696C494.575 366.362 490.851 360.124 489.662 353.196C488.473 346.268 489.904 339.146 493.676 333.215C495.664 330.085 498.249 327.377 501.284 325.247ZM532.893 370.291C536.122 368.019 538.807 365.061 540.756 361.627C542.706 358.194 543.87 354.371 544.165 350.434C544.461 346.497 543.881 342.543 542.466 338.857C541.051 335.171 538.838 331.845 535.984 329.116C533.13 326.388 529.708 324.326 525.962 323.078C522.216 321.83 518.241 321.428 514.321 321.899C510.401 322.371 506.634 323.706 503.292 325.807C499.949 327.908 497.114 330.724 494.989 334.051C491.664 339.27 490.252 345.48 490.995 351.622C491.737 357.765 494.587 363.46 499.059 367.736C503.532 372.012 509.349 374.604 515.519 375.07C521.688 375.536 527.829 373.847 532.893 370.291Z" fill="#D0D2D3"/>
<path d="M461.091 337.493L460.766 339.334L490.246 344.537L490.571 342.697L461.091 337.493Z" fill="#D0D2D3"/>
<path d="M464.919 208.28C464.209 202.886 465.114 197.402 467.521 192.522C469.928 187.643 473.728 183.587 478.441 180.867C483.153 178.148 488.566 176.887 493.996 177.244C499.425 177.601 504.626 179.561 508.941 182.874C513.257 186.188 516.492 190.707 518.239 195.86C519.986 201.013 520.165 206.568 518.754 211.823C517.343 217.078 514.406 221.796 510.313 225.381C506.22 228.966 501.156 231.257 495.761 231.963C488.533 232.9 481.228 230.933 475.447 226.494C469.666 222.055 465.88 215.505 464.919 208.28Z" fill="#F2F2F2"/>
<path d="M464.853 197.387C466.66 190.595 470.929 184.717 476.83 180.898C482.73 177.078 489.841 175.591 496.778 176.725C503.715 177.859 509.982 181.533 514.36 187.032C518.738 192.531 520.913 199.462 520.463 206.477C520.013 213.491 516.969 220.087 511.924 224.982C506.88 229.876 500.194 232.719 493.169 232.957C486.144 233.195 479.282 230.811 473.918 226.269C468.554 221.726 465.071 215.351 464.147 208.383C463.655 204.707 463.895 200.97 464.853 197.387ZM518.019 211.575C519.028 207.76 519.181 203.769 518.465 199.888C517.749 196.007 516.183 192.333 513.878 189.13C511.574 185.926 508.588 183.273 505.136 181.36C501.685 179.447 497.852 178.323 493.914 178.067C489.976 177.812 486.03 178.431 482.36 179.882C478.69 181.332 475.387 183.577 472.688 186.456C469.988 189.335 467.96 192.775 466.749 196.531C465.537 200.287 465.172 204.264 465.68 208.178C466.483 214.316 469.392 219.986 473.91 224.219C478.428 228.452 484.275 230.985 490.453 231.386C496.631 231.787 502.757 230.031 507.785 226.418C512.812 222.805 516.429 217.558 518.019 211.575Z" fill="#D0D2D3"/>
<path d="M467.9 217.603L441.973 232.566L442.907 234.185L468.835 219.222L467.9 217.603Z" fill="#D0D2D3"/>
<path d="M361.798 131.151C357.785 127.476 354.952 122.694 353.657 117.409C352.363 112.124 352.664 106.574 354.524 101.46C356.384 96.3469 359.718 91.8997 364.105 88.6812C368.492 85.4627 373.735 83.6176 379.171 83.379C384.607 83.1404 389.992 84.5192 394.644 87.341C399.297 90.1627 403.008 94.3007 405.308 99.2317C407.609 104.163 408.395 109.665 407.569 115.043C406.742 120.421 404.339 125.433 400.664 129.445C395.732 134.818 388.87 138.016 381.583 138.335C374.297 138.655 367.181 136.071 361.798 131.151Z" fill="#F2F2F2"/>
<path d="M354.75 122.847C351.763 116.486 351.25 109.241 353.309 102.522C355.369 95.8038 359.854 90.0914 365.892 86.4966C371.93 82.9018 379.09 81.6817 385.978 83.0736C392.866 84.4655 398.99 88.3699 403.158 94.0272C407.327 99.6845 409.242 106.69 408.531 113.681C407.82 120.673 404.534 127.149 399.311 131.852C394.089 136.554 387.305 139.146 380.277 139.122C373.25 139.099 366.483 136.462 361.292 131.726C358.547 129.226 356.324 126.209 354.75 122.847ZM404.593 99.5375C402.916 95.9632 400.468 92.8048 397.425 90.2893C394.382 87.7739 390.819 85.9639 386.993 84.9895C383.167 84.0151 379.173 83.9005 375.298 84.6539C371.422 85.4073 367.762 87.0101 364.579 89.3469C361.397 91.6837 358.772 94.6966 356.893 98.1689C355.014 101.641 353.928 105.487 353.712 109.429C353.497 113.371 354.157 117.312 355.646 120.969C357.135 124.625 359.416 127.906 362.325 130.576C366.887 134.756 372.757 137.224 378.936 137.559C385.114 137.895 391.217 136.076 396.204 132.414C401.192 128.751 404.754 123.472 406.284 117.477C407.813 111.482 407.216 105.141 404.593 99.5375Z" fill="#D0D2D3"/>
<path d="M370.079 136.38L359.836 164.509L361.592 165.148L371.836 137.02L370.079 136.38Z" fill="#D0D2D3"/>
<path d="M337.863 278.676C336.998 278.683 336.135 278.751 335.279 278.877C333.728 275.023 331.154 271.665 327.836 269.166C324.517 266.668 320.579 265.123 316.446 264.698C312.313 264.273 308.143 264.985 304.386 266.757C300.628 268.528 297.425 271.292 295.123 274.75C294.43 274.642 293.731 274.586 293.03 274.582C289.457 274.581 286.013 275.916 283.373 278.323C280.733 280.731 279.089 284.039 278.763 287.597C275.212 288.176 272.009 290.07 269.791 292.903C267.573 295.736 266.503 299.3 266.793 302.886C267.082 306.472 268.711 309.818 271.355 312.258C273.999 314.698 277.464 316.054 281.062 316.056L337.863 316.116C342.828 316.116 347.59 314.144 351.1 310.633C354.611 307.123 356.583 302.361 356.583 297.396C356.583 292.431 354.611 287.67 351.1 284.159C347.59 280.648 342.828 278.676 337.863 278.676Z" fill="#F05F9C" style="mix-blend-mode:multiply"/>
<path d="M289.733 337.958L287.289 339.23V350.688H264.549V334.594H287.279V334.683L289.723 333.412V332.257C289.723 332.171 289.706 332.086 289.673 332.006C289.64 331.926 289.591 331.854 289.53 331.793C289.469 331.732 289.396 331.684 289.316 331.652C289.236 331.619 289.151 331.602 289.064 331.603H262.76C262.586 331.603 262.42 331.672 262.297 331.795C262.174 331.917 262.105 332.084 262.105 332.257V353.408H289.733V337.958Z" fill="#F05F9C" style="mix-blend-mode:multiply"/>
<path d="M293.623 354.426H258.238V356.146C258.238 356.146 258.238 356.417 259.935 356.581L262.626 357.202H289.38L292.071 356.581C293.768 356.417 293.623 356.146 293.623 356.146V354.426Z" fill="#F05F9C" style="mix-blend-mode:multiply"/>
<path d="M319.299 331.547H313.691V334.234H319.299C319.918 334.234 320.513 334.48 320.951 334.918C321.389 335.356 321.635 335.951 321.635 336.57V348.16C321.635 348.779 321.389 349.374 320.951 349.812C320.513 350.25 319.918 350.496 319.299 350.496H303.877C303.258 350.496 302.663 350.25 302.225 349.812C301.787 349.374 301.541 348.779 301.541 348.16V336.57C301.541 335.951 301.787 335.356 302.225 334.918C302.663 334.48 303.258 334.234 303.877 334.234H309.663V331.547H303.882C302.545 331.548 301.263 332.08 300.318 333.025C299.373 333.97 298.841 335.252 298.84 336.589V348.178C298.841 349.515 299.373 350.796 300.318 351.741C301.264 352.685 302.546 353.216 303.882 353.216H310.247V355.473H307.209C307.033 355.473 306.858 355.508 306.694 355.575C306.531 355.643 306.383 355.742 306.258 355.867C306.133 355.992 306.034 356.141 305.966 356.304C305.898 356.467 305.863 356.642 305.863 356.819C305.863 356.996 305.898 357.171 305.966 357.334C306.034 357.497 306.133 357.646 306.258 357.771C306.383 357.896 306.531 357.995 306.694 358.062C306.858 358.13 307.033 358.165 307.209 358.165H316.172C316.349 358.165 316.524 358.13 316.687 358.062C316.851 357.995 316.999 357.896 317.124 357.771C317.249 357.646 317.348 357.497 317.416 357.334C317.483 357.171 317.518 356.996 317.518 356.819C317.518 356.642 317.483 356.467 317.416 356.304C317.348 356.141 317.249 355.992 317.124 355.867C316.999 355.742 316.851 355.643 316.687 355.575C316.524 355.508 316.349 355.473 316.172 355.473H312.934V353.216H319.299C320.635 353.216 321.917 352.685 322.862 351.741C323.808 350.796 324.34 349.515 324.341 348.178V336.589C324.34 335.252 323.808 333.97 322.863 333.025C321.917 332.08 320.635 331.548 319.299 331.547Z" fill="#F05F9C" style="mix-blend-mode:multiply"/>
<path d="M352.816 331.593H341.862C341.005 331.593 340.184 331.933 339.579 332.539C338.973 333.145 338.633 333.966 338.633 334.822V335.864L341.633 337.336V336.042H353.049V351.617H341.633V341.827L338.633 340.36V353.912C338.633 354.768 338.973 355.59 339.579 356.195C340.184 356.801 341.005 357.141 341.862 357.141H352.816C353.672 357.141 354.493 356.801 355.099 356.195C355.704 355.59 356.045 354.768 356.045 353.912V334.822C356.045 333.966 355.704 333.145 355.099 332.539C354.493 331.933 353.672 331.593 352.816 331.593ZM350.044 334.449H344.633C344.509 334.449 344.39 334.399 344.303 334.312C344.215 334.224 344.166 334.105 344.166 333.981C344.166 333.857 344.215 333.738 344.303 333.651C344.39 333.563 344.509 333.514 344.633 333.514H350.049C350.173 333.514 350.292 333.563 350.38 333.651C350.467 333.738 350.516 333.857 350.516 333.981C350.516 334.105 350.467 334.224 350.38 334.312C350.292 334.399 350.173 334.449 350.049 334.449H350.044ZM344.628 354.87H342.596C342.472 354.87 342.353 354.821 342.265 354.733C342.178 354.645 342.128 354.526 342.128 354.403C342.128 354.279 342.178 354.16 342.265 354.072C342.353 353.984 342.472 353.935 342.596 353.935H344.628C344.752 353.935 344.871 353.984 344.959 354.072C345.046 354.16 345.096 354.279 345.096 354.403C345.096 354.526 345.046 354.645 344.959 354.733C344.871 354.821 344.752 354.87 344.628 354.87ZM347.334 355.65C347.086 355.649 346.843 355.575 346.637 355.436C346.431 355.297 346.27 355.101 346.176 354.871C346.082 354.641 346.057 354.389 346.106 354.145C346.155 353.902 346.276 353.678 346.452 353.503C346.628 353.327 346.851 353.208 347.095 353.16C347.339 353.112 347.591 353.137 347.821 353.232C348.05 353.328 348.246 353.489 348.384 353.695C348.522 353.902 348.596 354.145 348.596 354.393C348.596 354.727 348.463 355.046 348.228 355.282C347.992 355.518 347.672 355.65 347.339 355.65H347.334ZM352.077 354.87H350.044C349.921 354.87 349.802 354.821 349.714 354.733C349.626 354.645 349.577 354.526 349.577 354.403C349.577 354.279 349.626 354.16 349.714 354.072C349.802 353.984 349.921 353.935 350.044 353.935H352.077C352.201 353.935 352.32 353.984 352.408 354.072C352.495 354.16 352.545 354.279 352.545 354.403C352.545 354.526 352.495 354.645 352.408 354.733C352.32 354.821 352.201 354.87 352.077 354.87Z" fill="#F05F9C" style="mix-blend-mode:multiply"/>
<path d="M290.664 333.893L279.192 339.856C278.592 339.084 277.738 338.551 276.782 338.35C275.826 338.15 274.83 338.295 273.971 338.76C273.112 339.225 272.445 339.98 272.09 340.89C271.736 341.8 271.715 342.807 272.033 343.73C272.35 344.654 272.985 345.435 273.825 345.935C274.665 346.435 275.654 346.62 276.618 346.458C277.581 346.297 278.456 345.799 279.086 345.052C279.717 344.306 280.062 343.361 280.061 342.384C280.061 342.258 280.061 342.131 280.061 342.01L292.987 335.29V308.523H290.664V333.893ZM275.93 344.211C275.569 344.211 275.216 344.104 274.915 343.903C274.615 343.702 274.38 343.417 274.242 343.083C274.104 342.749 274.068 342.382 274.138 342.027C274.209 341.673 274.383 341.347 274.638 341.092C274.894 340.836 275.219 340.662 275.574 340.592C275.928 340.521 276.296 340.557 276.629 340.696C276.963 340.834 277.249 341.068 277.449 341.369C277.65 341.669 277.757 342.022 277.757 342.384C277.756 342.867 277.564 343.33 277.223 343.673C276.881 344.015 276.418 344.208 275.935 344.211H275.93ZM347.335 338.253C346.761 338.253 346.194 338.374 345.669 338.606C345.144 338.839 344.674 339.178 344.288 339.603L332.605 333.874V308.523H330.301V335.309L343.274 341.673C343.233 341.908 343.211 342.146 343.209 342.384C343.208 343.202 343.449 344.002 343.904 344.683C344.358 345.364 345.003 345.895 345.759 346.208C346.515 346.522 347.347 346.604 348.15 346.445C348.953 346.285 349.69 345.891 350.269 345.313C350.847 344.734 351.241 343.997 351.401 343.194C351.56 342.391 351.478 341.559 351.164 340.804C350.851 340.048 350.32 339.402 349.639 338.948C348.958 338.494 348.158 338.252 347.34 338.253H347.335ZM347.335 344.211C346.973 344.211 346.62 344.104 346.32 343.903C346.019 343.702 345.785 343.417 345.647 343.083C345.508 342.749 345.472 342.382 345.543 342.027C345.613 341.673 345.787 341.347 346.043 341.092C346.298 340.836 346.624 340.662 346.978 340.592C347.333 340.521 347.7 340.557 348.034 340.696C348.368 340.834 348.653 341.068 348.854 341.369C349.055 341.669 349.162 342.022 349.162 342.384C349.162 342.867 348.97 343.332 348.629 343.674C348.287 344.017 347.823 344.21 347.34 344.211H347.335ZM312.838 338.416L312.787 302.106H310.478L310.53 338.412C309.575 338.689 308.752 339.303 308.213 340.138C307.674 340.974 307.454 341.976 307.594 342.961C307.735 343.946 308.226 344.847 308.977 345.498C309.728 346.15 310.689 346.509 311.684 346.509C312.679 346.509 313.64 346.15 314.391 345.498C315.142 344.847 315.633 343.946 315.774 342.961C315.914 341.976 315.694 340.974 315.155 340.138C314.616 339.303 313.793 338.689 312.838 338.412V338.416ZM311.693 344.211C311.332 344.211 310.979 344.104 310.678 343.903C310.378 343.702 310.144 343.417 310.005 343.083C309.867 342.749 309.831 342.382 309.901 342.027C309.972 341.673 310.146 341.347 310.401 341.092C310.657 340.836 310.982 340.662 311.337 340.592C311.691 340.521 312.059 340.557 312.393 340.696C312.726 340.834 313.012 341.068 313.213 341.369C313.413 341.669 313.52 342.022 313.52 342.384C313.519 342.868 313.326 343.332 312.984 343.674C312.642 344.017 312.178 344.21 311.693 344.211Z" fill="#F05F9C" style="mix-blend-mode:multiply"/>
<path d="M322.303 36.0446C321.811 36.0478 321.321 36.0868 320.835 36.1615C319.953 33.9717 318.489 32.0645 316.602 30.6455C314.716 29.2264 312.477 28.3494 310.129 28.1089C307.78 27.8685 305.41 28.2738 303.275 29.2811C301.14 30.2884 299.32 31.8595 298.012 33.8249C297.618 33.7652 297.219 33.734 296.82 33.7315C294.791 33.7321 292.835 34.4904 291.335 35.8579C289.835 37.2253 288.9 39.1034 288.713 41.1243C286.696 41.4553 284.878 42.5327 283.619 44.1425C282.36 45.7523 281.752 47.7767 281.917 49.8137C282.082 51.8507 283.007 53.7512 284.508 55.1377C286.01 56.5242 287.978 57.2953 290.021 57.2978H294.937C294.864 55.522 295.151 53.7499 295.781 52.0879C296.411 50.4259 297.37 48.9085 298.602 47.627C299.833 46.3454 301.311 45.3261 302.946 44.6305C304.582 43.9349 306.341 43.5773 308.118 43.5791C309.896 43.581 311.654 43.9424 313.288 44.6415C314.922 45.3406 316.398 46.363 317.626 47.6472C318.855 48.9314 319.811 50.4509 320.437 52.1142C321.063 53.7775 321.347 55.5502 321.27 57.3258H322.303C325.086 57.2675 327.735 56.1211 329.682 54.1324C331.63 52.1436 332.72 49.471 332.72 46.6876C332.72 43.9041 331.63 41.2315 329.682 39.2428C327.735 37.2541 325.086 36.1076 322.303 36.0493V36.0446Z" fill="#F05F9C" style="mix-blend-mode:multiply"/>
<path d="M316.267 64.9055C314.413 66.7733 311.972 67.9464 309.355 68.228V71.8403L304.407 66.7467L309.355 61.7838V65.4616C311.248 65.2008 313.004 64.3257 314.351 62.9708C315.396 61.9289 316.163 60.6414 316.581 59.2263C317 57.8111 317.057 56.3136 316.746 54.8708C316.436 53.4281 315.768 52.0864 314.805 50.9686C313.841 49.8508 312.613 48.9927 311.231 48.4729C309.85 47.953 308.361 47.7882 306.899 47.9933C305.438 48.1985 304.051 48.7672 302.867 49.6472C301.682 50.5272 300.737 51.6905 300.119 53.0304C299.501 54.3703 299.228 55.844 299.327 57.3164H296.589C296.493 55.3954 296.878 53.4808 297.71 51.7465C298.541 50.0122 299.793 48.5131 301.351 47.3854C302.909 46.2577 304.724 45.537 306.632 45.2889C308.539 45.0407 310.478 45.273 312.273 45.9645C314.068 46.656 315.661 47.7849 316.909 49.2487C318.157 50.7124 319.019 52.4647 319.418 54.3464C319.816 56.228 319.739 58.1794 319.192 60.0234C318.645 61.8674 317.646 63.5455 316.286 64.9055H316.267ZM306.505 57.6108L305.865 57.98C305.708 58.0709 305.593 58.2202 305.546 58.3953C305.499 58.5704 305.523 58.757 305.612 58.9146L305.883 59.3819C305.974 59.5376 306.121 59.6517 306.295 59.6997C306.353 59.7143 306.412 59.7222 306.472 59.723C306.592 59.7231 306.71 59.6908 306.813 59.6296L307.44 59.2697C307.522 59.294 307.606 59.3112 307.692 59.3211L308.131 60.0735C308.175 60.1524 308.235 60.2217 308.306 60.2771C308.378 60.3325 308.46 60.3729 308.547 60.3959C308.604 60.4028 308.663 60.4028 308.72 60.3959C308.841 60.3971 308.96 60.3665 309.066 60.3072L309.533 60.0408C309.69 59.9499 309.805 59.8006 309.852 59.6255C309.899 59.4504 309.875 59.2637 309.785 59.1062L309.262 58.2043L313.113 55.9799C313.191 55.9357 313.26 55.8761 313.314 55.8046C313.369 55.7331 313.408 55.6512 313.43 55.564C313.477 55.3891 313.453 55.2031 313.365 55.0453L313.094 54.578C313.049 54.4997 312.99 54.4311 312.918 54.3762C312.847 54.3213 312.766 54.2811 312.679 54.2581C312.592 54.235 312.501 54.2295 312.412 54.2419C312.323 54.2543 312.237 54.2844 312.159 54.3303L308.309 56.5547L305.467 51.6293C305.375 51.4733 305.226 51.3593 305.052 51.3115C304.993 51.3043 304.933 51.3043 304.874 51.3115C304.754 51.3128 304.637 51.3449 304.533 51.4049L304.066 51.6713C303.988 51.7163 303.92 51.7762 303.865 51.8475C303.811 51.9189 303.771 52.0003 303.748 52.0872C303.725 52.174 303.719 52.2645 303.731 52.3536C303.743 52.4426 303.773 52.5283 303.818 52.6059L306.584 57.3958C306.551 57.4649 306.525 57.5368 306.505 57.6108Z" fill="#F05F9C" style="mix-blend-mode:multiply"/>
<path d="M475.718 124.511C475.479 124.51 475.24 124.538 475.008 124.595V124.95C474.369 125.12 473.813 125.517 473.445 126.066C473.077 126.616 472.922 127.28 473.007 127.936C473.093 128.592 473.415 129.194 473.912 129.63C474.409 130.067 475.047 130.307 475.709 130.307C476.37 130.307 477.009 130.067 477.506 129.63C478.003 129.194 478.324 128.592 478.41 127.936C478.496 127.28 478.34 126.616 477.972 126.066C477.604 125.517 477.049 125.12 476.41 124.95V124.595C476.183 124.54 475.951 124.512 475.718 124.511ZM477.022 127.581C477.022 127.84 476.945 128.093 476.801 128.308C476.657 128.524 476.452 128.691 476.213 128.79C475.974 128.889 475.71 128.915 475.456 128.864C475.203 128.813 474.969 128.688 474.787 128.505C474.604 128.321 474.48 128.088 474.43 127.833C474.38 127.579 474.406 127.316 474.506 127.077C474.606 126.838 474.774 126.634 474.99 126.491C475.206 126.348 475.459 126.272 475.718 126.273C476.061 126.276 476.39 126.415 476.631 126.659C476.872 126.903 477.008 127.233 477.008 127.576L477.022 127.581Z" fill="#F05F9C" style="mix-blend-mode:multiply"/>
<path d="M481.219 125.305L480.836 124.371L481.799 123.651C481.241 122.792 480.511 122.058 479.654 121.497L478.925 122.455L477.99 122.071L477.055 121.684L477.224 120.492C476.722 120.381 476.209 120.325 475.695 120.324C475.188 120.324 474.682 120.377 474.186 120.483L474.35 121.679L473.415 122.062L472.48 122.445L471.761 121.511C470.9 122.067 470.166 122.798 469.606 123.656L470.541 124.38L470.153 125.315L469.765 126.249L468.574 126.081C468.467 126.585 468.412 127.099 468.41 127.614C468.411 128.121 468.464 128.627 468.569 129.123L469.765 128.955L470.149 129.89L470.532 130.824L469.574 131.548C470.129 132.409 470.86 133.141 471.719 133.698L472.443 132.763L473.378 133.151L474.312 133.539L474.144 134.731C474.648 134.84 475.161 134.895 475.677 134.894C476.183 134.894 476.687 134.841 477.182 134.735L477.018 133.544L477.953 133.161L478.887 132.773L479.607 133.735C480.467 133.179 481.201 132.449 481.761 131.591L480.827 130.866L481.214 129.932L481.602 128.997L482.794 129.165C482.903 128.663 482.958 128.151 482.957 127.637C482.957 127.13 482.904 126.624 482.799 126.128L481.607 126.291L481.219 125.305ZM475.719 132.072C474.83 132.073 473.962 131.81 473.223 131.317C472.483 130.824 471.907 130.123 471.567 129.303C471.226 128.482 471.136 127.579 471.309 126.708C471.482 125.836 471.909 125.036 472.537 124.407C473.165 123.779 473.965 123.35 474.836 123.177C475.708 123.003 476.611 123.092 477.432 123.432C478.253 123.771 478.954 124.347 479.448 125.086C479.942 125.824 480.205 126.693 480.205 127.581C480.205 128.771 479.733 129.913 478.891 130.755C478.05 131.597 476.909 132.071 475.719 132.072Z" fill="#F05F9C" style="mix-blend-mode:multiply"/>
<path d="M488.619 97.2433C488.192 97.2474 487.766 97.2801 487.343 97.3414C486.579 95.4419 485.311 93.7872 483.675 92.5558C482.039 91.3244 480.098 90.563 478.061 90.3538C476.025 90.1446 473.97 90.4955 472.118 91.3687C470.266 92.2419 468.687 93.6042 467.553 95.3086C467.211 95.2547 466.866 95.2266 466.52 95.2245C464.759 95.2241 463.061 95.882 461.76 97.0691C460.459 98.2562 459.648 99.8867 459.487 101.641C457.75 101.94 456.187 102.879 455.106 104.272C454.026 105.665 453.506 107.412 453.648 109.169C453.79 110.927 454.585 112.567 455.876 113.768C457.166 114.969 458.86 115.644 460.623 115.66H468.917V105.968H482.469V115.688H488.605C491.016 115.634 493.31 114.638 494.997 112.913C496.683 111.189 497.627 108.873 497.627 106.461C497.627 104.049 496.683 101.733 494.997 100.009C493.31 98.2841 491.016 97.2882 488.605 97.2339L488.619 97.2433Z" fill="#F05F9C" style="mix-blend-mode:multiply"/>
<path d="M486.768 122.02C486.252 122.019 485.748 122.166 485.314 122.445L480.922 118.057V107.529H479.52V118.646L484.37 123.492C484.167 123.878 484.061 124.308 484.062 124.744C484.061 125.285 484.221 125.813 484.52 126.262C484.82 126.712 485.246 127.062 485.745 127.27C486.243 127.477 486.793 127.531 487.322 127.426C487.852 127.321 488.339 127.061 488.721 126.679C489.103 126.297 489.363 125.81 489.468 125.28C489.573 124.751 489.519 124.201 489.312 123.703C489.104 123.204 488.754 122.778 488.304 122.478C487.855 122.178 487.327 122.019 486.786 122.02H486.768ZM486.768 126.053C486.509 126.053 486.256 125.976 486.041 125.832C485.826 125.689 485.658 125.484 485.559 125.245C485.46 125.006 485.434 124.743 485.484 124.489C485.535 124.235 485.66 124.002 485.843 123.819C486.026 123.636 486.259 123.512 486.512 123.461C486.766 123.411 487.029 123.437 487.269 123.536C487.508 123.635 487.712 123.802 487.856 124.017C487.999 124.233 488.076 124.486 488.076 124.744C488.076 125.091 487.938 125.424 487.693 125.67C487.448 125.915 487.115 126.053 486.768 126.053ZM470.487 118.057L466.099 122.436C465.687 122.169 465.21 122.018 464.719 122C464.228 121.982 463.742 122.096 463.311 122.332C462.88 122.567 462.52 122.915 462.271 123.338C462.021 123.761 461.891 124.244 461.893 124.735C461.878 125.103 461.937 125.47 462.067 125.814C462.197 126.158 462.396 126.472 462.65 126.737C462.905 127.003 463.211 127.214 463.549 127.358C463.888 127.503 464.252 127.577 464.62 127.577C464.988 127.577 465.352 127.503 465.69 127.358C466.029 127.214 466.334 127.003 466.589 126.737C466.844 126.472 467.042 126.158 467.172 125.814C467.302 125.47 467.362 125.103 467.346 124.735C467.347 124.299 467.241 123.869 467.038 123.483L471.889 118.637V107.529H470.487V118.057ZM464.641 126.053C464.382 126.054 464.128 125.978 463.913 125.835C463.697 125.691 463.528 125.487 463.429 125.248C463.329 125.009 463.302 124.746 463.352 124.492C463.402 124.238 463.526 124.004 463.709 123.821C463.892 123.637 464.125 123.512 464.379 123.461C464.633 123.411 464.896 123.436 465.136 123.535C465.375 123.634 465.58 123.802 465.724 124.017C465.868 124.232 465.945 124.485 465.945 124.744C465.943 125.09 465.806 125.422 465.562 125.667C465.317 125.912 464.987 126.05 464.641 126.053ZM474.996 118.936V107.529H476.398V118.936C476.16 118.936 475.931 118.903 475.688 118.903C475.445 118.903 475.253 118.917 474.996 118.936Z" fill="#F05F9C" style="mix-blend-mode:multiply"/>
<path d="M580.943 277.017C579.574 276.045 577.475 276.549 576.167 274.83C576.167 274.83 575.7 274.283 576.774 272.96C577.849 271.638 577.961 269.498 577.709 267.853C577.531 267.075 577.094 266.381 576.471 265.883C575.847 265.386 575.072 265.115 574.274 265.115C573.477 265.115 572.702 265.386 572.078 265.883C571.454 266.381 571.018 267.075 570.84 267.853C570.569 269.498 570.657 271.624 571.774 272.96C572.161 273.356 572.412 273.865 572.489 274.414C573.02 274.58 573.523 274.826 573.98 275.143C576.046 276.61 575.933 279.433 575.849 280.227H582.018C582.018 280.227 582.307 277.989 580.943 277.017Z" fill="#F05F9C" style="mix-blend-mode:multiply"/>
<path d="M555.767 275.124C556.237 274.8 556.754 274.55 557.299 274.381C557.385 273.84 557.635 273.337 558.014 272.942C559.108 271.605 559.201 269.479 558.949 267.834C558.771 267.056 558.334 266.362 557.71 265.865C557.086 265.367 556.312 265.097 555.514 265.097C554.716 265.097 553.942 265.367 553.318 265.865C552.694 266.362 552.258 267.056 552.08 267.834C551.804 269.479 551.897 271.605 553.014 272.942C554.131 274.278 553.622 274.811 553.622 274.811C552.313 276.54 550.22 276.026 548.851 276.998C547.481 277.97 547.818 280.19 547.818 280.19H553.94C553.818 279.414 553.706 276.592 555.767 275.124Z" fill="#F05F9C" style="mix-blend-mode:multiply"/>
<path d="M578.756 254.357C578.298 254.362 577.841 254.398 577.387 254.464C576.566 252.423 575.203 250.644 573.445 249.32C571.687 247.996 569.601 247.177 567.411 246.952C565.222 246.727 563.013 247.104 561.022 248.043C559.031 248.981 557.335 250.445 556.115 252.277C555.747 252.222 555.376 252.192 555.003 252.189C553.111 252.189 551.287 252.896 549.889 254.171C548.492 255.446 547.62 257.197 547.447 259.081C545.564 259.387 543.866 260.391 542.689 261.892C541.513 263.394 540.945 265.283 541.099 267.184C541.253 269.085 542.117 270.859 543.519 272.152C544.921 273.445 546.759 274.162 548.666 274.161H551.98C551.928 274.091 551.868 274.007 551.788 273.909C550.073 271.811 550.353 268.769 550.554 267.586C550.778 266.445 551.394 265.418 552.297 264.684C553.199 263.951 554.331 263.557 555.494 263.572C556.817 263.573 558.089 264.083 559.045 264.997C559.045 264.876 559.083 264.759 559.097 264.656C559.377 263.338 560.102 262.155 561.149 261.307C562.197 260.459 563.504 259.996 564.852 259.996C566.2 259.996 567.507 260.459 568.554 261.307C569.602 262.155 570.326 263.338 570.607 264.656C570.607 264.769 570.644 264.899 570.663 265.035C571.622 264.098 572.91 263.573 574.252 263.572C575.415 263.558 576.547 263.952 577.45 264.685C578.353 265.418 578.971 266.445 579.196 267.586C579.397 268.787 579.663 271.792 577.957 273.909C577.869 274.017 577.803 274.11 577.747 274.189H578.756C581.386 274.189 583.909 273.145 585.768 271.285C587.628 269.425 588.673 266.903 588.673 264.273C588.673 261.643 587.628 259.121 585.768 257.261C583.909 255.402 581.386 254.357 578.756 254.357Z" fill="#F05F9C" style="mix-blend-mode:multiply"/>
<path d="M573.125 276.264C572.641 275.944 572.102 275.715 571.536 275.587C570.059 275.199 568.386 275.119 567.223 273.554C567.223 273.554 566.62 272.881 567.971 271.217C569.321 269.554 569.438 266.932 569.101 264.899C568.765 262.867 566.844 261.516 564.854 261.516C562.863 261.516 560.942 262.871 560.606 264.899C560.269 266.928 560.377 269.573 561.732 271.217C563.087 272.862 562.484 273.554 562.484 273.554C561.325 275.087 559.68 275.199 558.199 275.577C557.622 275.704 557.074 275.937 556.582 276.264C554.891 277.465 555.302 280.208 555.302 280.208H574.401C574.401 280.208 574.817 277.465 573.125 276.264Z" fill="#F05F9C" style="mix-blend-mode:multiply"/>
<path d="M548.548 431.686C548.061 431.69 547.576 431.728 547.094 431.798C546.225 429.631 544.779 427.742 542.915 426.336C541.05 424.929 538.837 424.059 536.514 423.818C534.191 423.578 531.846 423.976 529.733 424.971C527.62 425.966 525.818 427.518 524.523 429.462C524.133 429.402 523.74 429.371 523.346 429.368C521.337 429.368 519.401 430.119 517.917 431.473C516.434 432.826 515.51 434.686 515.327 436.686C513.334 437.015 511.537 438.081 510.294 439.672C509.05 441.264 508.45 443.264 508.612 445.278C508.774 447.291 509.687 449.17 511.17 450.541C512.653 451.913 514.597 452.677 516.616 452.682H521.715V439.971H531.925L533.472 442.271H545.921V452.729H548.548C551.259 452.615 553.822 451.457 555.701 449.497C557.579 447.538 558.628 444.929 558.628 442.215C558.628 439.5 557.579 436.891 555.701 434.932C553.822 432.972 551.259 431.814 548.548 431.7V431.686Z" fill="#F05F9C" style="mix-blend-mode:multiply"/>
<path d="M544.303 443.892H532.621L531.069 441.593H523.34V447.327V460.879C523.341 461.298 523.508 461.699 523.804 461.995C524.1 462.291 524.501 462.457 524.919 462.459H542.733C543.151 462.457 543.552 462.29 543.847 461.994C544.142 461.698 544.308 461.297 544.308 460.879V447.327L544.303 443.892ZM524.433 442.958L524.938 442.458L525.728 443.248L526.518 442.458L527.018 442.958L526.228 443.748L527.018 444.542L526.518 445.042L525.728 444.252L524.938 445.042L524.433 444.542L525.228 443.748L524.433 442.958ZM543.093 447.336V460.888C543.092 460.985 543.053 461.077 542.985 461.145C542.917 461.213 542.825 461.252 542.728 461.253H524.915C524.818 461.253 524.725 461.214 524.657 461.146C524.589 461.078 524.55 460.985 524.55 460.888V447.336H543.093Z" fill="#F05F9C" style="mix-blend-mode:multiply"/>
<path d="M530.174 449.621H526.234V453.561H530.174V449.621Z" fill="#F05F9C" style="mix-blend-mode:multiply"/>
<path d="M535.838 449.621H531.898V453.561H535.838V449.621Z" fill="#F05F9C" style="mix-blend-mode:multiply"/>
<path d="M530.174 455.248H526.234V459.187H530.174V455.248Z" fill="#F05F9C" style="mix-blend-mode:multiply"/>
<path d="M537.557 453.561H541.496V449.621H537.557V453.561Z" fill="#F05F9C" style="mix-blend-mode:multiply"/>
<path d="M537.557 459.187H541.496V455.248H537.557V459.187Z" fill="#F05F9C" style="mix-blend-mode:multiply"/>
<path d="M535.838 455.248H531.898V459.187H535.838V455.248Z" fill="#F05F9C" style="mix-blend-mode:multiply"/>
<path d="M154.955 98.2902C154.431 98.2951 153.908 98.3357 153.389 98.4117C152.452 96.078 150.895 94.0447 148.887 92.5314C146.878 91.0181 144.494 90.0825 141.993 89.8256C139.491 89.5687 136.967 90.0003 134.693 91.0738C132.419 92.1472 130.481 93.8217 129.089 95.9163C127.924 95.7345 126.733 95.7944 125.592 96.0925C124.45 96.3905 123.382 96.9203 122.454 97.6488C121.526 98.3773 120.758 99.289 120.198 100.327C119.637 101.365 119.296 102.507 119.196 103.683C117.046 104.032 115.107 105.179 113.764 106.894C112.421 108.609 111.774 110.767 111.95 112.938C112.127 115.109 113.115 117.134 114.718 118.609C116.321 120.084 118.42 120.902 120.598 120.899H122.935L123.131 108.604C123.949 107.342 125.692 106.342 128.346 105.618C135.411 103.984 142.755 103.984 149.819 105.618C152.478 106.342 154.221 107.342 155.039 108.604L155.23 120.913C161.184 120.576 166.254 115.646 166.254 109.613C166.255 106.614 165.066 103.737 162.947 101.614C160.829 99.4905 157.954 98.2952 154.955 98.2902Z" fill="#F05F9C" style="mix-blend-mode:multiply"/>
<path d="M153.505 110.417C153.505 112.59 147.056 114.352 139.102 114.352C131.149 114.352 124.695 112.59 124.695 110.417C124.695 108.244 131.144 106.487 139.102 106.487C147.061 106.487 153.505 108.244 153.505 110.417ZM153.505 112.566V116.497C153.505 118.67 147.056 120.431 139.102 120.431C131.149 120.431 124.695 118.67 124.695 116.497V112.566C125.869 113.408 127.199 114.005 128.607 114.324C135.511 115.919 142.689 115.919 149.593 114.324C151.002 114.007 152.332 113.409 153.505 112.566ZM136.733 118.132C136.733 117.966 136.684 117.803 136.591 117.665C136.499 117.526 136.368 117.419 136.214 117.355C136.06 117.291 135.891 117.275 135.728 117.307C135.565 117.34 135.415 117.42 135.297 117.537C135.18 117.655 135.099 117.805 135.067 117.968C135.035 118.131 135.051 118.3 135.115 118.454C135.179 118.608 135.286 118.739 135.425 118.832C135.563 118.924 135.726 118.973 135.892 118.973C136.115 118.973 136.329 118.885 136.487 118.727C136.645 118.569 136.733 118.355 136.733 118.132ZM139.944 118.132C139.944 117.966 139.894 117.803 139.802 117.665C139.709 117.526 139.578 117.419 139.424 117.355C139.271 117.291 139.101 117.275 138.938 117.307C138.775 117.34 138.625 117.42 138.508 117.537C138.39 117.655 138.31 117.805 138.277 117.968C138.245 118.131 138.262 118.3 138.325 118.454C138.389 118.608 138.497 118.739 138.635 118.832C138.773 118.924 138.936 118.973 139.102 118.973C139.325 118.972 139.538 118.883 139.696 118.726C139.853 118.568 139.942 118.355 139.944 118.132ZM143.149 118.132C143.149 117.966 143.1 117.803 143.008 117.665C142.915 117.526 142.784 117.419 142.63 117.355C142.476 117.291 142.307 117.275 142.144 117.307C141.981 117.34 141.831 117.42 141.713 117.537C141.596 117.655 141.516 117.805 141.483 117.968C141.451 118.131 141.467 118.3 141.531 118.454C141.595 118.608 141.702 118.739 141.841 118.832C141.979 118.924 142.142 118.973 142.308 118.973C142.531 118.973 142.745 118.885 142.903 118.727C143.061 118.569 143.149 118.355 143.149 118.132ZM153.505 118.599V122.529C153.505 124.702 147.056 126.464 139.102 126.464C131.149 126.464 124.695 124.702 124.695 122.529V118.599C125.868 119.442 127.198 120.041 128.607 120.361C135.512 121.95 142.688 121.95 149.593 120.361C151.004 120.036 152.335 119.428 153.505 118.576V118.599ZM136.733 124.053C136.733 123.887 136.684 123.724 136.591 123.586C136.499 123.447 136.368 123.339 136.214 123.276C136.06 123.212 135.891 123.195 135.728 123.228C135.565 123.26 135.415 123.34 135.297 123.458C135.18 123.576 135.099 123.726 135.067 123.889C135.035 124.052 135.051 124.221 135.115 124.375C135.179 124.529 135.286 124.66 135.425 124.752C135.563 124.845 135.726 124.894 135.892 124.894C136.115 124.894 136.329 124.805 136.487 124.648C136.645 124.49 136.733 124.276 136.733 124.053ZM139.944 124.053C139.944 123.887 139.894 123.724 139.802 123.586C139.709 123.447 139.578 123.339 139.424 123.276C139.271 123.212 139.101 123.195 138.938 123.228C138.775 123.26 138.625 123.34 138.508 123.458C138.39 123.576 138.31 123.726 138.277 123.889C138.245 124.052 138.262 124.221 138.325 124.375C138.389 124.529 138.497 124.66 138.635 124.752C138.773 124.845 138.936 124.894 139.102 124.894C139.325 124.893 139.538 124.804 139.696 124.646C139.853 124.489 139.942 124.276 139.944 124.053ZM143.149 124.053C143.149 123.887 143.1 123.724 143.008 123.586C142.915 123.447 142.784 123.339 142.63 123.276C142.476 123.212 142.307 123.195 142.144 123.228C141.981 123.26 141.831 123.34 141.713 123.458C141.596 123.576 141.516 123.726 141.483 123.889C141.451 124.052 141.467 124.221 141.531 124.375C141.595 124.529 141.702 124.66 141.841 124.752C141.979 124.845 142.142 124.894 142.308 124.894C142.531 124.894 142.745 124.805 142.903 124.648C143.061 124.49 143.149 124.276 143.149 124.053ZM153.505 124.59V128.511C153.505 130.684 147.056 132.446 139.102 132.446C131.149 132.446 124.695 130.684 124.695 128.511V124.581C125.868 125.423 127.198 126.021 128.607 126.338C135.511 127.933 142.689 127.933 149.593 126.338C151.002 126.026 152.333 125.432 153.505 124.59ZM136.733 129.974C136.733 129.807 136.684 129.645 136.591 129.506C136.499 129.368 136.368 129.26 136.214 129.197C136.06 129.133 135.891 129.116 135.728 129.149C135.565 129.181 135.415 129.261 135.297 129.379C135.18 129.497 135.099 129.646 135.067 129.81C135.035 129.973 135.051 130.142 135.115 130.296C135.179 130.449 135.286 130.581 135.425 130.673C135.563 130.766 135.726 130.815 135.892 130.815C136.003 130.815 136.112 130.794 136.215 130.752C136.317 130.71 136.41 130.648 136.488 130.57C136.566 130.492 136.628 130.399 136.67 130.296C136.712 130.194 136.734 130.084 136.733 129.974ZM139.944 129.974C139.944 129.807 139.894 129.645 139.802 129.506C139.709 129.368 139.578 129.26 139.424 129.197C139.271 129.133 139.101 129.116 138.938 129.149C138.775 129.181 138.625 129.261 138.508 129.379C138.39 129.497 138.31 129.646 138.277 129.81C138.245 129.973 138.262 130.142 138.325 130.296C138.389 130.449 138.497 130.581 138.635 130.673C138.773 130.766 138.936 130.815 139.102 130.815C139.326 130.815 139.539 130.726 139.697 130.568C139.855 130.411 139.944 130.197 139.944 129.974ZM143.149 129.974C143.149 129.807 143.1 129.645 143.008 129.506C142.915 129.368 142.784 129.26 142.63 129.197C142.476 129.133 142.307 129.116 142.144 129.149C141.981 129.181 141.831 129.261 141.713 129.379C141.596 129.497 141.516 129.646 141.483 129.81C141.451 129.973 141.467 130.142 141.531 130.296C141.595 130.449 141.702 130.581 141.841 130.673C141.979 130.766 142.142 130.815 142.308 130.815C142.419 130.815 142.528 130.794 142.631 130.752C142.733 130.71 142.826 130.648 142.904 130.57C142.983 130.492 143.044 130.399 143.087 130.296C143.129 130.194 143.15 130.084 143.149 129.974Z" fill="#F05F9C" style="mix-blend-mode:multiply"/>
<path d="M38.4922 245.89V253.974H61.3903V245.89H38.4922ZM44.9737 251.194C44.724 251.195 44.4796 251.121 44.2715 250.983C44.0634 250.845 43.9009 250.648 43.8047 250.418C43.7085 250.187 43.6829 249.934 43.731 249.689C43.7792 249.444 43.899 249.218 44.0752 249.041C44.2515 248.864 44.4763 248.744 44.7212 248.695C44.9661 248.646 45.22 248.67 45.4508 248.766C45.6817 248.861 45.879 249.023 46.0178 249.23C46.1567 249.438 46.2308 249.682 46.2308 249.932C46.2308 250.266 46.0985 250.586 45.8629 250.822C45.6273 251.059 45.3076 251.192 44.9737 251.194ZM49.9366 251.194C49.687 251.194 49.4431 251.12 49.2356 250.981C49.0281 250.842 48.8664 250.645 48.7709 250.415C48.6754 250.184 48.6504 249.93 48.6991 249.686C48.7478 249.441 48.8679 249.216 49.0444 249.04C49.2208 248.863 49.4457 248.743 49.6904 248.694C49.9352 248.646 50.1888 248.671 50.4194 248.766C50.6499 248.862 50.847 249.023 50.9856 249.231C51.1243 249.438 51.1983 249.682 51.1983 249.932C51.1989 250.098 51.1667 250.262 51.1035 250.415C51.0403 250.569 50.9474 250.708 50.8301 250.825C50.7128 250.943 50.5735 251.036 50.4201 251.099C50.2668 251.162 50.1024 251.194 49.9366 251.194ZM54.904 251.194C54.6543 251.195 54.4099 251.121 54.2018 250.983C53.9937 250.845 53.8312 250.648 53.735 250.418C53.6388 250.187 53.6131 249.934 53.6613 249.689C53.7095 249.444 53.8293 249.218 54.0055 249.041C54.1818 248.864 54.4066 248.744 54.6515 248.695C54.8964 248.646 55.1503 248.67 55.3811 248.766C55.6119 248.861 55.8093 249.023 55.9481 249.23C56.087 249.438 56.1611 249.682 56.1611 249.932C56.1611 250.266 56.0288 250.586 55.7932 250.822C55.5576 251.059 55.2379 251.192 54.904 251.194Z" fill="#F05F9C" style="mix-blend-mode:multiply"/>
<path d="M38.4922 255.464V263.563H61.3903V255.478L38.4922 255.464ZM44.9737 260.759C44.724 260.76 44.4796 260.687 44.2715 260.549C44.0634 260.411 43.9009 260.214 43.8047 259.983C43.7085 259.753 43.6829 259.499 43.731 259.254C43.7792 259.009 43.899 258.784 44.0752 258.607C44.2515 258.43 44.4763 258.309 44.7212 258.26C44.9661 258.211 45.22 258.236 45.4508 258.331C45.6817 258.426 45.879 258.588 46.0178 258.796C46.1567 259.003 46.2308 259.247 46.2308 259.497C46.2308 259.831 46.0985 260.151 45.8629 260.388C45.6273 260.624 45.3076 260.758 44.9737 260.759ZM49.9366 260.759C49.687 260.759 49.4431 260.685 49.2356 260.546C49.0281 260.408 48.8664 260.211 48.7709 259.98C48.6754 259.75 48.6504 259.496 48.6991 259.251C48.7478 259.006 48.8679 258.782 49.0444 258.605C49.2208 258.429 49.4457 258.308 49.6904 258.26C49.9352 258.211 50.1888 258.236 50.4194 258.332C50.6499 258.427 50.847 258.589 50.9856 258.796C51.1243 259.004 51.1983 259.248 51.1983 259.497C51.1989 259.663 51.1667 259.827 51.1035 259.981C51.0403 260.134 50.9474 260.274 50.8301 260.391C50.7128 260.508 50.5735 260.601 50.4201 260.664C50.2668 260.727 50.1024 260.76 49.9366 260.759ZM54.904 260.759C54.6543 260.76 54.4099 260.687 54.2018 260.549C53.9937 260.411 53.8312 260.214 53.735 259.983C53.6388 259.753 53.6131 259.499 53.6613 259.254C53.7095 259.009 53.8293 258.784 54.0055 258.607C54.1818 258.43 54.4066 258.309 54.6515 258.26C54.8964 258.211 55.1503 258.236 55.3811 258.331C55.6119 258.426 55.8093 258.588 55.9481 258.796C56.087 259.003 56.1611 259.247 56.1611 259.497C56.1611 259.831 56.0288 260.151 55.7932 260.388C55.5576 260.624 55.2379 260.758 54.904 260.759Z" fill="#F05F9C" style="mix-blend-mode:multiply"/>
<path d="M38.4922 265.04V273.124H61.3903V265.04H38.4922ZM44.9737 270.344C44.724 270.344 44.4796 270.271 44.2715 270.133C44.0634 269.995 43.9009 269.798 43.8047 269.568C43.7085 269.337 43.6829 269.084 43.731 268.839C43.7792 268.593 43.899 268.368 44.0752 268.191C44.2515 268.014 44.4763 267.894 44.7212 267.845C44.9661 267.796 45.22 267.82 45.4508 267.916C45.6817 268.011 45.879 268.173 46.0178 268.38C46.1567 268.588 46.2308 268.832 46.2308 269.082C46.2308 269.416 46.0985 269.736 45.8629 269.972C45.6273 270.209 45.3076 270.342 44.9737 270.344ZM49.9366 270.344C49.687 270.344 49.4431 270.27 49.2356 270.131C49.0281 269.992 48.8664 269.795 48.7709 269.565C48.6754 269.334 48.6504 269.08 48.6991 268.836C48.7478 268.591 48.8679 268.366 49.0444 268.19C49.2208 268.013 49.4457 267.893 49.6904 267.844C49.9352 267.796 50.1888 267.821 50.4194 267.916C50.6499 268.012 50.847 268.173 50.9856 268.381C51.1243 268.588 51.1983 268.832 51.1983 269.082C51.1989 269.248 51.1667 269.412 51.1035 269.565C51.0403 269.719 50.9474 269.858 50.8301 269.975C50.7128 270.093 50.5735 270.186 50.4201 270.249C50.2668 270.312 50.1024 270.344 49.9366 270.344ZM54.904 270.344C54.6543 270.344 54.4099 270.271 54.2018 270.133C53.9937 269.995 53.8312 269.798 53.735 269.568C53.6388 269.337 53.6131 269.084 53.6613 268.839C53.7095 268.593 53.8293 268.368 54.0055 268.191C54.1818 268.014 54.4066 267.894 54.6515 267.845C54.8964 267.796 55.1503 267.82 55.3811 267.916C55.6119 268.011 55.8093 268.173 55.9481 268.38C56.087 268.588 56.1611 268.832 56.1611 269.082C56.1611 269.416 56.0288 269.736 55.7932 269.972C55.5576 270.209 55.2379 270.342 54.904 270.344Z" fill="#F05F9C" style="mix-blend-mode:multiply"/>
<path d="M62.9377 274.535H36.9414V277.442H62.9377V274.535Z" fill="#F05F9C" style="mix-blend-mode:multiply"/>
<path d="M62.8164 260.619C63.085 260.637 63.3367 260.756 63.5206 260.952C63.7045 261.149 63.8068 261.408 63.8068 261.677C63.8068 261.946 63.7045 262.205 63.5206 262.402C63.3367 262.599 63.085 262.718 62.8164 262.736V265.072H72.4336V258.282H62.8164V260.619ZM66.9895 260.619C67.1993 260.619 67.4044 260.681 67.5788 260.798C67.7533 260.914 67.8892 261.08 67.9695 261.274C68.0498 261.467 68.0708 261.681 68.0299 261.886C67.9889 262.092 67.8879 262.281 67.7396 262.43C67.5912 262.578 67.4022 262.679 67.1964 262.72C66.9906 262.761 66.7774 262.74 66.5835 262.66C66.3897 262.579 66.224 262.443 66.1075 262.269C65.9909 262.094 65.9287 261.889 65.9287 261.68C65.9287 261.398 66.0404 261.128 66.2394 260.929C66.4383 260.731 66.7081 260.619 66.9895 260.619Z" fill="#F05F9C" style="mix-blend-mode:multiply"/>
<path d="M62.8164 268.67C63.085 268.688 63.3367 268.807 63.5206 269.004C63.7045 269.201 63.8068 269.46 63.8068 269.729C63.8068 269.998 63.7045 270.257 63.5206 270.454C63.3367 270.65 63.085 270.769 62.8164 270.787V273.124H72.4336V266.329H62.8164V268.67ZM66.9895 268.67C67.1995 268.67 67.4047 268.733 67.5793 268.849C67.7538 268.966 67.8898 269.132 67.9699 269.326C68.0501 269.52 68.0708 269.734 68.0295 269.94C67.9882 270.146 67.8867 270.335 67.7379 270.483C67.5891 270.631 67.3996 270.732 67.1935 270.772C66.9875 270.812 66.774 270.791 66.5803 270.71C66.3865 270.629 66.2212 270.492 66.1052 270.317C65.9892 270.142 65.9278 269.936 65.9287 269.726C65.9287 269.587 65.9561 269.45 66.0095 269.321C66.0629 269.193 66.1411 269.076 66.2397 268.978C66.3382 268.88 66.4552 268.802 66.5839 268.749C66.7125 268.697 66.8504 268.67 66.9895 268.67Z" fill="#F05F9C" style="mix-blend-mode:multiply"/>
<path d="M62.8164 250.231V252.567C63.085 252.585 63.3367 252.705 63.5206 252.901C63.7045 253.098 63.8068 253.357 63.8068 253.626C63.8068 253.895 63.7045 254.154 63.5206 254.351C63.3367 254.547 63.085 254.667 62.8164 254.684V257.021H72.4336V250.231H62.8164ZM66.9895 254.689C66.7795 254.69 66.5739 254.629 66.3989 254.513C66.2238 254.397 66.0871 254.231 66.0061 254.038C65.9251 253.844 65.9034 253.63 65.9438 253.424C65.9842 253.218 66.0849 253.029 66.233 252.88C66.3812 252.731 66.5702 252.63 66.7761 252.588C66.982 252.547 67.1955 252.568 67.3896 252.648C67.5838 252.728 67.7497 252.864 67.8665 253.038C67.9832 253.213 68.0456 253.418 68.0456 253.628C68.0444 253.908 67.9327 254.176 67.7349 254.374C67.5371 254.572 67.2692 254.683 66.9895 254.684V254.689Z" fill="#F05F9C" style="mix-blend-mode:multiply"/>
<path d="M73.9886 274.535H60.1562V277.442H73.9886V274.535Z" fill="#F05F9C" style="mix-blend-mode:multiply"/>
<path d="M37.0633 258.282H27.4414V265.077H37.0633V262.74C36.9184 262.75 36.773 262.73 36.6362 262.681C36.4995 262.632 36.3742 262.556 36.2681 262.456C36.1621 262.357 36.0775 262.237 36.0197 262.104C35.9619 261.971 35.9321 261.827 35.9321 261.682C35.9321 261.537 35.9619 261.393 36.0197 261.26C36.0775 261.126 36.1621 261.007 36.2681 260.907C36.3742 260.808 36.4995 260.732 36.6362 260.683C36.773 260.634 36.9184 260.614 37.0633 260.623V258.282ZM33.951 261.694C33.951 261.903 33.8888 262.108 33.7722 262.283C33.6557 262.457 33.49 262.593 33.2962 262.674C33.1023 262.754 32.889 262.775 32.6833 262.734C32.4775 262.693 32.2885 262.592 32.1401 262.444C31.9918 262.295 31.8907 262.106 31.8498 261.901C31.8089 261.695 31.8299 261.481 31.9102 261.288C31.9905 261.094 32.1264 260.928 32.3009 260.812C32.4753 260.695 32.6804 260.633 32.8902 260.633C33.1716 260.633 33.4414 260.745 33.6403 260.943C33.8392 261.142 33.951 261.412 33.951 261.694Z" fill="#F05F9C" style="mix-blend-mode:multiply"/>
<path d="M37.0633 266.329H27.4414V273.124H37.0633V270.787C36.9184 270.797 36.773 270.777 36.6362 270.728C36.4995 270.679 36.3742 270.603 36.2681 270.503C36.1621 270.404 36.0775 270.284 36.0197 270.151C35.9619 270.018 35.9321 269.874 35.9321 269.729C35.9321 269.584 35.9619 269.44 36.0197 269.307C36.0775 269.173 36.1621 269.053 36.2681 268.954C36.3742 268.855 36.4995 268.779 36.6362 268.73C36.773 268.681 36.9184 268.661 37.0633 268.67V266.329ZM33.951 269.726C33.9519 269.936 33.8905 270.142 33.7745 270.317C33.6585 270.492 33.4932 270.629 33.2994 270.71C33.1057 270.791 32.8922 270.812 32.6861 270.772C32.4801 270.732 32.2906 270.631 32.1418 270.483C31.993 270.335 31.8915 270.146 31.8502 269.94C31.8088 269.734 31.8296 269.52 31.9097 269.326C31.9899 269.132 32.1258 268.966 32.3004 268.849C32.4749 268.733 32.6802 268.67 32.8902 268.67C33.1707 268.67 33.4399 268.781 33.6387 268.979C33.8375 269.177 33.9498 269.446 33.951 269.726Z" fill="#F05F9C" style="mix-blend-mode:multiply"/>
<path d="M27.4414 250.231V257.021H37.0633V254.684C36.9184 254.694 36.773 254.674 36.6362 254.625C36.4995 254.576 36.3742 254.5 36.2681 254.401C36.1621 254.301 36.0775 254.181 36.0197 254.048C35.9619 253.915 35.9321 253.771 35.9321 253.626C35.9321 253.481 35.9619 253.337 36.0197 253.204C36.0775 253.071 36.1621 252.951 36.2681 252.851C36.3742 252.752 36.4995 252.676 36.6362 252.627C36.773 252.578 36.9184 252.558 37.0633 252.567V250.231H27.4414ZM31.8294 253.628C31.8285 253.418 31.8899 253.213 32.0059 253.038C32.1219 252.863 32.2873 252.726 32.481 252.645C32.6748 252.564 32.8882 252.542 33.0943 252.583C33.3004 252.623 33.4898 252.724 33.6386 252.872C33.7875 253.02 33.889 253.209 33.9303 253.415C33.9716 253.621 33.9508 253.834 33.8707 254.028C33.7905 254.223 33.6546 254.389 33.48 254.505C33.3055 254.622 33.1002 254.684 32.8902 254.684C32.6097 254.684 32.3406 254.573 32.1418 254.375C31.943 254.177 31.8307 253.909 31.8294 253.628Z" fill="#F05F9C" style="mix-blend-mode:multiply"/>
<path d="M39.7229 274.535H25.8906V277.442H39.7229V274.535Z" fill="#F05F9C" style="mix-blend-mode:multiply"/>
<path d="M49.9864 289.302C52.0046 289.302 53.6407 287.666 53.6407 285.648C53.6407 283.63 52.0046 281.994 49.9864 281.994C47.9681 281.994 46.332 283.63 46.332 285.648C46.332 287.666 47.9681 289.302 49.9864 289.302Z" fill="#F05F9C" style="mix-blend-mode:multiply"/>
<path d="M57.4769 286.578H50V284.708H57.4769C58.642 284.707 59.7591 284.244 60.5833 283.421C61.4076 282.597 61.8718 281.481 61.8743 280.316V275.979H63.7435V280.316C63.7423 281.977 63.0815 283.57 61.9064 284.744C60.7313 285.918 59.1381 286.578 57.4769 286.578Z" fill="#F05F9C" style="mix-blend-mode:multiply"/>
<path d="M50.9376 286.577H42.526C40.8685 286.575 39.2796 285.915 38.1075 284.743C36.9355 283.571 36.2759 281.982 36.2734 280.325V275.988H38.1427V280.325C38.1439 281.49 38.6071 282.606 39.4306 283.43C40.2541 284.253 41.3707 284.716 42.5354 284.718H49.0683V275.988H50.9376V286.577Z" fill="#F05F9C" style="mix-blend-mode:multiply"/>
<path d="M412.515 547.438C411.995 547.443 411.477 547.484 410.963 547.56C410.034 545.25 408.492 543.238 406.504 541.74C404.515 540.243 402.155 539.317 399.678 539.062C397.202 538.808 394.703 539.235 392.451 540.296C390.2 541.358 388.281 543.015 386.902 545.088C385.746 544.905 384.564 544.963 383.432 545.257C382.299 545.551 381.239 546.076 380.318 546.798C379.397 547.52 378.635 548.425 378.079 549.455C377.524 550.485 377.186 551.618 377.088 552.784C374.96 553.132 373.041 554.267 371.712 555.964C370.383 557.661 369.741 559.797 369.914 561.946C370.088 564.095 371.063 566.1 372.646 567.562C374.23 569.025 376.306 569.839 378.462 569.841H385.35V569.705C385.353 568.034 385.721 566.384 386.428 564.87C387.135 563.355 388.164 562.014 389.444 560.939V557.784C389.444 555.834 390.219 553.963 391.598 552.583C392.977 551.204 394.848 550.429 396.799 550.429C398.75 550.429 400.621 551.204 402 552.583C403.38 553.963 404.155 555.834 404.155 557.784V560.939C405.434 562.014 406.463 563.355 407.17 564.87C407.877 566.384 408.245 568.034 408.248 569.705V569.864H412.505C415.48 569.864 418.333 568.683 420.436 566.579C422.539 564.476 423.721 561.623 423.721 558.649C423.721 555.674 422.539 552.822 420.436 550.718C418.333 548.615 415.48 547.434 412.505 547.434L412.515 547.438Z" fill="#F05F9C" style="mix-blend-mode:multiply"/>
<path d="M402.442 561.789V557.789C402.442 556.296 401.848 554.863 400.792 553.807C399.736 552.751 398.304 552.158 396.811 552.158C395.317 552.158 393.885 552.751 392.829 553.807C391.773 554.863 391.18 556.296 391.18 557.789V561.789C389.498 562.984 388.24 564.682 387.586 566.638C386.933 568.594 386.919 570.708 387.546 572.673C388.173 574.638 389.408 576.353 391.073 577.57C392.739 578.787 394.748 579.442 396.811 579.442C398.873 579.442 400.882 578.787 402.548 577.57C404.213 576.353 405.449 574.638 406.075 572.673C406.702 570.708 406.688 568.594 406.035 566.638C405.382 564.682 404.123 562.984 402.442 561.789ZM404.549 570.668C404.376 572.064 403.826 573.387 402.96 574.495L401.909 573.444L400.549 574.804L401.601 575.855C400.492 576.721 399.169 577.27 397.773 577.444V575.958H395.848V577.444C394.452 577.27 393.129 576.721 392.021 575.855L393.072 574.804L391.712 573.444L390.661 574.495C389.795 573.387 389.246 572.064 389.072 570.668H390.563V568.743H389.072C389.246 567.347 389.795 566.024 390.661 564.915L391.712 565.967L393.072 564.607L392.021 563.556C393.129 562.69 394.452 562.14 395.848 561.967V563.453H397.773V561.967C399.169 562.14 400.492 562.69 401.601 563.556L400.549 564.607L401.909 565.967L402.96 564.915C403.826 566.024 404.376 567.347 404.549 568.743H403.063V570.668H404.549ZM393.427 557.784C393.427 556.887 393.784 556.027 394.418 555.392C395.053 554.758 395.913 554.401 396.811 554.401C397.708 554.401 398.568 554.758 399.203 555.392C399.837 556.027 400.194 556.887 400.194 557.784V560.588C398.011 559.778 395.61 559.778 393.427 560.588V557.784ZM401.049 569.705C401.049 570.544 400.801 571.363 400.335 572.06C399.869 572.757 399.207 573.3 398.433 573.621C397.658 573.942 396.806 574.026 395.984 573.862C395.162 573.699 394.406 573.295 393.814 572.702C393.221 572.11 392.817 571.354 392.654 570.532C392.49 569.71 392.574 568.858 392.895 568.083C393.216 567.309 393.759 566.647 394.456 566.181C395.153 565.716 395.972 565.467 396.811 565.467C397.368 565.467 397.919 565.577 398.434 565.79C398.948 566.003 399.416 566.316 399.809 566.71C400.203 567.104 400.515 567.572 400.728 568.087C400.941 568.601 401.05 569.153 401.049 569.71V569.705Z" fill="#F05F9C" style="mix-blend-mode:multiply"/>
<path d="M88.3537 454.14L91.2463 454.551C91.5317 453.164 91.5317 451.733 91.2463 450.345L88.3537 450.743L87.8864 449.579L87.4191 448.415L89.7556 446.663C88.9811 445.484 87.9747 444.474 86.7976 443.696L85.0358 446.032L83.8722 445.565L82.7133 445.098L83.1199 442.21C81.7324 441.924 80.3015 441.924 78.9141 442.21L79.316 445.102L78.1524 445.57L76.9888 446.037L75.2317 443.7C74.0536 444.475 73.0456 445.482 72.269 446.658L74.6055 448.42L74.1382 449.584L73.6709 450.747L70.7783 450.336C70.4906 451.723 70.4906 453.155 70.7783 454.542L73.6709 454.145L74.1382 455.308L74.6055 456.472L72.269 458.224C73.0435 459.404 74.0499 460.413 75.227 461.192L76.9888 458.855L78.1477 459.322L79.3113 459.79L78.9001 462.682C80.2875 462.967 81.7184 462.967 83.1058 462.682L82.6666 459.832L83.8302 459.364L84.9938 458.897L86.7508 461.234C87.9289 460.459 88.937 459.453 89.7136 458.276L87.377 456.514L87.8443 455.35L88.3537 454.14ZM80.9889 456.687C80.1488 456.687 79.3275 456.438 78.629 455.971C77.9304 455.504 77.386 454.841 77.0645 454.065C76.7429 453.288 76.6588 452.434 76.8227 451.61C76.9866 450.786 77.3912 450.029 77.9853 449.435C78.5793 448.841 79.3362 448.437 80.1602 448.273C80.9842 448.109 81.8383 448.193 82.6145 448.514C83.3907 448.836 84.0541 449.38 84.5209 450.079C84.9876 450.778 85.2368 451.599 85.2368 452.439C85.2368 453.566 84.7892 454.646 83.9926 455.443C83.196 456.239 82.1155 456.687 80.9889 456.687Z" fill="#F05F9C" style="mix-blend-mode:multiply"/>
<path d="M98.7466 438.883C98.327 438.883 97.9168 439.007 97.5679 439.24C97.219 439.473 96.9471 439.805 96.7865 440.192C96.6259 440.58 96.5839 441.007 96.6658 441.418C96.7476 441.83 96.9497 442.208 97.2464 442.504C97.5431 442.801 97.9211 443.003 98.3327 443.085C98.7442 443.167 99.1708 443.125 99.5585 442.964C99.9461 442.804 100.277 442.532 100.511 442.183C100.744 441.834 100.868 441.424 100.868 441.004C100.867 440.442 100.643 439.903 100.245 439.505C99.8478 439.108 99.3089 438.884 98.7466 438.883Z" fill="#F05F9C" style="mix-blend-mode:multiply"/>
<path d="M97.0858 429.924C96.5539 429.929 96.023 429.971 95.497 430.051C94.5436 427.684 92.9623 425.622 90.9235 424.088C88.8848 422.553 86.4659 421.604 83.9276 421.343C81.3893 421.082 78.8279 421.519 76.5194 422.606C74.211 423.693 72.2431 425.39 70.8278 427.513C70.4025 427.448 69.973 427.414 69.5427 427.41C67.3482 427.411 65.233 428.231 63.612 429.71C61.991 431.189 60.9812 433.221 60.7807 435.406C58.6027 435.764 56.6389 436.928 55.2789 438.667C53.9188 440.406 53.2619 442.592 53.4383 444.792C53.6148 446.992 54.6117 449.046 56.2314 450.545C57.8511 452.045 59.9753 452.881 62.1826 452.888H68.038C68 451.858 68.0863 450.827 68.295 449.818L68.7623 447.537L69.4586 447.635L68.8979 447.21L70.1783 445.271C71.1415 443.814 72.3913 442.57 73.8513 441.612L75.7953 440.336L76.2159 440.897L76.1224 440.201L78.3982 439.733C79.2455 439.56 80.1082 439.472 80.9731 439.472C81.8505 439.474 82.7255 439.563 83.5853 439.738L85.8611 440.205L85.763 440.902L86.1882 440.341L88.1276 441.626C89.5849 442.588 90.8301 443.838 91.7866 445.299L93.0623 447.238L92.5249 447.682L93.2212 447.584L93.6885 449.864C93.8917 450.87 93.9748 451.896 93.9362 452.921H97.0952C100.145 452.921 103.07 451.709 105.227 449.552C107.384 447.396 108.596 444.47 108.596 441.42C108.596 438.37 107.384 435.445 105.227 433.288C103.07 431.131 100.145 429.92 97.0952 429.92L97.0858 429.924ZM73.0148 436.177L71.9587 436.028L71.7811 436.453L71.6082 436.873L72.4541 437.518C72.1702 437.945 71.803 438.311 71.3746 438.593L70.7344 437.743L70.3091 437.92L69.8839 438.093L70.0334 439.149C69.5292 439.252 69.0095 439.252 68.5053 439.149L68.6548 438.098L68.2296 437.92L67.8044 437.743L67.1641 438.593C66.7366 438.308 66.3697 437.941 66.0847 437.514L66.9352 436.873L66.7623 436.448L66.5847 436.023L65.5332 436.168C65.4287 435.665 65.4287 435.147 65.5332 434.644L66.5893 434.794L66.7669 434.369L66.9398 433.943L66.094 433.303C66.3765 432.873 66.7438 432.506 67.1735 432.224L67.8137 433.074L68.2389 432.901L68.6595 432.724L68.5147 431.672C69.0186 431.567 69.5388 431.567 70.0428 431.672L69.8932 432.728L70.3185 432.901L70.739 433.079L71.3839 432.233C71.8136 432.515 72.1809 432.883 72.4634 433.312L71.6082 433.953L71.7858 434.378L71.9587 434.798L73.0148 434.654C73.1153 435.158 73.1153 435.677 73.0148 436.182V436.177ZM103.857 442.056L102.413 441.85L102.17 442.43L101.927 443.014L103.091 443.892C102.704 444.483 102.2 444.987 101.609 445.374L100.731 444.205L100.151 444.444L99.5673 444.687L99.7682 446.131C99.0776 446.273 98.3652 446.273 97.6747 446.131L97.8803 444.687L97.2961 444.444L96.7167 444.205L95.8381 445.369C95.2488 444.979 94.7449 444.473 94.3568 443.883L95.525 443.009L95.2867 442.425L95.0437 441.846L93.5997 442.042C93.4572 441.351 93.4572 440.639 93.5997 439.948L95.0484 440.154L95.2867 439.574L95.5297 438.99L94.3942 438.112C94.7837 437.524 95.2874 437.02 95.8755 436.63L96.7541 437.799L97.3382 437.56L97.9177 437.317L97.7167 435.873C98.4073 435.731 99.1197 435.731 99.8102 435.873L99.6093 437.317L100.189 437.56L100.768 437.799L101.651 436.635C102.24 437.024 102.743 437.53 103.128 438.121L101.965 438.995L102.203 439.579L102.441 440.159L103.89 439.962C104.026 440.66 104.02 441.379 103.871 442.074L103.857 442.056Z" fill="#F05F9C" style="mix-blend-mode:multiply"/>
<path d="M69.2734 436.958C70.1276 436.958 70.8201 436.265 70.8201 435.411C70.8201 434.557 70.1276 433.864 69.2734 433.864C68.4191 433.864 67.7266 434.557 67.7266 435.411C67.7266 436.265 68.4191 436.958 69.2734 436.958Z" fill="#F05F9C" style="mix-blend-mode:multiply"/>
<path d="M210.498 555.036C209.917 554.412 209.599 553.589 209.61 552.737C209.609 552.678 209.627 552.619 209.66 552.569C209.693 552.519 209.74 552.481 209.795 552.458C209.851 552.435 209.912 552.43 209.97 552.442C210.029 552.454 210.082 552.484 210.124 552.527L210.871 553.307C211 553.445 211.156 553.555 211.328 553.631C211.5 553.707 211.686 553.748 211.875 553.75C212.063 553.753 212.25 553.718 212.425 553.646C212.599 553.575 212.757 553.469 212.89 553.335L213.208 553.027L213.479 552.751C213.611 552.621 213.716 552.466 213.788 552.294C213.859 552.123 213.896 551.939 213.896 551.754C213.896 551.568 213.859 551.384 213.788 551.213C213.716 551.042 213.611 550.886 213.479 550.756L212.694 549.961C212.652 549.921 212.623 549.868 212.612 549.811C212.6 549.754 212.605 549.694 212.627 549.64C212.649 549.586 212.687 549.54 212.735 549.507C212.784 549.474 212.841 549.457 212.899 549.457C213.756 549.461 214.578 549.796 215.194 550.391C216.526 551.672 215.759 553.882 215.759 553.882L217.4 555.284L215.194 557.153L213.956 555.705C213.956 555.705 211.741 556.396 210.498 555.036ZM226.349 557.041L225.606 553.504C225.563 553.288 225.455 553.091 225.297 552.938L221.152 548.788C221.026 548.669 220.859 548.602 220.685 548.602C220.511 548.602 220.343 548.669 220.218 548.788L218.717 550.289C218.595 550.413 218.527 550.581 218.527 550.756C218.527 550.931 218.595 551.098 218.717 551.223L220.9 553.41L220.862 553.448L218.059 555.784L215.745 557.733L212.736 560.261L211.956 560.854C211.784 561.008 211.645 561.194 211.548 561.403C211.451 561.612 211.397 561.838 211.391 562.068C211.384 562.298 211.425 562.527 211.51 562.741C211.595 562.955 211.723 563.15 211.885 563.312L212.227 563.649L212.572 563.995C212.729 564.153 212.915 564.278 213.121 564.363C213.326 564.448 213.546 564.491 213.769 564.49C214.005 564.49 214.238 564.44 214.454 564.345C214.669 564.249 214.863 564.109 215.021 563.934L215.624 563.149L217.918 560.289L220.138 557.532L222.316 554.821L225.306 557.808C225.336 557.839 225.371 557.863 225.411 557.88C225.45 557.897 225.493 557.906 225.535 557.906C225.579 557.906 225.622 557.897 225.662 557.88C225.702 557.863 225.739 557.839 225.769 557.808L226.269 557.308C226.303 557.271 226.327 557.227 226.341 557.179C226.355 557.131 226.358 557.081 226.349 557.032V557.041ZM224.077 560.887C224.249 561.04 224.388 561.227 224.485 561.436C224.582 561.645 224.636 561.871 224.642 562.101C224.649 562.331 224.608 562.56 224.523 562.774C224.438 562.988 224.31 563.182 224.148 563.345L223.806 563.682L223.461 564.027C223.299 564.19 223.106 564.318 222.893 564.403C222.68 564.488 222.452 564.529 222.223 564.524C221.994 564.518 221.768 564.466 221.56 564.37C221.352 564.274 221.165 564.137 221.012 563.967L218.456 560.967L220.764 558.102L224.077 560.887ZM222.914 561.822C222.818 561.726 222.695 561.66 222.562 561.634C222.429 561.607 222.291 561.621 222.165 561.673C222.04 561.725 221.933 561.813 221.857 561.926C221.782 562.039 221.741 562.172 221.741 562.308C221.741 562.444 221.782 562.576 221.857 562.689C221.933 562.802 222.04 562.89 222.165 562.942C222.291 562.994 222.429 563.008 222.562 562.981C222.695 562.955 222.818 562.89 222.914 562.794C222.978 562.729 223.028 562.653 223.063 562.569C223.097 562.484 223.114 562.394 223.113 562.303C223.112 562.213 223.093 562.123 223.057 562.039C223.022 561.956 222.97 561.88 222.905 561.817L222.914 561.822Z" fill="#F05F9C" style="mix-blend-mode:multiply"/>
<path d="M218.26 536.634H216.555V544.686H218.26V536.634Z" fill="#F05F9C" style="mix-blend-mode:multiply"/>
<path d="M217.404 537.77C216.564 537.77 215.743 537.521 215.044 537.054C214.346 536.587 213.801 535.924 213.48 535.148C213.158 534.371 213.074 533.517 213.238 532.693C213.402 531.869 213.806 531.112 214.4 530.518C214.994 529.924 215.751 529.52 216.575 529.356C217.399 529.192 218.253 529.276 219.03 529.598C219.806 529.919 220.469 530.463 220.936 531.162C221.403 531.861 221.652 532.682 221.652 533.522C221.651 534.648 221.203 535.728 220.406 536.524C219.61 537.321 218.53 537.769 217.404 537.77ZM217.404 530.98C216.901 530.98 216.41 531.129 215.992 531.408C215.574 531.688 215.248 532.085 215.055 532.549C214.863 533.014 214.813 533.525 214.911 534.018C215.009 534.511 215.251 534.964 215.606 535.32C215.962 535.675 216.415 535.917 216.908 536.015C217.401 536.113 217.912 536.063 218.377 535.871C218.841 535.678 219.238 535.352 219.518 534.934C219.797 534.516 219.946 534.025 219.946 533.522C219.945 532.848 219.677 532.202 219.2 531.726C218.724 531.249 218.078 530.981 217.404 530.98Z" fill="#F05F9C" style="mix-blend-mode:multiply"/>
<path d="M202.607 545.786L201.754 547.27L208.759 551.295L209.612 549.811L202.607 545.786Z" fill="#F05F9C" style="mix-blend-mode:multiply"/>
<path d="M197.315 550.022C196.667 550.016 196.028 549.862 195.449 549.572C194.869 549.281 194.364 548.861 193.971 548.345C193.579 547.829 193.31 547.229 193.185 546.593C193.06 545.957 193.083 545.3 193.251 544.674C193.418 544.048 193.728 543.468 194.154 542.98C194.581 542.492 195.114 542.107 195.712 541.857C196.31 541.606 196.957 541.496 197.604 541.534C198.252 541.573 198.882 541.759 199.446 542.078C200.265 542.542 200.907 543.265 201.271 544.133C201.635 545.001 201.7 545.966 201.456 546.875C201.212 547.784 200.673 548.587 199.924 549.157C199.174 549.726 198.256 550.031 197.315 550.022ZM197.315 543.237C196.701 543.238 196.107 543.463 195.646 543.869C195.185 544.275 194.887 544.835 194.808 545.444C194.729 546.054 194.875 546.671 195.217 547.181C195.559 547.692 196.076 548.06 196.67 548.218C197.264 548.376 197.895 548.312 198.445 548.039C198.996 547.766 199.428 547.302 199.662 546.734C199.896 546.166 199.915 545.532 199.717 544.95C199.518 544.369 199.114 543.88 198.581 543.573C198.198 543.357 197.765 543.244 197.324 543.246L197.315 543.237Z" fill="#F05F9C" style="mix-blend-mode:multiply"/>
<path d="M207.133 562.998L200.16 567.023L201.013 568.501L207.986 564.475L207.133 562.998Z" fill="#F05F9C" style="mix-blend-mode:multiply"/>
<path d="M197.907 573.556C197.16 573.558 196.425 573.362 195.778 572.988C195.131 572.615 194.593 572.077 194.22 571.43C193.756 570.622 193.57 569.683 193.693 568.759C193.816 567.835 194.24 566.977 194.9 566.319C195.559 565.66 196.418 565.237 197.342 565.116C198.266 564.994 199.205 565.18 200.012 565.646C200.82 566.112 201.451 566.831 201.809 567.692C202.166 568.552 202.23 569.507 201.991 570.408C201.751 571.309 201.221 572.105 200.483 572.674C199.745 573.244 198.839 573.554 197.907 573.556ZM197.907 566.766C197.461 566.767 197.024 566.885 196.638 567.109C196.252 567.332 195.932 567.653 195.709 568.04C195.487 568.426 195.37 568.864 195.37 569.31C195.37 569.756 195.488 570.193 195.711 570.58C196.048 571.163 196.603 571.589 197.254 571.764C197.905 571.939 198.598 571.85 199.183 571.514C199.472 571.348 199.726 571.126 199.93 570.861C200.133 570.596 200.283 570.294 200.369 569.972C200.456 569.649 200.479 569.313 200.435 568.982C200.392 568.651 200.284 568.331 200.117 568.042C199.952 567.752 199.731 567.498 199.466 567.295C199.201 567.092 198.898 566.944 198.575 566.86C198.353 566.797 198.124 566.765 197.893 566.766H197.907Z" fill="#F05F9C" style="mix-blend-mode:multiply"/>
<path d="M219.417 569.411H217.711V577.463H219.417V569.411Z" fill="#F05F9C" style="mix-blend-mode:multiply"/>
<path d="M218.565 584.813C217.724 584.814 216.903 584.566 216.203 584.1C215.504 583.633 214.959 582.97 214.637 582.193C214.315 581.417 214.23 580.563 214.394 579.738C214.558 578.914 214.962 578.156 215.557 577.562C216.151 576.968 216.908 576.563 217.733 576.399C218.557 576.236 219.412 576.32 220.188 576.642C220.964 576.964 221.628 577.509 222.094 578.209C222.561 578.908 222.809 579.73 222.808 580.57C222.807 581.695 222.359 582.774 221.564 583.569C220.769 584.365 219.69 584.812 218.565 584.813ZM218.565 578.028C218.062 578.027 217.57 578.176 217.151 578.454C216.733 578.733 216.406 579.13 216.213 579.594C216.02 580.059 215.969 580.57 216.066 581.063C216.164 581.557 216.406 582.01 216.761 582.366C217.116 582.722 217.569 582.965 218.063 583.063C218.556 583.162 219.067 583.112 219.532 582.919C219.997 582.727 220.394 582.401 220.674 581.983C220.953 581.565 221.102 581.073 221.102 580.57C221.101 579.897 220.834 579.252 220.358 578.776C219.883 578.299 219.238 578.031 218.565 578.028Z" fill="#F05F9C" style="mix-blend-mode:multiply"/>
<path d="M229.404 561.995L228.551 563.472L235.524 567.498L236.377 566.021L229.404 561.995Z" fill="#F05F9C" style="mix-blend-mode:multiply"/>
<path d="M238.641 572.556C237.552 572.561 236.503 572.152 235.706 571.411C234.908 570.671 234.422 569.655 234.346 568.569C234.271 567.484 234.611 566.41 235.298 565.566C235.985 564.722 236.967 564.171 238.045 564.025C239.124 563.878 240.217 564.148 241.104 564.779C241.991 565.409 242.605 566.354 242.821 567.42C243.037 568.487 242.839 569.596 242.268 570.522C241.696 571.448 240.794 572.122 239.743 572.407C239.384 572.505 239.013 572.555 238.641 572.556ZM238.641 565.766C238.417 565.767 238.194 565.795 237.977 565.85C237.575 565.96 237.205 566.166 236.902 566.452C236.598 566.738 236.369 567.094 236.236 567.489C236.102 567.884 236.068 568.306 236.135 568.717C236.203 569.129 236.371 569.517 236.625 569.848C236.878 570.179 237.209 570.443 237.588 570.616C237.968 570.789 238.384 570.867 238.8 570.841C239.216 570.815 239.62 570.688 239.975 570.469C240.33 570.251 240.626 569.949 240.837 569.589C241.06 569.203 241.177 568.765 241.178 568.319C241.178 567.873 241.061 567.435 240.838 567.049C240.616 566.663 240.296 566.342 239.91 566.118C239.524 565.895 239.086 565.776 238.641 565.776V565.766Z" fill="#F05F9C" style="mix-blend-mode:multiply"/>
<path d="M234.953 545.595L227.98 549.621L228.833 551.098L235.806 547.072L234.953 545.595Z" fill="#F05F9C" style="mix-blend-mode:multiply"/>
<path d="M238.074 549.027C237.138 549.03 236.228 548.724 235.484 548.156C234.74 547.588 234.205 546.79 233.962 545.886C233.719 544.983 233.781 544.024 234.14 543.159C234.498 542.295 235.132 541.573 235.943 541.106C236.917 540.57 238.062 540.437 239.133 540.735C240.204 541.034 241.115 541.74 241.671 542.703C242.227 543.665 242.383 544.808 242.107 545.884C241.83 546.961 241.142 547.886 240.191 548.462C239.547 548.832 238.817 549.027 238.074 549.027ZM238.074 542.242C237.515 542.243 236.971 542.428 236.528 542.769C236.085 543.111 235.766 543.588 235.622 544.129C235.478 544.67 235.516 545.243 235.731 545.759C235.945 546.276 236.324 546.707 236.809 546.987C237.294 547.266 237.857 547.378 238.412 547.304C238.966 547.231 239.481 546.977 239.877 546.581C240.272 546.185 240.526 545.67 240.599 545.115C240.672 544.561 240.56 543.997 240.28 543.513C240.115 543.223 239.893 542.969 239.628 542.766C239.363 542.563 239.061 542.415 238.738 542.331C238.517 542.27 238.289 542.24 238.06 542.242H238.074Z" fill="#F05F9C" style="mix-blend-mode:multiply"/>
</g>
<defs>
<clipPath id="clip0_1_276256">
<rect width="614.809" height="607" fill="white"/>
</clipPath>
</defs>
</svg>
