<svg width="552" height="728" viewBox="0 0 552 728" fill="none" xmlns="http://www.w3.org/2000/svg">
<path d="M304.709 184.191H403.544" stroke="url(#paint0_linear_1_138471)" stroke-width="5.31595" stroke-miterlimit="10"/>
<path d="M520.249 184.191H387.99" stroke="url(#paint1_linear_1_138471)" stroke-width="5.31595" stroke-miterlimit="10"/>
<path d="M390.75 283.622V197.185" stroke="url(#paint2_linear_1_138471)" stroke-width="5.31595" stroke-miterlimit="10"/>
<path d="M478.398 260.06L413.912 195.596" stroke="url(#paint3_linear_1_138471)" stroke-width="5.31595" stroke-miterlimit="10"/>
<path d="M478.402 104.395L403.15 179.646" stroke="url(#paint4_linear_1_138471)" stroke-width="5.31595" stroke-miterlimit="10"/>
<path d="M390.75 55.9922L403.149 179.647" stroke="url(#paint5_linear_1_138471)" stroke-width="5.31595" stroke-miterlimit="10"/>
<path d="M304.709 104.395L396.948 179.734" stroke="url(#paint6_linear_1_138471)" stroke-width="5.31595" stroke-miterlimit="10"/>
<path d="M240.979 208.767L183.244 262.729" stroke="url(#paint7_linear_1_138471)" stroke-width="5.31595" stroke-miterlimit="10"/>
<path d="M80.4121 164.578L177.659 260.06" stroke="url(#paint8_linear_1_138471)" stroke-width="5.31595" stroke-miterlimit="10"/>
<path d="M49.7246 274.467L170.555 268.466" stroke="url(#paint9_linear_1_138471)" stroke-width="5.31595" stroke-miterlimit="10"/>
<path d="M114.74 343.784L170.556 279.629" stroke="url(#paint10_linear_1_138471)" stroke-width="5.31595" stroke-miterlimit="10"/>
<path d="M185.384 351.858L183.244 283.622" stroke="url(#paint11_linear_1_138471)" stroke-width="5.31595" stroke-miterlimit="10"/>
<path d="M183.244 164.578V262.73" stroke="url(#paint12_linear_1_138471)" stroke-width="5.31595" stroke-miterlimit="10"/>
<path d="M324.304 615.36C323.091 531.527 321.26 363.375 325.098 298.315C330.018 214.482 385.547 197.847 387.929 197.186L386.495 192.067L385.061 186.905C382.392 187.633 319.848 205.988 314.465 297.698C310.626 363.022 312.435 531.549 313.67 615.382L324.304 615.36Z" fill="url(#paint13_linear_1_138471)"/>
<path d="M247.375 474.608V615.36H258.119V474.608C258.119 437.854 216.555 414.645 214.79 413.675L209.584 423.029C209.981 423.249 247.375 444.097 247.375 474.608Z" fill="url(#paint14_linear_1_138471)"/>
<path d="M268.177 388.635C271.111 431.478 269.633 556.302 268.706 615.36H279.384C280.288 556.015 281.767 431.081 278.832 387.907C277.134 363.022 263.213 337.386 238.614 313.78C227.462 303.055 215.166 293.585 201.948 285.542L196.609 294.785C197.293 295.161 264.492 334.628 268.177 388.635Z" fill="url(#paint15_linear_1_138471)"/>
<path d="M343.828 615.36V428.169C343.828 372.861 371.316 364.963 372.507 364.654L369.97 354.307C368.47 354.66 333.172 363.882 333.172 428.169V615.36H343.828Z" fill="url(#paint16_linear_1_138471)"/>
<path d="M289.446 312.39V615.359H300.035V312.39C300.035 272.017 262.752 262.817 262.377 262.729L259.928 273.098C261.207 273.407 289.446 280.599 289.446 312.39Z" fill="url(#paint17_linear_1_138471)"/>
<path d="M127.994 182.276C133.427 159.058 119.01 135.833 95.7925 130.4C72.5752 124.967 49.3497 139.385 43.9169 162.602C38.4842 185.819 52.9015 209.045 76.1188 214.477C99.3361 219.91 122.562 205.493 127.994 182.276Z" fill="url(#paint18_linear_1_138471)"/>
<path d="M60.1813 299.439C73.9753 293.675 80.4845 277.82 74.72 264.026C68.9555 250.232 53.1002 243.723 39.3063 249.487C25.5123 255.252 19.0031 271.107 24.7676 284.901C30.5321 298.695 46.3873 305.204 60.1813 299.439Z" fill="url(#paint19_linear_1_138471)"/>
<path d="M114.742 366.684C127.389 366.684 137.641 356.431 137.641 343.784C137.641 331.137 127.389 320.884 114.742 320.884C102.094 320.884 91.8418 331.137 91.8418 343.784C91.8418 356.431 102.094 366.684 114.742 366.684Z" fill="url(#paint20_linear_1_138471)"/>
<path d="M202.324 351.857C202.324 355.206 201.332 358.479 199.473 361.264C197.614 364.048 194.972 366.22 191.88 367.504C188.788 368.789 185.384 369.128 182.1 368.48C178.815 367.831 175.796 366.224 173.423 363.861C171.051 361.498 169.432 358.485 168.771 355.203C168.11 351.921 168.436 348.516 169.708 345.419C170.981 342.322 173.142 339.671 175.919 337.802C178.697 335.932 181.966 334.927 185.315 334.914C187.545 334.905 189.755 335.337 191.819 336.185C193.882 337.032 195.758 338.279 197.338 339.853C198.918 341.427 200.172 343.298 201.028 345.358C201.883 347.418 202.324 349.627 202.324 351.857Z" fill="url(#paint21_linear_1_138471)"/>
<path d="M219.785 172.563C224.193 153.56 212.362 134.582 193.36 130.174C174.357 125.766 155.38 137.597 150.972 156.6C146.564 175.602 158.395 194.58 177.397 198.988C196.399 203.396 215.377 191.565 219.785 172.563Z" fill="url(#paint22_linear_1_138471)"/>
<path d="M336.671 109.616C339.549 91.9631 327.572 75.319 309.918 72.4408C292.265 69.5626 275.621 81.5403 272.743 99.1936C269.864 116.847 281.842 133.491 299.495 136.369C317.149 139.247 333.793 127.27 336.671 109.616Z" fill="url(#paint23_linear_1_138471)"/>
<path d="M422.661 63.1113C426.584 45.4857 415.477 28.0167 397.851 24.093C380.226 20.1694 362.757 31.277 358.833 48.9026C354.909 66.5281 366.017 83.9971 383.642 87.9208C401.268 91.8444 418.737 80.7368 422.661 63.1113Z" fill="url(#paint24_linear_1_138471)"/>
<path d="M499.533 111.683C502.393 99.0724 494.489 86.531 481.878 83.6709C469.268 80.8107 456.726 88.715 453.866 101.326C451.006 113.936 458.91 126.478 471.521 129.338C484.131 132.198 496.673 124.293 499.533 111.683Z" fill="url(#paint25_linear_1_138471)"/>
<path d="M520.253 215.585C537.591 215.585 551.646 201.53 551.646 184.192C551.646 166.854 537.591 152.798 520.253 152.798C502.915 152.798 488.859 166.854 488.859 184.192C488.859 201.53 502.915 215.585 520.253 215.585Z" fill="url(#paint26_linear_1_138471)"/>
<path d="M494.378 277.322C503.917 268.489 504.489 253.595 495.656 244.056C486.823 234.517 471.93 233.945 462.391 242.778C452.852 251.612 452.28 266.505 461.113 276.044C469.946 285.583 484.839 286.155 494.378 277.322Z" fill="url(#paint27_linear_1_138471)"/>
<path d="M390.752 316.317C408.809 316.317 423.447 301.679 423.447 283.622C423.447 265.565 408.809 250.927 390.752 250.927C372.695 250.927 358.057 265.565 358.057 283.622C358.057 301.679 372.695 316.317 390.752 316.317Z" fill="url(#paint28_linear_1_138471)"/>
<path d="M320.984 190.77C323.113 181.783 317.554 172.772 308.567 170.642C299.58 168.513 290.569 174.072 288.44 183.059C286.31 192.046 291.869 201.057 300.856 203.186C309.843 205.316 318.854 199.757 320.984 190.77Z" fill="url(#paint29_linear_1_138471)"/>
<path d="M260.877 208.768C260.877 212.695 259.712 216.534 257.53 219.799C255.349 223.064 252.248 225.609 248.62 227.112C244.992 228.615 240.999 229.008 237.148 228.242C233.296 227.476 229.758 225.585 226.982 222.808C224.205 220.031 222.314 216.493 221.548 212.642C220.781 208.79 221.175 204.798 222.677 201.17C224.18 197.542 226.725 194.441 229.99 192.259C233.256 190.077 237.094 188.913 241.021 188.913C246.287 188.913 251.338 191.005 255.061 194.728C258.785 198.452 260.877 203.502 260.877 208.768Z" fill="url(#paint30_linear_1_138471)"/>
<path d="M384.903 359.601C384.903 362.315 384.099 364.968 382.591 367.225C381.083 369.481 378.94 371.24 376.432 372.279C373.925 373.317 371.166 373.589 368.504 373.06C365.842 372.53 363.397 371.223 361.478 369.304C359.559 367.385 358.252 364.94 357.723 362.278C357.193 359.616 357.465 356.857 358.504 354.35C359.542 351.842 361.301 349.699 363.558 348.192C365.814 346.684 368.467 345.879 371.181 345.879C374.821 345.879 378.311 347.325 380.884 349.898C383.458 352.471 384.903 355.962 384.903 359.601Z" fill="url(#paint31_linear_1_138471)"/>
<path d="M403.548 228.667C428.111 228.667 448.024 208.754 448.024 184.191C448.024 159.627 428.111 139.715 403.548 139.715C378.985 139.715 359.072 159.627 359.072 184.191C359.072 208.754 378.985 228.667 403.548 228.667Z" fill="url(#paint32_linear_1_138471)"/>
<path d="M199.567 308.44C221.641 299.423 232.226 274.219 223.208 252.145C214.191 230.071 188.987 219.487 166.913 228.504C144.84 237.521 134.255 262.725 143.272 284.799C152.289 306.873 177.493 317.457 199.567 308.44Z" fill="url(#paint33_linear_1_138471)"/>
<path d="M272.648 279.307C278.946 273.009 278.946 262.798 272.648 256.5C266.35 250.202 256.139 250.202 249.841 256.5C243.543 262.798 243.543 273.009 249.841 279.307C256.139 285.605 266.35 285.605 272.648 279.307Z" fill="url(#paint34_linear_1_138471)"/>
<path d="M212.161 437.059C222.493 437.059 230.869 428.683 230.869 418.351C230.869 408.019 222.493 399.643 212.161 399.643C201.829 399.643 193.453 408.019 193.453 418.351C193.453 428.683 201.829 437.059 212.161 437.059Z" fill="url(#paint35_linear_1_138471)"/>
<path d="M103.091 163.652C102.59 163.797 102.069 163.864 101.547 163.851V163.696C102.804 162.709 103.866 161.497 104.68 160.122C104.68 159.725 104.68 159.571 104.68 159.571L102.054 160.674L99.8482 161.667C99.0241 160.819 98.0354 160.149 96.9427 159.697C95.8501 159.246 94.6767 159.022 93.4946 159.041C91.452 158.914 89.4417 159.598 87.9008 160.945C86.3598 162.291 85.4128 164.192 85.2656 166.233C85.263 167.148 85.3742 168.059 85.5966 168.947C82.0901 168.661 78.6804 167.655 75.5807 165.991C68.9622 162.637 68.5651 160.321 68.5651 160.321C67.9291 161.475 67.5523 162.754 67.4609 164.068C67.3694 165.382 67.5656 166.701 68.0356 167.932C68.745 169.309 69.7738 170.497 71.036 171.396C70.2862 171.4 69.5407 171.281 68.8299 171.043C68.2881 170.898 67.7789 170.65 67.3297 170.315C66.6899 171.881 67.9915 174.727 70.2197 176.69C71.3149 177.545 72.5556 178.196 73.8819 178.61L70.2859 178.698C70.0874 182.294 77.853 184.434 77.853 184.434C75.6547 186.22 72.9195 187.215 70.0874 187.258C68.6533 187.254 67.2271 187.046 65.8516 186.64C69.6702 189.95 74.5883 191.713 79.64 191.582C93.5387 190.854 101.37 178.919 101.701 167.314C102.461 166.837 103.151 166.258 103.753 165.593C104.619 164.688 105.36 163.671 105.959 162.571C105.959 162.571 103.974 163.409 103.091 163.652Z" fill="white"/>
<path d="M57.0265 290.041H44.5176C41.8475 290.041 39.2864 288.982 37.3963 287.096C35.5062 285.21 34.4414 282.651 34.4355 279.981V268.951C34.4414 266.278 35.5055 263.717 37.395 261.828C39.2845 259.938 41.8455 258.874 44.5176 258.868H57.0265C59.6986 258.874 62.2596 259.938 64.1491 261.828C66.0386 263.717 67.1027 266.278 67.1085 268.951V279.981C67.1027 282.651 66.0379 285.21 64.1478 287.096C62.2577 288.982 59.6966 290.041 57.0265 290.041ZM44.5176 261.119C42.4385 261.119 40.4441 261.943 38.9719 263.411C37.4996 264.879 36.6696 266.871 36.6638 268.951V279.981C36.6696 282.06 37.4996 284.052 38.9719 285.52C40.4441 286.989 42.4385 287.813 44.5176 287.813H57.0265C58.055 287.813 59.0734 287.61 60.0236 287.217C60.9738 286.823 61.8371 286.246 62.5644 285.519C63.2916 284.792 63.8685 283.929 64.2621 282.978C64.6557 282.028 64.8583 281.01 64.8583 279.981V268.951C64.8583 267.922 64.6557 266.904 64.2621 265.953C63.8685 265.003 63.2916 264.14 62.5644 263.413C61.8371 262.685 60.9738 262.108 60.0236 261.715C59.0734 261.321 58.055 261.119 57.0265 261.119H44.5176Z" fill="white"/>
<path d="M50.7427 283.424C48.9658 283.424 47.229 282.897 45.7519 281.909C44.2748 280.922 43.124 279.518 42.445 277.876C41.7661 276.234 41.5896 274.428 41.9378 272.685C42.2861 270.943 43.1434 269.343 44.4014 268.088C45.6593 266.833 47.2613 265.98 49.0045 265.636C50.7477 265.292 52.5538 265.473 54.1941 266.156C55.8344 266.839 57.2352 267.993 58.2192 269.473C59.2031 270.952 59.726 272.69 59.7217 274.467C59.7217 275.645 59.4893 276.812 59.0378 277.9C58.5862 278.988 57.9245 279.976 57.0904 280.808C56.2564 281.64 55.2664 282.3 54.1771 282.749C53.0879 283.197 51.9208 283.427 50.7427 283.424ZM50.7427 267.738C49.4337 267.738 48.154 268.127 47.0657 268.854C45.9773 269.581 45.129 270.615 44.628 271.824C44.1271 273.033 43.996 274.364 44.2514 275.648C44.5068 276.932 45.1371 278.111 46.0627 279.037C46.9883 279.962 48.1676 280.593 49.4515 280.848C50.7353 281.103 52.0661 280.972 53.2754 280.471C54.4848 279.971 55.5184 279.122 56.2457 278.034C56.9729 276.945 57.3611 275.666 57.3611 274.357C57.3272 272.612 56.619 270.948 55.3851 269.714C54.1512 268.48 52.4874 267.772 50.7427 267.738Z" fill="white"/>
<path d="M61.4633 265.774C61.4633 266.146 61.3528 266.509 61.1457 266.818C60.9387 267.127 60.6445 267.367 60.3005 267.508C59.9566 267.65 59.5784 267.685 59.2141 267.611C58.8497 267.537 58.5157 267.356 58.2543 267.092C57.993 266.827 57.8161 266.491 57.7463 266.126C57.6764 265.761 57.7167 265.383 57.862 265.041C58.0074 264.699 58.2512 264.407 58.5624 264.204C58.8737 264 59.2384 263.894 59.6102 263.899C60.1037 263.904 60.575 264.104 60.9219 264.456C61.2688 264.807 61.4634 265.28 61.4633 265.774Z" fill="white"/>
<path d="M187.103 182.625V166.167H192.618L193.457 159.747H187.103V155.644C187.103 153.79 187.611 152.533 190.28 152.533H193.677V146.797C192.037 146.611 190.387 146.523 188.736 146.532C187.611 146.453 186.482 146.62 185.428 147.022C184.375 147.424 183.421 148.052 182.636 148.861C181.85 149.67 181.25 150.641 180.879 151.706C180.507 152.77 180.373 153.904 180.485 155.026V159.747H174.947V166.167H180.485V182.625H187.103Z" fill="white"/>
<path d="M304.737 120.169C301.693 120.162 298.703 119.356 296.067 117.83L289.317 120.169L290.706 112.999C288.53 110.047 287.362 106.473 287.375 102.806C287.375 99.3725 288.393 96.0157 290.301 93.1604C292.209 90.3052 294.921 88.0798 298.093 86.7657C301.266 85.4516 304.757 85.1078 308.125 85.7777C311.493 86.4476 314.586 88.1012 317.015 90.5294C319.443 92.9576 321.096 96.0513 321.766 99.4192C322.436 102.787 322.092 106.278 320.778 109.451C319.464 112.623 317.239 115.335 314.383 117.243C311.528 119.151 308.171 120.169 304.737 120.169ZM296.398 114.984L296.906 115.315C300.028 117.252 303.762 117.949 307.373 117.269C310.984 116.588 314.208 114.58 316.411 111.639C318.614 108.699 319.635 105.039 319.273 101.383C318.911 97.7267 317.193 94.3387 314.456 91.8869C311.72 89.4351 308.164 88.0976 304.49 88.138C300.816 88.1785 297.291 89.5939 294.609 92.1053C291.927 94.6167 290.283 98.0417 290.002 101.705C289.721 105.369 290.822 109.004 293.089 111.896L293.464 112.359L292.692 116.264L296.398 114.984Z" fill="white"/>
<path d="M295.974 96.1443C295.974 96.1443 296.989 94.3573 297.805 94.269C298.621 94.1808 299.702 94.269 300.011 94.7103C300.32 95.1515 301.578 98.3945 301.578 98.3945C301.656 98.5638 301.697 98.7483 301.697 98.935C301.697 99.1218 301.656 99.3063 301.578 99.4755C301.236 99.9242 300.868 100.352 300.474 100.755C300.351 100.917 300.284 101.114 300.284 101.318C300.284 101.521 300.351 101.719 300.474 101.88C301.187 102.948 302 103.945 302.901 104.859C304.08 105.862 305.423 106.653 306.872 107.197C306.983 107.208 307.095 107.196 307.202 107.162C307.308 107.128 307.406 107.072 307.49 106.998C307.733 106.778 309.012 105.167 309.012 105.167C309.146 105.015 309.327 104.91 309.526 104.871C309.726 104.831 309.933 104.857 310.115 104.947C310.799 105.256 313.778 106.734 313.778 106.734C313.896 106.795 313.994 106.892 314.057 107.01C314.12 107.128 314.146 107.263 314.131 107.396C314.121 108.179 313.892 108.943 313.469 109.602C313.014 110.122 312.459 110.547 311.838 110.85C311.217 111.153 310.541 111.329 309.851 111.367C306.568 110.99 303.485 109.602 301.026 107.396C298.759 105.483 297.007 103.033 295.93 100.27C295.268 98.0857 295.334 97.0708 295.974 96.1443Z" fill="white"/>
<path d="M266.741 266.237C267.734 261.252 265.131 260.016 265.131 260.016C264.14 259.474 263.022 259.206 261.894 259.241C260.765 259.276 259.666 259.612 258.711 260.215C253.681 264.23 257.078 267.385 257.078 267.385L256.615 269.392C256.615 269.392 252.445 268.686 253.99 262.95C255.534 257.214 263.719 256.045 266.454 258.097L266.851 258.362C267.693 258.85 268.428 259.502 269.014 260.28C269.599 261.058 270.022 261.945 270.259 262.889C270.495 263.833 270.54 264.815 270.391 265.776C270.241 266.738 269.9 267.66 269.388 268.488C269.388 268.488 265.792 275.106 260.564 270.694L259.593 274.577L257.696 277.401L256.88 273.871L258.689 266.789C258.374 265.972 258.303 265.081 258.483 264.223C258.663 263.366 259.087 262.579 259.704 261.958C259.893 261.782 260.126 261.66 260.378 261.606C260.63 261.552 260.893 261.566 261.137 261.649C261.667 261.825 262.196 262.355 262.174 263.7C261.924 265.133 261.555 266.542 261.071 267.914C261.071 267.914 261.645 271.312 264.888 269.304C265.807 268.497 266.454 267.426 266.741 266.237Z" fill="white"/>
<path d="M114.828 337.651C115.414 338.482 115.716 339.48 115.689 340.497C115.736 341.482 115.431 342.452 114.828 343.233C114.43 343.673 113.951 344.032 113.416 344.291C114.316 344.57 115.094 345.145 115.623 345.924C116.126 346.746 116.379 347.696 116.351 348.66C116.344 349.515 116.142 350.357 115.759 351.122C115.377 351.886 114.824 352.554 114.144 353.072C113.492 353.55 112.736 353.867 111.938 353.999C111.075 354.182 110.195 354.271 109.313 354.263H100.93V335.643H109.931C110.848 335.56 111.772 335.699 112.625 336.048C113.478 336.398 114.233 336.948 114.828 337.651ZM104.724 338.908V343.012H109.247C109.932 343.046 110.613 342.885 111.21 342.549C111.474 342.371 111.685 342.126 111.821 341.839C111.957 341.551 112.013 341.232 111.982 340.916C112.028 340.557 111.953 340.194 111.769 339.882C111.585 339.571 111.303 339.329 110.968 339.195C110.253 338.979 109.508 338.882 108.761 338.908H104.724ZM104.724 346.078V351.042H109.247C109.889 351.075 110.53 350.962 111.122 350.711C111.536 350.493 111.875 350.156 112.096 349.743C112.316 349.33 112.407 348.86 112.358 348.395C112.395 347.98 112.3 347.565 112.086 347.208C111.872 346.851 111.55 346.571 111.166 346.409C110.578 346.172 109.947 346.059 109.313 346.078H104.724Z" fill="white"/>
<path d="M126.699 340.805C127.597 341.251 128.359 341.929 128.905 342.769C129.449 343.603 129.81 344.543 129.964 345.526C130.032 346.4 130.032 347.278 129.964 348.152H120.478C120.452 348.698 120.567 349.242 120.81 349.733C121.053 350.223 121.417 350.643 121.868 350.954C122.442 351.311 123.111 351.488 123.787 351.461C124.503 351.48 125.201 351.237 125.75 350.777C126.047 350.528 126.287 350.22 126.456 349.872H130.008C129.84 350.792 129.384 351.634 128.707 352.277C128.061 352.937 127.283 353.451 126.423 353.786C125.563 354.121 124.642 354.268 123.721 354.219C122.019 354.238 120.364 353.66 119.044 352.586C118.318 351.912 117.757 351.08 117.405 350.154C117.053 349.228 116.919 348.233 117.014 347.247C116.947 346.287 117.075 345.323 117.389 344.413C117.704 343.503 118.199 342.666 118.845 341.952C119.47 341.359 120.209 340.897 121.016 340.593C121.823 340.29 122.683 340.152 123.544 340.188C124.628 340.165 125.704 340.376 126.699 340.805ZM121.493 343.806C120.977 344.376 120.653 345.093 120.566 345.857H126.545C126.561 345.446 126.489 345.036 126.332 344.656C126.176 344.275 125.94 343.933 125.64 343.651C125.053 343.179 124.319 342.929 123.566 342.945C123.18 342.935 122.795 343.007 122.438 343.155C122.081 343.303 121.759 343.525 121.493 343.806Z" fill="white"/>
<path d="M128.089 336.282H119.088V339.084H128.089V336.282Z" fill="white"/>
<path d="M513.371 176.712H506.885V197.273H513.371V176.712Z" fill="white"/>
<path d="M510.129 173.889C512.224 173.889 513.923 172.19 513.923 170.094C513.923 167.998 512.224 166.3 510.129 166.3C508.033 166.3 506.334 167.998 506.334 170.094C506.334 172.19 508.033 173.889 510.129 173.889Z" fill="white"/>
<path fill-rule="evenodd" clip-rule="evenodd" d="M530.934 175.963C529.626 175.854 528.313 176.082 527.119 176.627C525.925 177.172 524.891 178.014 524.117 179.073V176.713H517.631V197.274H524.117V185.118C524.117 185.118 524.668 181.522 527.735 181.522C530.802 181.522 531.309 184.832 531.309 185.758V197.362H537.795V185.118C537.795 181.213 536.317 175.963 530.934 175.963Z" fill="white"/>
<path d="M217.505 253.707H215.563L214.549 252.67L214.306 250.949L213.313 251.545L212.85 253.751L211.372 252.251L211.239 250.817L209.827 249.648L209.298 249.162H207.665L208.239 250.596L210.225 251.611L210.555 251.964L210.158 252.185V253.332L209.232 253.751L208.416 253.597L207.886 252.913H209.21L209.541 252.405L206.562 250.552L206.298 249.714L205.15 250.839L203.937 250.618L202.194 253.067L201.863 254.016L200.694 254.148H198.973L197.936 253.707L197.561 251.655L197.892 250.662L199.635 250.221L201.576 250.552L201.775 249.471L200.937 249.317L201.157 247.64L203.077 247.265L204.378 245.323L205.768 245.037L207.026 245.191H207.489L207.18 243.404L205.658 244.066L205.084 242.764H204.18L204.003 241.86L204.687 241.044L206.386 240.316L206.805 239.499C199.818 233.722 190.959 230.701 181.898 231.006C174.008 231.272 166.406 234.038 160.189 238.904H162.064L162.925 239.345L164.513 239.632L164.668 240.249H167.183L166.808 239.455H164.601L165.109 238.948L164.91 238.352H162.881L165.087 236.631H167.183L168.242 237.977H169.874L170.845 236.984L171.595 237.337L170.271 238.705H168.462C168.589 239.128 168.663 239.565 168.683 240.007L170.889 239.852L171.11 239.235L172.698 239.08L172.852 238.131H171.904L172.191 237.293L172.897 237.05H175.39L174.044 238.352L174.309 239.301L175.743 239.477L175.588 237.734L176.934 236.984L179.339 236.609L182.184 237.756L182.913 238.043V239.389L184.038 239.632L183.508 240.691H182.251H181.942L181.501 241.926L177.86 241.176L180.64 239.565L179.537 238.683L177.088 239.08L176.89 239.301L176.206 240.073L175.037 240.205V240.801L175.456 240.955V241.132L174.529 241.308V241.86H173.625L173.426 240.779L171.816 241.33L168.551 243.382L168.97 244.75L169.918 245.323L171.794 245.522V247.728L172.654 247.552L173.382 245.875L175.345 245.191V242.654L176.426 241.772L179.118 242.323L178.986 244H179.692L181.611 242.963L181.787 245.169L182.449 245.544L183.243 245.985V247.287L182.537 247.552V248.478L183.618 248.942V249.824H183.155L182.582 249.67L181.037 249.25V248.589L181.633 248.147V247.552L180.905 247.53L180.75 248.103L179.603 248.302H179.493H179.096L178.765 247.662L178.39 247.508H177.574L177.199 247.816V248.5L177.905 248.699H178.611H178.456L177.838 249.427L177.552 249.074L176.956 248.942L175.345 250.552L175.566 250.729L173.161 252.163L170.955 254.633L170.823 255.692L168.617 257.303L167.514 258.472L167.734 260.678L166.124 259.994V258.649L161.711 258.803L159.505 260.038L158.579 261.892L158.226 263.348L158.91 264.738L160.719 264.892L163.52 262.884L163.807 263.833L162.969 265.51L165.175 265.797L165.506 269.15L168.484 269.569L170.315 267.363L172.522 267.738L173.36 268.841L175.566 268.642V267.981L176.779 268.532L178.235 270.628H180.596L181.523 272.106L181.699 273.959L183.398 274.555L184.346 274.864H187.634L188.648 276.408L190.127 276.827L189.884 278.151L188.34 280.225L188.053 284.637L186.641 285.828H184.435L183.751 287.086L184.369 289.292L183.861 289.998L182.14 292.358L181.434 293.748L179.228 294.896L177.772 295.16V295.778L178.787 296.043V296.705L177.882 297.631L178.478 298.315H179.581V299.175L179.294 300.036V300.72L180.971 302.021L180.795 302.749H178.588L176.382 300.896L174.573 297.918L174.706 294.984L173.338 293.285L173.779 290.329L172.985 290.13L172.764 283.732C172.764 283.732 170.558 282.166 170.426 282.166C170.293 282.166 169.256 281.923 169.256 281.923L169.014 280.732L166.058 277.291L166.3 275.989V273.915L168.198 272.481L167.845 270.275H164.977L162.77 267.804L161.182 267.429L160.145 267.275V266.326L158.843 266.194V266.944L155.556 266.238L154.166 264.274L154.674 263.281L152.468 260.347L152.049 258.141H151.21L151.563 260.347L153.063 262.553L152.931 263.436L151.718 263.281L150.019 260.722V257.766L148.453 257.082V254.876C146.237 260.635 145.482 266.853 146.256 272.974C147.03 279.096 149.308 284.93 152.888 289.956C156.467 294.982 161.236 299.043 166.768 301.776C172.3 304.509 178.423 305.829 184.589 305.617C190.129 305.418 195.555 303.989 200.474 301.432C205.392 298.875 209.68 295.256 213.026 290.836H211.791V288.365L210.291 286.49V283.512L209.166 282.453L209.033 281.217L210.313 278.526L207.379 274.158L207.577 271.025L205.172 270.849L204.29 270.01H202.702L201.907 270.782H199.128V271.025H197.583L193.877 267.076V263.899L194.451 263.657L194.649 262.443H193.811L193.414 261.164L197.451 258.053V255.847L199.437 254.655H200.253H201.929L203.209 253.927L207.379 253.442V255.648L210.71 256.376L211.372 256.84H211.791V255.913L213.688 255.648L215.541 256.95H218.52L218.718 256.751C218.375 255.713 217.97 254.696 217.505 253.707ZM199.525 243.669L199.834 243.117L201.047 242.831L201.422 244.309L202.106 245.346L202.547 245.831L203.341 246.118L202.635 247.022L201.201 247.221H200.12V245.941L201.025 245.721L200.915 245.125L200.054 244.618L199.459 244.242L199.525 243.669ZM197.561 246.074L198.289 244.838L199.282 244.573L200.01 244.86V245.676L198.51 246.802H197.65L197.561 246.074ZM178.125 250.486H179.206L179.405 249.89H179.824H180.309L180.133 250.309H179.603V250.839L179.228 251.104H178.566C178.555 251.016 178.555 250.927 178.566 250.839H178.302L178.125 250.486ZM176.669 251.523V250.993L177 250.53L177.485 250.883V251.435L176.669 251.523Z" fill="white"/>
<path d="M406.748 180.573L412.109 178.367L410.852 172.079L405.248 172.521C404.55 171.041 403.635 169.673 402.535 168.461L404.741 163.321L399.314 159.769L395.696 164.005C394.155 163.513 392.548 163.26 390.93 163.255L388.724 158.048L382.459 159.306L382.922 165.064C381.558 165.743 380.301 166.62 379.194 167.667L373.745 165.461L370.193 170.8L374.848 174.771C374.424 176.13 374.186 177.54 374.142 178.963L368.428 181.257L369.685 187.544L376.061 187.015C376.654 188.207 377.395 189.318 378.267 190.324L375.796 196.347L381.135 199.899L385.305 194.979C386.574 195.41 387.894 195.677 389.232 195.773L391.68 201.708L397.968 200.473L397.461 194.141C398.742 193.562 399.943 192.821 401.035 191.935L406.726 194.141L410.344 188.912L405.932 185.074C406.413 183.619 406.688 182.104 406.748 180.573ZM392.695 189.508C390.704 189.959 388.623 189.81 386.717 189.078C384.81 188.347 383.164 187.067 381.985 185.4C380.806 183.733 380.147 181.754 380.093 179.713C380.039 177.671 380.591 175.66 381.68 173.933C382.769 172.205 384.345 170.84 386.21 170.008C388.075 169.177 390.145 168.917 392.157 169.262C394.17 169.607 396.035 170.54 397.517 171.945C398.999 173.35 400.031 175.162 400.483 177.154C400.786 178.476 400.825 179.846 400.597 181.184C400.37 182.521 399.88 183.801 399.156 184.949C398.433 186.097 397.489 187.091 396.381 187.873C395.272 188.655 394.019 189.211 392.695 189.508Z" fill="white"/>
<path d="M435.714 183.794L439.486 182.802L439.221 178.389L435.427 178.191C435.099 177.139 434.616 176.143 433.993 175.234L435.868 171.991L432.647 169.145L429.845 171.66C428.859 171.165 427.802 170.823 426.712 170.646L425.786 167.094L421.484 167.381L421.285 171.263C420.3 171.611 419.37 172.101 418.528 172.719L415.086 170.712L412.24 173.955L414.998 177.021C414.596 177.891 414.314 178.812 414.159 179.757L410.078 180.838L410.365 185.25L414.667 185.493C414.981 186.341 415.396 187.149 415.902 187.898L413.696 191.648L416.961 194.384L420.182 191.494C420.998 191.886 421.857 192.182 422.741 192.376L423.844 196.546L428.257 196.281L428.455 192.067C429.373 191.781 430.249 191.373 431.059 190.854L434.655 192.928L437.324 189.729L434.61 186.728C435.125 185.812 435.497 184.823 435.714 183.794ZM425.565 188.537C424.201 188.656 422.831 188.369 421.629 187.712C420.427 187.055 419.446 186.058 418.809 184.845C418.172 183.632 417.908 182.258 418.05 180.896C418.191 179.533 418.733 178.243 419.605 177.187C420.478 176.131 421.644 175.357 422.955 174.961C424.267 174.565 425.666 174.566 426.977 174.964C428.288 175.361 429.452 176.137 430.324 177.194C431.195 178.251 431.735 179.542 431.875 180.904C431.966 181.82 431.875 182.746 431.606 183.627C431.338 184.507 430.898 185.326 430.311 186.036C429.724 186.746 429.003 187.332 428.188 187.761C427.374 188.191 426.482 188.455 425.565 188.537Z" fill="white"/>
<path d="M416.829 206.098L419.432 205.878L419.763 202.988L417.27 202.414C417.177 201.652 416.969 200.908 416.652 200.208L418.285 198.267L416.454 196.061L414.248 197.406C413.653 196.958 412.99 196.608 412.284 196.369L412.064 193.832L409.174 193.523L408.6 196.061C407.903 196.187 407.228 196.41 406.592 196.722L404.541 195.002L402.334 196.811L403.791 199.171C403.427 199.707 403.131 200.284 402.908 200.892L400.084 201.135L399.775 204.025L402.599 204.664C402.702 205.268 402.887 205.855 403.151 206.407L401.254 208.613L403.063 210.82L405.533 209.253C406.033 209.611 406.574 209.907 407.144 210.136L407.387 213.048L410.277 213.357L410.916 210.599C411.553 210.511 412.176 210.34 412.77 210.092L414.976 211.879L417.182 210.07L415.748 207.863C416.191 207.33 416.555 206.736 416.829 206.098ZM409.527 208.062C408.607 207.98 407.731 207.628 407.011 207.05C406.291 206.472 405.758 205.694 405.48 204.813C405.201 203.932 405.19 202.989 405.447 202.102C405.704 201.215 406.218 200.424 406.924 199.828C407.63 199.233 408.496 198.859 409.414 198.756C410.331 198.652 411.259 198.822 412.08 199.245C412.902 199.668 413.579 200.325 414.028 201.132C414.476 201.939 414.675 202.861 414.601 203.782C414.494 205.022 413.9 206.169 412.949 206.971C411.997 207.774 410.767 208.166 409.527 208.062Z" fill="white"/>
<path d="M465.21 114.72H491.441C491.845 114.72 492.232 114.559 492.518 114.274C492.803 113.988 492.964 113.601 492.964 113.197V95.107C492.964 94.7032 492.803 94.3161 492.518 94.0306C492.232 93.7451 491.845 93.5847 491.441 93.5847H465.21C465.009 93.5847 464.809 93.6248 464.623 93.7027C464.437 93.7805 464.268 93.8946 464.126 94.0383C463.984 94.182 463.873 94.3525 463.798 94.5397C463.722 94.7269 463.685 94.9273 463.688 95.129V113.153C463.682 113.357 463.717 113.56 463.791 113.749C463.865 113.939 463.976 114.112 464.118 114.258C464.26 114.404 464.43 114.52 464.617 114.6C464.805 114.679 465.007 114.72 465.21 114.72ZM474.322 103.292L465.188 112.337V96.4306L474.322 103.292ZM491.64 96.541V111.653L483.036 103.115L491.64 96.541ZM481.889 103.976L491.155 113.153H466.269L475.381 104.108L478.05 106.116C478.179 106.209 478.332 106.263 478.491 106.27C478.644 106.262 478.79 106.208 478.911 106.116L481.889 103.976ZM491.287 94.9967L478.58 104.726L465.497 94.9967H491.287Z" fill="white"/>
<path d="M178.364 357.064H179.048V359.954C179.048 360.042 179.072 360.128 179.119 360.202C179.166 360.276 179.233 360.336 179.312 360.373C179.384 360.395 179.461 360.395 179.533 360.373C179.62 360.392 179.711 360.392 179.798 360.373L184.453 357.086H188.865L191.071 358.564C191.158 358.586 191.249 358.586 191.336 358.564C191.408 358.584 191.484 358.584 191.557 358.564C191.632 358.524 191.694 358.463 191.737 358.389C191.78 358.315 191.801 358.231 191.799 358.145V355.409H192.593C193.143 355.36 193.655 355.106 194.027 354.697C194.398 354.289 194.603 353.756 194.601 353.203V347.07C194.601 346.81 194.549 346.552 194.447 346.312C194.345 346.072 194.197 345.855 194.009 345.673C193.822 345.492 193.6 345.351 193.357 345.257C193.113 345.164 192.854 345.12 192.593 345.129H181.982C181.45 345.123 180.934 345.309 180.528 345.654C180.123 345.998 179.855 346.478 179.776 347.004H178.386C178.116 346.97 177.841 346.993 177.58 347.071C177.32 347.149 177.078 347.28 176.87 347.456C176.663 347.633 176.494 347.85 176.375 348.095C176.256 348.34 176.19 348.607 176.18 348.879V355.012C176.219 355.566 176.465 356.086 176.87 356.466C177.275 356.846 177.808 357.06 178.364 357.064ZM180.702 347.07C180.702 346.453 181.364 346.055 181.982 346.055H192.483C192.623 346.043 192.763 346.06 192.895 346.106C193.028 346.151 193.149 346.225 193.251 346.32C193.353 346.416 193.434 346.533 193.488 346.662C193.542 346.791 193.568 346.93 193.564 347.07V353.203C193.573 353.512 193.467 353.813 193.268 354.049C193.068 354.285 192.789 354.44 192.483 354.483H191.226C191.103 354.483 190.985 354.532 190.898 354.619C190.811 354.705 190.762 354.823 190.762 354.946V357.263L186.791 354.571C186.706 354.537 186.611 354.537 186.527 354.571H181.982C181.652 354.541 181.344 354.397 181.11 354.163C180.876 353.929 180.732 353.621 180.702 353.292V347.07ZM177.195 348.879C177.208 348.74 177.25 348.605 177.316 348.481C177.382 348.358 177.472 348.249 177.581 348.161C177.69 348.073 177.815 348.007 177.949 347.967C178.084 347.928 178.225 347.915 178.364 347.931H179.754V353.203C179.781 353.78 180.022 354.325 180.43 354.733C180.838 355.142 181.383 355.383 181.96 355.409H186.372L187.387 356.115H184.298C184.205 356.083 184.104 356.083 184.012 356.115L179.974 358.983V356.49C179.969 356.369 179.918 356.255 179.833 356.169C179.747 356.083 179.632 356.033 179.511 356.027H178.342C178.041 356.033 177.75 355.921 177.532 355.715C177.313 355.508 177.184 355.224 177.172 354.924L177.195 348.879Z" fill="white"/>
<path d="M296.483 196.016H310.36C310.512 196.016 310.658 195.956 310.765 195.848C310.873 195.741 310.933 195.595 310.933 195.443C310.933 195.134 310.933 194.847 310.933 194.56H314.243C314.318 194.56 314.393 194.545 314.462 194.517C314.532 194.488 314.595 194.446 314.648 194.392C314.701 194.339 314.744 194.276 314.773 194.206C314.801 194.137 314.816 194.062 314.816 193.987C314.551 190.521 313.066 187.261 310.625 184.787C311.148 184.35 311.569 183.803 311.858 183.186C312.148 182.568 312.299 181.895 312.301 181.213C312.301 180.369 312.07 179.541 311.634 178.818C311.197 178.096 310.572 177.506 309.825 177.113C309.077 176.72 308.237 176.539 307.394 176.589C306.552 176.639 305.739 176.918 305.043 177.396C304.53 177.23 303.994 177.141 303.455 177.132C302.814 177.132 302.18 177.258 301.589 177.503C300.997 177.748 300.46 178.107 300.007 178.56C299.554 179.012 299.195 179.55 298.95 180.141C298.705 180.733 298.579 181.367 298.579 182.007C298.578 182.721 298.736 183.425 299.041 184.07C299.347 184.715 299.792 185.284 300.344 185.736C297.688 188.289 296.109 191.762 295.932 195.443C295.937 195.589 295.996 195.729 296.098 195.835C296.199 195.941 296.337 196.006 296.483 196.016ZM313.581 193.391H310.757C310.112 190.486 308.632 187.833 306.499 185.758C306.853 185.845 307.216 185.89 307.58 185.89C308.249 185.888 308.911 185.745 309.521 185.471C311.685 187.61 313.108 190.385 313.581 193.391ZM307.624 177.749C308.543 177.749 309.424 178.114 310.073 178.764C310.723 179.413 311.088 180.294 311.088 181.213C311.088 182.132 310.723 183.013 310.073 183.662C309.424 184.312 308.543 184.677 307.624 184.677H307.47C308.149 183.625 308.399 182.353 308.17 181.122C307.94 179.891 307.247 178.794 306.234 178.058C306.669 177.854 307.144 177.749 307.624 177.749ZM299.704 182.007C299.704 181.274 299.922 180.558 300.329 179.948C300.736 179.339 301.315 178.864 301.992 178.583C302.669 178.303 303.415 178.229 304.134 178.372C304.853 178.515 305.513 178.868 306.031 179.387C306.55 179.905 306.903 180.565 307.046 181.284C307.189 182.003 307.115 182.748 306.835 183.426C306.554 184.103 306.079 184.682 305.47 185.089C304.86 185.496 304.144 185.714 303.41 185.714C302.924 185.714 302.442 185.618 301.992 185.431C301.542 185.245 301.134 184.972 300.79 184.628C300.446 184.284 300.173 183.875 299.986 183.426C299.8 182.976 299.704 182.494 299.704 182.007ZM301.293 186.42C301.979 186.754 302.735 186.921 303.499 186.905C304.217 186.914 304.927 186.755 305.572 186.442C307.947 188.668 309.463 191.659 309.852 194.891H297.167C297.517 191.661 298.974 188.652 301.293 186.375V186.42Z" fill="white"/>
<path d="M375.884 61.0223H404.564C404.745 61.0223 404.919 60.9502 405.047 60.822C405.175 60.6937 405.247 60.5198 405.247 60.3384V44.1232C405.247 43.9418 405.175 43.7679 405.047 43.6396C404.919 43.5114 404.745 43.4393 404.564 43.4393H375.884C375.792 43.4364 375.701 43.4519 375.615 43.4849C375.53 43.518 375.452 43.5679 375.386 43.6317C375.32 43.6955 375.268 43.7719 375.232 43.8563C375.196 43.9408 375.178 44.0315 375.178 44.1232V60.3384C375.178 60.4301 375.196 60.5209 375.232 60.6053C375.268 60.6897 375.32 60.7661 375.386 60.8299C375.452 60.8937 375.53 60.9437 375.615 60.9767C375.701 61.0097 375.792 61.0252 375.884 61.0223ZM376.568 44.8292H403.902V59.5662H376.568V44.8292Z" fill="white"/>
<path d="M374.254 64.7279H386.653C386.499 66.0295 385.947 68.5887 384.778 69.3608H379.814C379.568 69.3608 379.333 69.4584 379.159 69.6322C378.985 69.806 378.887 70.0417 378.887 70.2874C378.887 70.5331 378.985 70.7688 379.159 70.9426C379.333 71.1164 379.568 71.214 379.814 71.214H401.125C401.371 71.214 401.607 71.1164 401.78 70.9426C401.954 70.7688 402.052 70.5331 402.052 70.2874C402.052 70.0417 401.954 69.806 401.78 69.6322C401.607 69.4584 401.371 69.3608 401.125 69.3608H396.713C395.544 68.5887 394.992 66.0295 394.838 64.7279H406.31C406.676 64.7308 407.038 64.661 407.377 64.5223C407.716 64.3836 408.023 64.179 408.282 63.9203C408.541 63.6616 408.745 63.354 408.884 63.0154C409.023 62.6768 409.092 62.314 409.089 61.9482V42.512C409.096 42.1348 409.025 41.7602 408.881 41.4115C408.737 41.0628 408.523 40.7474 408.252 40.4847C407.981 40.2221 407.659 40.0179 407.306 39.8846C406.953 39.7514 406.576 39.6921 406.199 39.7102H374.254C373.889 39.7102 373.528 39.7821 373.191 39.9218C372.853 40.0615 372.547 40.2663 372.289 40.5244C372.031 40.7825 371.826 41.089 371.686 41.4262C371.547 41.7635 371.475 42.1249 371.475 42.49V61.9261C371.472 62.293 371.542 62.6568 371.68 62.9966C371.818 63.3364 372.023 63.6455 372.281 63.906C372.539 64.1664 372.847 64.3732 373.186 64.5142C373.524 64.6553 373.888 64.7279 374.254 64.7279ZM394.11 69.3608H387.182C387.927 67.9199 388.377 66.3449 388.506 64.7279H392.918C393.044 66.3399 393.479 67.9128 394.198 69.3608H394.11ZM373.24 42.512C373.24 42.2663 373.337 42.0306 373.511 41.8568C373.685 41.6831 373.92 41.5855 374.166 41.5855H406.111C406.234 41.5824 406.356 41.6043 406.469 41.6498C406.583 41.6953 406.686 41.7635 406.773 41.8501C406.86 41.9368 406.928 42.0401 406.973 42.1539C407.019 42.2677 407.041 42.3895 407.038 42.512V61.9482C407.038 62.1939 406.94 62.4296 406.766 62.6034C406.593 62.7771 406.357 62.8747 406.111 62.8747H374.254C374.009 62.8747 373.773 62.7771 373.599 62.6034C373.425 62.4296 373.328 62.1939 373.328 61.9482L373.24 42.512Z" fill="white"/>
<path d="M481.427 269.149C481.427 268.577 481.257 268.019 480.94 267.543C480.622 267.068 480.171 266.698 479.643 266.479C479.114 266.26 478.533 266.203 477.973 266.315C477.412 266.426 476.897 266.701 476.493 267.106C476.089 267.51 475.814 268.025 475.702 268.585C475.59 269.146 475.648 269.727 475.866 270.255C476.085 270.783 476.456 271.235 476.931 271.552C477.406 271.87 477.965 272.039 478.537 272.039C479.303 272.039 480.038 271.735 480.58 271.193C481.122 270.651 481.427 269.916 481.427 269.149Z" fill="white"/>
<path d="M478.446 261.473C477.14 261.469 475.851 261.76 474.674 262.326C473.497 262.891 472.463 263.716 471.651 264.738C471.584 264.817 471.534 264.908 471.503 265.007C471.473 265.106 471.462 265.21 471.473 265.313C471.483 265.416 471.514 265.515 471.563 265.606C471.613 265.697 471.68 265.777 471.761 265.841C471.902 265.944 472.072 265.999 472.246 265.995C472.365 265.998 472.482 265.973 472.589 265.924C472.696 265.874 472.79 265.8 472.864 265.709C473.534 264.871 474.383 264.196 475.349 263.731C476.316 263.267 477.374 263.026 478.446 263.026C479.518 263.026 480.576 263.267 481.542 263.731C482.508 264.196 483.358 264.871 484.027 265.709C484.088 265.79 484.165 265.859 484.253 265.911C484.341 265.962 484.438 265.995 484.539 266.007C484.641 266.02 484.743 266.011 484.841 265.983C484.939 265.954 485.03 265.906 485.108 265.841C485.27 265.711 485.375 265.523 485.399 265.316C485.424 265.11 485.367 264.902 485.241 264.738C484.42 263.726 483.384 262.908 482.209 262.343C481.035 261.779 479.749 261.481 478.446 261.473Z" fill="white"/>
<path d="M478.288 255.229C476.213 255.244 474.168 255.726 472.304 256.639C470.441 257.551 468.806 258.872 467.522 260.502C467.396 260.679 467.341 260.896 467.365 261.112C467.389 261.328 467.492 261.527 467.654 261.671C467.719 261.732 467.796 261.778 467.879 261.809C467.963 261.839 468.051 261.852 468.14 261.848C468.261 261.834 468.377 261.793 468.48 261.728C468.583 261.663 468.67 261.576 468.736 261.473C469.876 260.027 471.326 258.857 472.98 258.047C474.633 257.238 476.447 256.81 478.288 256.796C480.123 256.802 481.933 257.221 483.583 258.023C485.233 258.825 486.681 259.989 487.819 261.429C487.878 261.511 487.953 261.582 488.039 261.635C488.126 261.689 488.222 261.725 488.322 261.742C488.423 261.758 488.526 261.754 488.625 261.731C488.724 261.707 488.817 261.665 488.9 261.605C489.063 261.471 489.168 261.279 489.193 261.069C489.217 260.859 489.16 260.648 489.032 260.48C487.749 258.855 486.118 257.54 484.258 256.631C482.398 255.723 480.358 255.243 478.288 255.229Z" fill="white"/>
<path d="M478.422 249.603C475.585 249.594 472.783 250.228 470.226 251.458C467.67 252.689 465.426 254.483 463.663 256.707C463.534 256.869 463.474 257.075 463.494 257.281C463.515 257.487 463.615 257.677 463.774 257.81C463.915 257.911 464.085 257.965 464.259 257.964C464.377 257.969 464.495 257.945 464.602 257.895C464.71 257.845 464.804 257.771 464.877 257.678C466.497 255.646 468.554 254.005 470.895 252.877C473.236 251.75 475.802 251.164 478.4 251.164C480.999 251.164 483.564 251.75 485.906 252.877C488.247 254.005 490.304 255.646 491.924 257.678C491.987 257.76 492.065 257.829 492.155 257.881C492.245 257.933 492.345 257.966 492.447 257.978C492.55 257.99 492.655 257.982 492.754 257.953C492.854 257.924 492.947 257.875 493.027 257.81C493.186 257.677 493.286 257.487 493.307 257.281C493.327 257.075 493.266 256.869 493.137 256.707C491.376 254.493 489.139 252.704 486.591 251.475C484.044 250.245 481.251 249.605 478.422 249.603Z" fill="white"/>
<path d="M396.798 280.798L388.282 276.54C388.137 276.508 387.986 276.508 387.841 276.54C387.256 276.54 386.695 276.772 386.281 277.186C385.867 277.6 385.635 278.161 385.635 278.746V287.902C385.635 288.487 385.867 289.048 386.281 289.462C386.695 289.875 387.256 290.108 387.841 290.108C387.986 290.141 388.137 290.141 388.282 290.108L396.908 285.828C397.407 285.652 397.841 285.331 398.155 284.907C398.47 284.482 398.65 283.973 398.673 283.445C398.691 282.86 398.518 282.285 398.179 281.807C397.841 281.329 397.356 280.975 396.798 280.798ZM396.004 283.864L387.642 287.99C387.51 287.99 387.422 287.835 387.422 287.769V278.614C387.422 278.614 387.422 278.437 387.642 278.371L395.96 282.519C396.423 282.739 396.688 282.982 396.688 283.18C396.688 283.379 396.688 283.511 396.004 283.864Z" fill="white"/>
<path d="M408.38 292.998V273.562C408.38 272.392 407.915 271.269 407.088 270.442C406.26 269.615 405.138 269.15 403.968 269.15H377.428C376.258 269.15 375.135 269.615 374.308 270.442C373.48 271.269 373.016 272.392 373.016 273.562V293.064C373.044 294.215 373.522 295.309 374.346 296.113C375.171 296.917 376.277 297.367 377.428 297.366H404.078C405.222 297.338 406.309 296.866 407.112 296.051C407.914 295.236 408.369 294.142 408.38 292.998ZM375.045 292.998V273.562C375.042 273.247 375.102 272.935 375.22 272.643C375.339 272.352 375.514 272.086 375.735 271.863C375.957 271.639 376.22 271.462 376.511 271.341C376.802 271.22 377.113 271.157 377.428 271.157H404.078C404.716 271.157 405.328 271.411 405.778 271.862C406.229 272.313 406.483 272.924 406.483 273.562V293.064C406.483 293.379 406.42 293.691 406.299 293.981C406.178 294.272 406.001 294.535 405.777 294.757C405.554 294.978 405.288 295.153 404.997 295.272C404.705 295.39 404.393 295.45 404.078 295.447H377.428C377.109 295.447 376.794 295.383 376.501 295.259C376.207 295.136 375.941 294.954 375.719 294.726C375.497 294.497 375.323 294.227 375.207 293.93C375.092 293.633 375.036 293.316 375.045 292.998Z" fill="white"/>
<path d="M216.028 411.336C215.298 411.337 214.576 411.492 213.91 411.793C213.245 412.093 212.651 412.532 212.167 413.079C211.683 412.532 211.089 412.093 210.424 411.793C209.758 411.492 209.036 411.337 208.306 411.336C206.925 411.336 205.601 411.884 204.625 412.861C203.648 413.837 203.1 415.161 203.1 416.542C203.09 417.712 203.514 418.844 204.291 419.719C204.644 420.16 205.041 420.579 205.46 421.021L205.747 421.307L208.35 423.933C208.77 424.352 209.211 424.771 209.63 425.212L210.91 426.514L211.836 427.463C211.926 427.57 212.051 427.64 212.189 427.661C212.318 427.634 212.435 427.564 212.52 427.463L213.535 426.382L215.366 424.551C216.182 423.734 216.976 422.918 217.793 422.124L218.322 421.594C219.131 421 219.808 420.244 220.31 419.375C220.811 418.505 221.126 417.54 221.234 416.542C221.234 415.161 220.686 413.837 219.709 412.861C218.733 411.884 217.409 411.336 216.028 411.336ZM217.638 420.91L217.109 421.44L214.682 423.867L212.851 425.698L212.189 426.382L211.593 425.808L210.314 424.506L209.034 423.227C208.174 422.388 207.291 421.506 206.453 420.646L206.144 420.337C205.747 419.918 205.35 419.52 205.041 419.123C204.414 418.41 204.069 417.492 204.071 416.542C204.065 415.642 204.347 414.764 204.877 414.036C205.407 413.308 206.156 412.769 207.014 412.497C207.873 412.226 208.795 412.237 209.647 412.528C210.499 412.819 211.235 413.375 211.748 414.115C211.79 414.187 211.848 414.247 211.916 414.293C211.985 414.339 212.063 414.369 212.145 414.38C212.227 414.369 212.305 414.339 212.374 414.293C212.442 414.247 212.5 414.187 212.542 414.115C212.937 413.56 213.455 413.104 214.056 412.782C214.657 412.461 215.325 412.283 216.006 412.262C217.129 412.262 218.207 412.709 219.001 413.503C219.795 414.297 220.242 415.375 220.242 416.498C220.143 417.375 219.86 418.222 219.411 418.982C218.963 419.743 218.359 420.4 217.638 420.91Z" fill="white"/>
<path d="M250.284 214.812V205.171C250.284 204.99 250.212 204.816 250.084 204.687C249.956 204.559 249.782 204.487 249.601 204.487H234.158C233.976 204.487 233.802 204.559 233.674 204.687C233.546 204.816 233.474 204.99 233.474 205.171V206.87H232.9C231.689 206.952 230.555 207.491 229.727 208.378C228.898 209.264 228.438 210.433 228.438 211.646C228.438 212.859 228.898 214.028 229.727 214.914C230.555 215.801 231.689 216.34 232.9 216.422H233.849C234.252 218.084 235.207 219.56 236.557 220.61C237.907 221.659 239.573 222.221 241.283 222.202H243.247C244.2 222.197 245.142 222 246.017 221.622C246.891 221.245 247.681 220.694 248.338 220.004C248.995 219.314 249.506 218.499 249.841 217.607C250.175 216.714 250.326 215.764 250.284 214.812ZM233.01 215.01C232.154 214.941 231.354 214.552 230.772 213.921C230.189 213.289 229.865 212.461 229.865 211.602C229.865 210.742 230.189 209.915 230.772 209.283C231.354 208.651 232.154 208.262 233.01 208.193H233.584V214.812C233.573 214.878 233.573 214.945 233.584 215.01H233.01ZM234.952 214.812V205.811H248.939V214.812C248.968 215.588 248.841 216.363 248.563 217.088C248.286 217.814 247.865 218.476 247.325 219.035C246.785 219.593 246.137 220.037 245.421 220.339C244.705 220.64 243.936 220.794 243.159 220.79H241.195C239.576 220.82 238.011 220.208 236.841 219.088C235.671 217.968 234.992 216.431 234.952 214.812Z" fill="white"/>
<path d="M239.171 202.105C239.054 202.191 238.967 202.312 238.923 202.451C238.88 202.589 238.881 202.739 238.928 202.876C238.975 203.014 239.064 203.133 239.183 203.217C239.302 203.3 239.445 203.343 239.591 203.34C239.733 203.337 239.872 203.291 239.988 203.208C240.296 202.978 240.553 202.687 240.743 202.353C240.933 202.019 241.051 201.649 241.091 201.267C241.112 200.825 241.031 200.385 240.855 199.979C240.679 199.574 240.413 199.214 240.076 198.928C239.882 198.752 239.727 198.538 239.621 198.298C239.514 198.059 239.46 197.8 239.46 197.538C239.46 197.276 239.514 197.017 239.621 196.778C239.727 196.539 239.882 196.324 240.076 196.148C240.142 196.088 240.195 196.015 240.231 195.933C240.268 195.852 240.286 195.763 240.286 195.674C240.286 195.585 240.268 195.496 240.231 195.414C240.195 195.333 240.142 195.26 240.076 195.2C240.012 195.136 239.937 195.085 239.853 195.05C239.77 195.015 239.681 194.998 239.591 194.998C239.5 194.998 239.411 195.015 239.328 195.05C239.244 195.085 239.169 195.136 239.105 195.2C238.479 195.848 238.11 196.703 238.068 197.604C238.084 198.023 238.184 198.434 238.362 198.813C238.54 199.192 238.793 199.532 239.105 199.81C239.293 199.969 239.447 200.164 239.557 200.384C239.667 200.604 239.731 200.844 239.745 201.09C239.722 201.289 239.659 201.481 239.561 201.655C239.462 201.83 239.33 201.983 239.171 202.105Z" fill="white"/>
<path d="M243.98 202.105C243.835 202.211 243.737 202.37 243.709 202.547C243.68 202.725 243.722 202.907 243.826 203.053C243.891 203.139 243.974 203.209 244.07 203.259C244.165 203.308 244.27 203.336 244.378 203.34C244.521 203.34 244.66 203.294 244.775 203.208C245.495 202.677 245.978 201.885 246.12 201.002C246.131 200.464 246.024 199.931 245.807 199.439C245.59 198.948 245.267 198.51 244.863 198.156C244.606 197.927 244.398 197.649 244.25 197.338C244.102 197.027 244.018 196.69 244.003 196.347C244.051 195.612 244.356 194.917 244.863 194.383C244.926 194.322 244.977 194.248 245.011 194.166C245.046 194.085 245.063 193.997 245.063 193.909C245.063 193.82 245.046 193.733 245.011 193.651C244.977 193.57 244.926 193.496 244.863 193.435C244.803 193.368 244.73 193.315 244.648 193.279C244.566 193.243 244.478 193.224 244.389 193.224C244.299 193.224 244.211 193.243 244.129 193.279C244.047 193.315 243.974 193.368 243.914 193.435C243.141 194.212 242.684 195.251 242.635 196.347C242.647 196.874 242.764 197.394 242.98 197.875C243.196 198.356 243.506 198.789 243.892 199.148C244.159 199.354 244.376 199.618 244.525 199.92C244.674 200.222 244.752 200.554 244.753 200.891C244.65 201.376 244.376 201.807 243.98 202.105Z" fill="white"/>
<path d="M243.737 633.273H345.837C350.735 633.273 354.662 628.552 354.662 622.772C354.662 616.992 350.646 612.271 345.837 612.271H243.737C238.839 612.271 234.912 616.992 234.912 622.772C234.912 628.552 238.839 633.273 243.737 633.273Z" fill="url(#paint36_linear_1_138471)"/>
<path d="M345.837 635.37H243.737C238.839 635.37 234.912 640.091 234.912 645.871C234.912 651.651 238.927 656.35 243.737 656.35H345.837C350.735 656.35 354.662 651.629 354.662 645.871C354.662 640.113 350.779 635.37 345.837 635.37Z" fill="url(#paint37_linear_1_138471)"/>
<path d="M345.837 658.645H243.737C238.839 658.645 234.912 663.366 234.912 669.124C234.912 674.882 238.927 679.625 243.737 679.625H345.837C350.735 679.625 354.662 674.904 354.662 669.124C354.662 663.344 350.779 658.645 345.837 658.645Z" fill="url(#paint38_linear_1_138471)"/>
<path d="M345.837 681.809H243.737C238.839 681.809 234.912 686.53 234.912 692.31C234.912 698.09 238.927 702.811 243.737 702.811H260.062L273.034 713.842V715.717C273.034 722.203 277.447 727.498 283.05 727.498H306.524C312.017 727.498 316.539 722.203 316.539 715.717V712.099C320.356 708.922 324.526 705.481 327.813 702.811H345.837C350.735 702.811 354.662 698.09 354.662 692.31C354.75 686.53 350.779 681.809 345.837 681.809Z" fill="url(#paint39_linear_1_138471)"/>
<defs>
<linearGradient id="paint0_linear_1_138471" x1="-nan" y1="-nan" x2="-nan" y2="-nan" gradientUnits="userSpaceOnUse">
<stop stop-color="#788199"/>
<stop offset="1" stop-color="#3A404B"/>
</linearGradient>
<linearGradient id="paint1_linear_1_138471" x1="-nan" y1="-nan" x2="-nan" y2="-nan" gradientUnits="userSpaceOnUse">
<stop stop-color="#788199"/>
<stop offset="1" stop-color="#3A404B"/>
</linearGradient>
<linearGradient id="paint2_linear_1_138471" x1="-nan" y1="-nan" x2="-nan" y2="-nan" gradientUnits="userSpaceOnUse">
<stop stop-color="#788199"/>
<stop offset="1" stop-color="#3A404B"/>
</linearGradient>
<linearGradient id="paint3_linear_1_138471" x1="411.574" y1="227.828" x2="480.736" y2="227.828" gradientUnits="userSpaceOnUse">
<stop stop-color="#788199"/>
<stop offset="1" stop-color="#3A404B"/>
</linearGradient>
<linearGradient id="paint4_linear_1_138471" x1="400.812" y1="142.032" x2="480.741" y2="142.032" gradientUnits="userSpaceOnUse">
<stop stop-color="#788199"/>
<stop offset="1" stop-color="#3A404B"/>
</linearGradient>
<linearGradient id="paint5_linear_1_138471" x1="387.463" y1="117.83" x2="406.436" y2="117.83" gradientUnits="userSpaceOnUse">
<stop stop-color="#788199"/>
<stop offset="1" stop-color="#3A404B"/>
</linearGradient>
<linearGradient id="paint6_linear_1_138471" x1="302.613" y1="142.075" x2="399.044" y2="142.075" gradientUnits="userSpaceOnUse">
<stop stop-color="#788199"/>
<stop offset="1" stop-color="#3A404B"/>
</linearGradient>
<linearGradient id="paint7_linear_1_138471" x1="180.994" y1="235.748" x2="243.229" y2="235.748" gradientUnits="userSpaceOnUse">
<stop stop-color="#788199"/>
<stop offset="1" stop-color="#3A404B"/>
</linearGradient>
<linearGradient id="paint8_linear_1_138471" x1="78.0957" y1="212.319" x2="179.975" y2="212.319" gradientUnits="userSpaceOnUse">
<stop stop-color="#788199"/>
<stop offset="1" stop-color="#3A404B"/>
</linearGradient>
<linearGradient id="paint9_linear_1_138471" x1="49.5481" y1="271.466" x2="170.71" y2="271.466" gradientUnits="userSpaceOnUse">
<stop stop-color="#788199"/>
<stop offset="1" stop-color="#3A404B"/>
</linearGradient>
<linearGradient id="paint10_linear_1_138471" x1="112.247" y1="311.706" x2="173.049" y2="311.706" gradientUnits="userSpaceOnUse">
<stop stop-color="#788199"/>
<stop offset="1" stop-color="#3A404B"/>
</linearGradient>
<linearGradient id="paint11_linear_1_138471" x1="179.935" y1="317.729" x2="188.693" y2="317.729" gradientUnits="userSpaceOnUse">
<stop stop-color="#788199"/>
<stop offset="1" stop-color="#3A404B"/>
</linearGradient>
<linearGradient id="paint12_linear_1_138471" x1="-nan" y1="-nan" x2="-nan" y2="-nan" gradientUnits="userSpaceOnUse">
<stop stop-color="#788199"/>
<stop offset="1" stop-color="#3A404B"/>
</linearGradient>
<linearGradient id="paint13_linear_1_138471" x1="350.094" y1="213.908" x2="350.094" y2="685.141" gradientUnits="userSpaceOnUse">
<stop stop-color="#788199"/>
<stop offset="1" stop-color="#3A404B"/>
</linearGradient>
<linearGradient id="paint14_linear_1_138471" x1="233.83" y1="213.908" x2="233.83" y2="685.141" gradientUnits="userSpaceOnUse">
<stop stop-color="#788199"/>
<stop offset="1" stop-color="#3A404B"/>
</linearGradient>
<linearGradient id="paint15_linear_1_138471" x1="238.592" y1="213.908" x2="238.592" y2="685.119" gradientUnits="userSpaceOnUse">
<stop stop-color="#788199"/>
<stop offset="1" stop-color="#3A404B"/>
</linearGradient>
<linearGradient id="paint16_linear_1_138471" x1="352.829" y1="213.908" x2="352.829" y2="685.141" gradientUnits="userSpaceOnUse">
<stop stop-color="#788199"/>
<stop offset="1" stop-color="#3A404B"/>
</linearGradient>
<linearGradient id="paint17_linear_1_138471" x1="280.07" y1="213.907" x2="280.07" y2="685.14" gradientUnits="userSpaceOnUse">
<stop stop-color="#788199"/>
<stop offset="1" stop-color="#3A404B"/>
</linearGradient>
<linearGradient id="paint18_linear_1_138471" x1="129.117" y1="172.43" x2="42.7904" y2="172.43" gradientUnits="userSpaceOnUse">
<stop stop-color="#0FFFFF"/>
<stop offset="0.18" stop-color="#15EDFF"/>
<stop offset="0.54" stop-color="#25BFFF"/>
<stop offset="1" stop-color="#3C7DFF"/>
</linearGradient>
<linearGradient id="paint19_linear_1_138471" x1="76.8068" y1="274.468" x2="22.668" y2="274.468" gradientUnits="userSpaceOnUse">
<stop stop-color="#FF88FF"/>
<stop offset="1" stop-color="#FF1EA8"/>
</linearGradient>
<linearGradient id="paint20_linear_1_138471" x1="137.619" y1="343.784" x2="91.8418" y2="343.784" gradientUnits="userSpaceOnUse">
<stop stop-color="#59C3E8"/>
<stop offset="0.3" stop-color="#8AD0B5"/>
<stop offset="0.62" stop-color="#B7DC85"/>
<stop offset="0.86" stop-color="#D3E467"/>
<stop offset="1" stop-color="#DEE75C"/>
</linearGradient>
<linearGradient id="paint21_linear_1_138471" x1="202.324" y1="351.857" x2="168.438" y2="351.857" gradientUnits="userSpaceOnUse">
<stop stop-color="#6960F1"/>
<stop offset="1" stop-color="#FF79FF"/>
</linearGradient>
<linearGradient id="paint22_linear_1_138471" x1="220.706" y1="164.588" x2="150.065" y2="164.588" gradientUnits="userSpaceOnUse">
<stop stop-color="#6960F1"/>
<stop offset="1" stop-color="#FF79FF"/>
</linearGradient>
<linearGradient id="paint23_linear_1_138471" x1="337.104" y1="104.402" x2="272.331" y2="104.402" gradientUnits="userSpaceOnUse">
<stop stop-color="#59C3E8"/>
<stop offset="0.3" stop-color="#8AD0B5"/>
<stop offset="0.62" stop-color="#B7DC85"/>
<stop offset="0.86" stop-color="#D3E467"/>
<stop offset="1" stop-color="#DEE75C"/>
</linearGradient>
<linearGradient id="paint24_linear_1_138471" x1="423.454" y1="55.9801" x2="358.064" y2="55.9801" gradientUnits="userSpaceOnUse">
<stop stop-color="#0FFFFF"/>
<stop offset="0.18" stop-color="#15EDFF"/>
<stop offset="0.54" stop-color="#25BFFF"/>
<stop offset="1" stop-color="#3C7DFF"/>
</linearGradient>
<linearGradient id="paint25_linear_1_138471" x1="500.111" y1="106.514" x2="453.284" y2="106.573" gradientUnits="userSpaceOnUse">
<stop stop-color="#FF63B3"/>
<stop offset="1" stop-color="#FFE578"/>
</linearGradient>
<linearGradient id="paint26_linear_1_138471" x1="551.646" y1="184.192" x2="488.859" y2="184.192" gradientUnits="userSpaceOnUse">
<stop stop-color="#0FFFFF"/>
<stop offset="0.18" stop-color="#15EDFF"/>
<stop offset="0.54" stop-color="#25BFFF"/>
<stop offset="1" stop-color="#3C7DFF"/>
</linearGradient>
<linearGradient id="paint27_linear_1_138471" x1="501.917" y1="260.053" x2="454.838" y2="260.053" gradientUnits="userSpaceOnUse">
<stop stop-color="#6960F1"/>
<stop offset="1" stop-color="#FF79FF"/>
</linearGradient>
<linearGradient id="paint28_linear_1_138471" x1="423.447" y1="283.622" x2="358.057" y2="283.622" gradientUnits="userSpaceOnUse">
<stop stop-color="#FF88FF"/>
<stop offset="1" stop-color="#FF1EA8"/>
</linearGradient>
<linearGradient id="paint29_linear_1_138471" x1="321.42" y1="186.899" x2="287.997" y2="186.899" gradientUnits="userSpaceOnUse">
<stop stop-color="#6960F1"/>
<stop offset="1" stop-color="#FF79FF"/>
</linearGradient>
<linearGradient id="paint30_linear_1_138471" x1="260.877" y1="208.768" x2="221.056" y2="208.768" gradientUnits="userSpaceOnUse">
<stop stop-color="#59C3E8"/>
<stop offset="0.3" stop-color="#8AD0B5"/>
<stop offset="0.62" stop-color="#B7DC85"/>
<stop offset="0.86" stop-color="#D3E467"/>
<stop offset="1" stop-color="#DEE75C"/>
</linearGradient>
<linearGradient id="paint31_linear_1_138471" x1="384.903" y1="359.491" x2="357.459" y2="359.491" gradientUnits="userSpaceOnUse">
<stop stop-color="#59C3E8"/>
<stop offset="0.3" stop-color="#8AD0B5"/>
<stop offset="0.62" stop-color="#B7DC85"/>
<stop offset="0.86" stop-color="#D3E467"/>
<stop offset="1" stop-color="#DEE75C"/>
</linearGradient>
<linearGradient id="paint32_linear_1_138471" x1="448.024" y1="184.191" x2="359.072" y2="184.191" gradientUnits="userSpaceOnUse">
<stop stop-color="#FF63B3"/>
<stop offset="1" stop-color="#FFE578"/>
</linearGradient>
<linearGradient id="paint33_linear_1_138471" x1="226.424" y1="268.477" x2="140.075" y2="268.477" gradientUnits="userSpaceOnUse">
<stop stop-color="#6960F1"/>
<stop offset="1" stop-color="#FF79FF"/>
</linearGradient>
<linearGradient id="paint34_linear_1_138471" x1="277.389" y1="267.907" x2="245.135" y2="267.907" gradientUnits="userSpaceOnUse">
<stop stop-color="#FF88FF"/>
<stop offset="1" stop-color="#FF1EA8"/>
</linearGradient>
<linearGradient id="paint35_linear_1_138471" x1="230.869" y1="418.351" x2="193.453" y2="418.351" gradientUnits="userSpaceOnUse">
<stop stop-color="#FF88FF"/>
<stop offset="1" stop-color="#FF1EA8"/>
</linearGradient>
<linearGradient id="paint36_linear_1_138471" x1="294.787" y1="606.866" x2="294.787" y2="727.277" gradientUnits="userSpaceOnUse">
<stop stop-color="#788199"/>
<stop offset="1" stop-color="#3A404B"/>
</linearGradient>
<linearGradient id="paint37_linear_1_138471" x1="294.787" y1="606.866" x2="294.787" y2="727.278" gradientUnits="userSpaceOnUse">
<stop stop-color="#788199"/>
<stop offset="1" stop-color="#3A404B"/>
</linearGradient>
<linearGradient id="paint38_linear_1_138471" x1="294.787" y1="606.866" x2="294.787" y2="727.278" gradientUnits="userSpaceOnUse">
<stop stop-color="#788199"/>
<stop offset="1" stop-color="#3A404B"/>
</linearGradient>
<linearGradient id="paint39_linear_1_138471" x1="294.787" y1="606.866" x2="294.787" y2="727.277" gradientUnits="userSpaceOnUse">
<stop stop-color="#788199"/>
<stop offset="1" stop-color="#3A404B"/>
</linearGradient>
</defs>
</svg>
